<mxfile host="app.diagrams.net" modified="2022-05-16T06:11:30.098Z" agent="5.0 (Windows NT 10.0; Win64; x64) AppleWebKit/537.36 (KHTML, like Gecko) Chrome/101.0.4951.54 Safari/537.36" etag="JHCf31tO3b_N3NVZa_n0" version="18.0.3" type="github">
  <diagram id="3iJboqYfilJ0szctq5U6" name="Page-1">
    <mxGraphModel dx="1673" dy="820" grid="1" gridSize="10" guides="1" tooltips="1" connect="1" arrows="1" fold="1" page="1" pageScale="1" pageWidth="827" pageHeight="1169" math="0" shadow="0">
      <root>
        <mxCell id="0" />
        <mxCell id="1" parent="0" />
        <mxCell id="Jlv6tlQgSIHZSu_hJbBJ-186" value="3웨이 핸드쉐이킹" style="rounded=0;whiteSpace=wrap;html=1;glass=0;verticalAlign=top;fontStyle=1;fontSize=15;" vertex="1" parent="1">
          <mxGeometry x="80" y="740" width="1480" height="1160" as="geometry" />
        </mxCell>
        <mxCell id="Jlv6tlQgSIHZSu_hJbBJ-180" value="PDU&amp;nbsp;" style="rounded=1;whiteSpace=wrap;html=1;glass=0;verticalAlign=top;" vertex="1" parent="1">
          <mxGeometry x="2000" y="1331" width="300" height="80" as="geometry" />
        </mxCell>
        <mxCell id="Jlv6tlQgSIHZSu_hJbBJ-1" value="TCP" style="rounded=0;whiteSpace=wrap;html=1;" vertex="1" parent="1">
          <mxGeometry x="60" y="380" width="120" height="60" as="geometry" />
        </mxCell>
        <mxCell id="Jlv6tlQgSIHZSu_hJbBJ-2" value="IP" style="rounded=0;whiteSpace=wrap;html=1;" vertex="1" parent="1">
          <mxGeometry x="60" y="480" width="120" height="60" as="geometry" />
        </mxCell>
        <mxCell id="Jlv6tlQgSIHZSu_hJbBJ-3" value="DRIVER" style="rounded=0;whiteSpace=wrap;html=1;" vertex="1" parent="1">
          <mxGeometry x="60" y="540" width="120" height="60" as="geometry" />
        </mxCell>
        <mxCell id="Jlv6tlQgSIHZSu_hJbBJ-4" value="NIC" style="rounded=0;whiteSpace=wrap;html=1;" vertex="1" parent="1">
          <mxGeometry x="60" y="600" width="120" height="60" as="geometry" />
        </mxCell>
        <mxCell id="Jlv6tlQgSIHZSu_hJbBJ-5" value="소켓" style="ellipse;whiteSpace=wrap;html=1;" vertex="1" parent="1">
          <mxGeometry x="60" y="190" width="120" height="80" as="geometry" />
        </mxCell>
        <mxCell id="Jlv6tlQgSIHZSu_hJbBJ-20" style="edgeStyle=orthogonalEdgeStyle;rounded=0;orthogonalLoop=1;jettySize=auto;html=1;entryX=0.5;entryY=0;entryDx=0;entryDy=0;" edge="1" parent="1" source="Jlv6tlQgSIHZSu_hJbBJ-6" target="Jlv6tlQgSIHZSu_hJbBJ-5">
          <mxGeometry relative="1" as="geometry" />
        </mxCell>
        <mxCell id="Jlv6tlQgSIHZSu_hJbBJ-6" value="클라이언트" style="rounded=1;whiteSpace=wrap;html=1;" vertex="1" parent="1">
          <mxGeometry x="60" y="50" width="120" height="60" as="geometry" />
        </mxCell>
        <mxCell id="Jlv6tlQgSIHZSu_hJbBJ-13" value="TCP" style="rounded=0;whiteSpace=wrap;html=1;" vertex="1" parent="1">
          <mxGeometry x="650" y="380" width="120" height="60" as="geometry" />
        </mxCell>
        <mxCell id="Jlv6tlQgSIHZSu_hJbBJ-14" value="IP" style="rounded=0;whiteSpace=wrap;html=1;" vertex="1" parent="1">
          <mxGeometry x="650" y="480" width="120" height="60" as="geometry" />
        </mxCell>
        <mxCell id="Jlv6tlQgSIHZSu_hJbBJ-15" value="DRIVER" style="rounded=0;whiteSpace=wrap;html=1;" vertex="1" parent="1">
          <mxGeometry x="650" y="540" width="120" height="60" as="geometry" />
        </mxCell>
        <mxCell id="Jlv6tlQgSIHZSu_hJbBJ-16" value="NIC" style="rounded=0;whiteSpace=wrap;html=1;" vertex="1" parent="1">
          <mxGeometry x="650" y="600" width="120" height="60" as="geometry" />
        </mxCell>
        <mxCell id="Jlv6tlQgSIHZSu_hJbBJ-24" value="BUFFERED I/O" style="edgeStyle=orthogonalEdgeStyle;rounded=0;orthogonalLoop=1;jettySize=auto;html=1;exitX=0.5;exitY=1;exitDx=0;exitDy=0;" edge="1" parent="1" source="Jlv6tlQgSIHZSu_hJbBJ-17" target="Jlv6tlQgSIHZSu_hJbBJ-13">
          <mxGeometry relative="1" as="geometry" />
        </mxCell>
        <mxCell id="Jlv6tlQgSIHZSu_hJbBJ-17" value="소켓" style="ellipse;whiteSpace=wrap;html=1;" vertex="1" parent="1">
          <mxGeometry x="650" y="190" width="120" height="80" as="geometry" />
        </mxCell>
        <mxCell id="Jlv6tlQgSIHZSu_hJbBJ-21" value="인풋 / 아웃풋" style="edgeStyle=orthogonalEdgeStyle;rounded=0;orthogonalLoop=1;jettySize=auto;html=1;entryX=0.5;entryY=0;entryDx=0;entryDy=0;" edge="1" parent="1" source="Jlv6tlQgSIHZSu_hJbBJ-18" target="Jlv6tlQgSIHZSu_hJbBJ-17">
          <mxGeometry relative="1" as="geometry" />
        </mxCell>
        <mxCell id="Jlv6tlQgSIHZSu_hJbBJ-18" value="서버" style="rounded=1;whiteSpace=wrap;html=1;" vertex="1" parent="1">
          <mxGeometry x="650" y="50" width="120" height="60" as="geometry" />
        </mxCell>
        <mxCell id="Jlv6tlQgSIHZSu_hJbBJ-22" value="RECEIVE" style="text;html=1;align=center;verticalAlign=middle;resizable=0;points=[];autosize=1;strokeColor=none;fillColor=none;" vertex="1" parent="1">
          <mxGeometry x="545" y="50" width="70" height="20" as="geometry" />
        </mxCell>
        <mxCell id="Jlv6tlQgSIHZSu_hJbBJ-23" value="SEND" style="text;html=1;align=center;verticalAlign=middle;resizable=0;points=[];autosize=1;strokeColor=none;fillColor=none;" vertex="1" parent="1">
          <mxGeometry x="545" y="80" width="50" height="20" as="geometry" />
        </mxCell>
        <mxCell id="Jlv6tlQgSIHZSu_hJbBJ-25" value="" style="rounded=0;whiteSpace=wrap;html=1;" vertex="1" parent="1">
          <mxGeometry x="827" y="200" width="63" height="60" as="geometry" />
        </mxCell>
        <mxCell id="Jlv6tlQgSIHZSu_hJbBJ-26" value="" style="rounded=0;whiteSpace=wrap;html=1;" vertex="1" parent="1">
          <mxGeometry x="890" y="200" width="63" height="60" as="geometry" />
        </mxCell>
        <mxCell id="Jlv6tlQgSIHZSu_hJbBJ-57" style="edgeStyle=orthogonalEdgeStyle;rounded=0;orthogonalLoop=1;jettySize=auto;html=1;exitX=0;exitY=1;exitDx=0;exitDy=0;entryX=0;entryY=0;entryDx=0;entryDy=0;" edge="1" parent="1" source="Jlv6tlQgSIHZSu_hJbBJ-27" target="Jlv6tlQgSIHZSu_hJbBJ-35">
          <mxGeometry relative="1" as="geometry" />
        </mxCell>
        <mxCell id="Jlv6tlQgSIHZSu_hJbBJ-27" value="" style="rounded=0;whiteSpace=wrap;html=1;" vertex="1" parent="1">
          <mxGeometry x="953" y="200" width="63" height="60" as="geometry" />
        </mxCell>
        <mxCell id="Jlv6tlQgSIHZSu_hJbBJ-28" value="" style="rounded=0;whiteSpace=wrap;html=1;" vertex="1" parent="1">
          <mxGeometry x="1016" y="200" width="63" height="60" as="geometry" />
        </mxCell>
        <mxCell id="Jlv6tlQgSIHZSu_hJbBJ-33" value="" style="rounded=0;whiteSpace=wrap;html=1;" vertex="1" parent="1">
          <mxGeometry x="827" y="380" width="63" height="60" as="geometry" />
        </mxCell>
        <mxCell id="Jlv6tlQgSIHZSu_hJbBJ-34" value="" style="rounded=0;whiteSpace=wrap;html=1;" vertex="1" parent="1">
          <mxGeometry x="890" y="380" width="63" height="60" as="geometry" />
        </mxCell>
        <mxCell id="Jlv6tlQgSIHZSu_hJbBJ-35" value="" style="rounded=0;whiteSpace=wrap;html=1;" vertex="1" parent="1">
          <mxGeometry x="953" y="380" width="63" height="60" as="geometry" />
        </mxCell>
        <mxCell id="Jlv6tlQgSIHZSu_hJbBJ-36" value="" style="rounded=0;whiteSpace=wrap;html=1;" vertex="1" parent="1">
          <mxGeometry x="1016" y="380" width="63" height="60" as="geometry" />
        </mxCell>
        <mxCell id="Jlv6tlQgSIHZSu_hJbBJ-37" value="BUFFER 1" style="text;html=1;align=center;verticalAlign=middle;resizable=0;points=[];autosize=1;strokeColor=none;fillColor=none;" vertex="1" parent="1">
          <mxGeometry x="795" y="170" width="70" height="20" as="geometry" />
        </mxCell>
        <mxCell id="Jlv6tlQgSIHZSu_hJbBJ-38" value="BUFFER 2" style="text;html=1;align=center;verticalAlign=middle;resizable=0;points=[];autosize=1;strokeColor=none;fillColor=none;" vertex="1" parent="1">
          <mxGeometry x="795" y="350" width="70" height="20" as="geometry" />
        </mxCell>
        <mxCell id="Jlv6tlQgSIHZSu_hJbBJ-56" style="edgeStyle=orthogonalEdgeStyle;rounded=0;orthogonalLoop=1;jettySize=auto;html=1;exitX=1;exitY=1;exitDx=0;exitDy=0;entryX=0;entryY=0;entryDx=0;entryDy=0;" edge="1" parent="1" source="Jlv6tlQgSIHZSu_hJbBJ-43" target="Jlv6tlQgSIHZSu_hJbBJ-27">
          <mxGeometry relative="1" as="geometry" />
        </mxCell>
        <mxCell id="Jlv6tlQgSIHZSu_hJbBJ-43" value="&lt;span style=&quot;&quot;&gt;16kb&lt;/span&gt;" style="rounded=0;whiteSpace=wrap;html=1;fillColor=#fff2cc;strokeColor=#d6b656;" vertex="1" parent="1">
          <mxGeometry x="890" y="10" width="63" height="60" as="geometry" />
        </mxCell>
        <mxCell id="Jlv6tlQgSIHZSu_hJbBJ-44" value="&lt;span style=&quot;&quot;&gt;16kb&lt;/span&gt;" style="rounded=0;whiteSpace=wrap;html=1;fillColor=#fff2cc;strokeColor=#d6b656;" vertex="1" parent="1">
          <mxGeometry x="953" y="10" width="63" height="60" as="geometry" />
        </mxCell>
        <mxCell id="Jlv6tlQgSIHZSu_hJbBJ-45" value="&lt;span style=&quot;&quot;&gt;16kb&lt;/span&gt;" style="rounded=0;whiteSpace=wrap;html=1;fillColor=#fff2cc;strokeColor=#d6b656;" vertex="1" parent="1">
          <mxGeometry x="1016" y="10" width="63" height="60" as="geometry" />
        </mxCell>
        <mxCell id="Jlv6tlQgSIHZSu_hJbBJ-46" value="16kb" style="rounded=0;whiteSpace=wrap;html=1;fillColor=#fff2cc;strokeColor=#d6b656;" vertex="1" parent="1">
          <mxGeometry x="827" y="10" width="63" height="60" as="geometry" />
        </mxCell>
        <mxCell id="Jlv6tlQgSIHZSu_hJbBJ-47" value="" style="rounded=0;whiteSpace=wrap;html=1;" vertex="1" parent="1">
          <mxGeometry x="1142" y="10" width="63" height="60" as="geometry" />
        </mxCell>
        <mxCell id="Jlv6tlQgSIHZSu_hJbBJ-48" value="" style="rounded=0;whiteSpace=wrap;html=1;" vertex="1" parent="1">
          <mxGeometry x="1205" y="10" width="63" height="60" as="geometry" />
        </mxCell>
        <mxCell id="Jlv6tlQgSIHZSu_hJbBJ-49" value="" style="rounded=0;whiteSpace=wrap;html=1;" vertex="1" parent="1">
          <mxGeometry x="1268" y="10" width="63" height="60" as="geometry" />
        </mxCell>
        <mxCell id="Jlv6tlQgSIHZSu_hJbBJ-50" value="" style="rounded=0;whiteSpace=wrap;html=1;" vertex="1" parent="1">
          <mxGeometry x="1079" y="10" width="63" height="60" as="geometry" />
        </mxCell>
        <mxCell id="Jlv6tlQgSIHZSu_hJbBJ-51" value="" style="rounded=0;whiteSpace=wrap;html=1;" vertex="1" parent="1">
          <mxGeometry x="1394" y="10" width="63" height="60" as="geometry" />
        </mxCell>
        <mxCell id="Jlv6tlQgSIHZSu_hJbBJ-52" value="" style="rounded=0;whiteSpace=wrap;html=1;" vertex="1" parent="1">
          <mxGeometry x="1457" y="10" width="63" height="60" as="geometry" />
        </mxCell>
        <mxCell id="Jlv6tlQgSIHZSu_hJbBJ-53" value="" style="rounded=0;whiteSpace=wrap;html=1;" vertex="1" parent="1">
          <mxGeometry x="1520" y="10" width="63" height="60" as="geometry" />
        </mxCell>
        <mxCell id="Jlv6tlQgSIHZSu_hJbBJ-54" value="" style="rounded=0;whiteSpace=wrap;html=1;" vertex="1" parent="1">
          <mxGeometry x="1331" y="10" width="63" height="60" as="geometry" />
        </mxCell>
        <mxCell id="Jlv6tlQgSIHZSu_hJbBJ-58" value="packet" style="rounded=1;whiteSpace=wrap;html=1;verticalAlign=bottom;" vertex="1" parent="1">
          <mxGeometry x="812" y="462.5" width="93" height="95" as="geometry" />
        </mxCell>
        <mxCell id="Jlv6tlQgSIHZSu_hJbBJ-61" style="edgeStyle=orthogonalEdgeStyle;rounded=0;orthogonalLoop=1;jettySize=auto;html=1;exitX=0.5;exitY=1;exitDx=0;exitDy=0;" edge="1" parent="1" source="Jlv6tlQgSIHZSu_hJbBJ-58" target="Jlv6tlQgSIHZSu_hJbBJ-58">
          <mxGeometry relative="1" as="geometry" />
        </mxCell>
        <mxCell id="Jlv6tlQgSIHZSu_hJbBJ-62" value="segmant" style="rounded=0;whiteSpace=wrap;html=1;" vertex="1" parent="1">
          <mxGeometry x="827" y="477.5" width="63" height="60" as="geometry" />
        </mxCell>
        <mxCell id="Jlv6tlQgSIHZSu_hJbBJ-63" style="edgeStyle=orthogonalEdgeStyle;rounded=0;orthogonalLoop=1;jettySize=auto;html=1;exitX=0.5;exitY=1;exitDx=0;exitDy=0;entryX=0.5;entryY=0;entryDx=0;entryDy=0;" edge="1" parent="1" source="Jlv6tlQgSIHZSu_hJbBJ-33" target="Jlv6tlQgSIHZSu_hJbBJ-62">
          <mxGeometry relative="1" as="geometry" />
        </mxCell>
        <mxCell id="Jlv6tlQgSIHZSu_hJbBJ-66" value="소켓함수()" style="rounded=0;whiteSpace=wrap;html=1;" vertex="1" parent="1">
          <mxGeometry x="120" y="880" width="120" height="60" as="geometry" />
        </mxCell>
        <mxCell id="Jlv6tlQgSIHZSu_hJbBJ-69" value="IP 주소&lt;br&gt;&lt;br&gt;bind() ip &amp;amp; port" style="edgeStyle=orthogonalEdgeStyle;rounded=0;orthogonalLoop=1;jettySize=auto;html=1;exitX=0.5;exitY=1;exitDx=0;exitDy=0;entryX=0.5;entryY=0;entryDx=0;entryDy=0;" edge="1" parent="1" source="Jlv6tlQgSIHZSu_hJbBJ-67" target="Jlv6tlQgSIHZSu_hJbBJ-68">
          <mxGeometry relative="1" as="geometry" />
        </mxCell>
        <mxCell id="Jlv6tlQgSIHZSu_hJbBJ-67" value="소켓함수()" style="rounded=0;whiteSpace=wrap;html=1;" vertex="1" parent="1">
          <mxGeometry x="520" y="880" width="120" height="60" as="geometry" />
        </mxCell>
        <mxCell id="Jlv6tlQgSIHZSu_hJbBJ-115" style="edgeStyle=orthogonalEdgeStyle;rounded=0;orthogonalLoop=1;jettySize=auto;html=1;exitX=0.5;exitY=1;exitDx=0;exitDy=0;entryX=0.5;entryY=0;entryDx=0;entryDy=0;" edge="1" parent="1" source="Jlv6tlQgSIHZSu_hJbBJ-68" target="Jlv6tlQgSIHZSu_hJbBJ-81">
          <mxGeometry relative="1" as="geometry" />
        </mxCell>
        <mxCell id="Jlv6tlQgSIHZSu_hJbBJ-68" value="listen()&lt;br&gt;연결 대기중" style="rounded=0;whiteSpace=wrap;html=1;fillColor=#f5f5f5;strokeColor=#666666;fontColor=#333333;" vertex="1" parent="1">
          <mxGeometry x="520" y="1100" width="120" height="60" as="geometry" />
        </mxCell>
        <mxCell id="Jlv6tlQgSIHZSu_hJbBJ-70" value="" style="endArrow=none;dashed=1;html=1;dashPattern=1 3;strokeWidth=2;rounded=0;" edge="1" parent="1">
          <mxGeometry width="50" height="50" relative="1" as="geometry">
            <mxPoint x="80" y="1090" as="sourcePoint" />
            <mxPoint x="820" y="1090" as="targetPoint" />
          </mxGeometry>
        </mxCell>
        <mxCell id="Jlv6tlQgSIHZSu_hJbBJ-94" style="edgeStyle=orthogonalEdgeStyle;rounded=0;orthogonalLoop=1;jettySize=auto;html=1;entryX=0.5;entryY=0;entryDx=0;entryDy=0;" edge="1" parent="1" source="Jlv6tlQgSIHZSu_hJbBJ-73" target="Jlv6tlQgSIHZSu_hJbBJ-75">
          <mxGeometry relative="1" as="geometry" />
        </mxCell>
        <mxCell id="Jlv6tlQgSIHZSu_hJbBJ-73" value="closed" style="ellipse;whiteSpace=wrap;html=1;" vertex="1" parent="1">
          <mxGeometry x="760" y="960" width="120" height="60" as="geometry" />
        </mxCell>
        <mxCell id="Jlv6tlQgSIHZSu_hJbBJ-96" value="" style="edgeStyle=orthogonalEdgeStyle;rounded=0;orthogonalLoop=1;jettySize=auto;html=1;" edge="1" parent="1" source="Jlv6tlQgSIHZSu_hJbBJ-75" target="Jlv6tlQgSIHZSu_hJbBJ-95">
          <mxGeometry relative="1" as="geometry" />
        </mxCell>
        <mxCell id="Jlv6tlQgSIHZSu_hJbBJ-75" value="open" style="ellipse;whiteSpace=wrap;html=1;" vertex="1" parent="1">
          <mxGeometry x="760" y="1140" width="120" height="60" as="geometry" />
        </mxCell>
        <mxCell id="Jlv6tlQgSIHZSu_hJbBJ-78" value="" style="edgeStyle=orthogonalEdgeStyle;rounded=0;orthogonalLoop=1;jettySize=auto;html=1;" edge="1" parent="1" source="Jlv6tlQgSIHZSu_hJbBJ-76" target="Jlv6tlQgSIHZSu_hJbBJ-77">
          <mxGeometry relative="1" as="geometry" />
        </mxCell>
        <mxCell id="Jlv6tlQgSIHZSu_hJbBJ-82" value="연결 요청" style="edgeStyle=orthogonalEdgeStyle;rounded=0;orthogonalLoop=1;jettySize=auto;html=1;" edge="1" parent="1" source="Jlv6tlQgSIHZSu_hJbBJ-76" target="Jlv6tlQgSIHZSu_hJbBJ-81">
          <mxGeometry relative="1" as="geometry" />
        </mxCell>
        <mxCell id="Jlv6tlQgSIHZSu_hJbBJ-76" value="Connect()&lt;br&gt;SYN 패킷을 SENT" style="rounded=0;whiteSpace=wrap;html=1;fillColor=#fff2cc;strokeColor=#d6b656;" vertex="1" parent="1">
          <mxGeometry x="120" y="1180" width="120" height="60" as="geometry" />
        </mxCell>
        <mxCell id="Jlv6tlQgSIHZSu_hJbBJ-92" value="" style="edgeStyle=orthogonalEdgeStyle;rounded=0;orthogonalLoop=1;jettySize=auto;html=1;" edge="1" parent="1" source="Jlv6tlQgSIHZSu_hJbBJ-77" target="Jlv6tlQgSIHZSu_hJbBJ-91">
          <mxGeometry relative="1" as="geometry" />
        </mxCell>
        <mxCell id="Jlv6tlQgSIHZSu_hJbBJ-77" value="SYN / ACK&lt;br&gt;대기상태" style="whiteSpace=wrap;html=1;rounded=0;" vertex="1" parent="1">
          <mxGeometry x="120" y="1271" width="120" height="60" as="geometry" />
        </mxCell>
        <mxCell id="Jlv6tlQgSIHZSu_hJbBJ-84" value="" style="edgeStyle=orthogonalEdgeStyle;rounded=0;orthogonalLoop=1;jettySize=auto;html=1;" edge="1" parent="1" source="Jlv6tlQgSIHZSu_hJbBJ-81" target="Jlv6tlQgSIHZSu_hJbBJ-83">
          <mxGeometry relative="1" as="geometry" />
        </mxCell>
        <mxCell id="Jlv6tlQgSIHZSu_hJbBJ-81" value="SYN 수신" style="rounded=0;whiteSpace=wrap;html=1;fillColor=#dae8fc;strokeColor=#6c8ebf;" vertex="1" parent="1">
          <mxGeometry x="520" y="1180" width="120" height="60" as="geometry" />
        </mxCell>
        <mxCell id="Jlv6tlQgSIHZSu_hJbBJ-86" value="" style="edgeStyle=orthogonalEdgeStyle;rounded=0;orthogonalLoop=1;jettySize=auto;html=1;" edge="1" parent="1" source="Jlv6tlQgSIHZSu_hJbBJ-83" target="Jlv6tlQgSIHZSu_hJbBJ-85">
          <mxGeometry relative="1" as="geometry" />
        </mxCell>
        <mxCell id="Jlv6tlQgSIHZSu_hJbBJ-83" value="연결요청 수락" style="whiteSpace=wrap;html=1;rounded=0;" vertex="1" parent="1">
          <mxGeometry x="520" y="1271" width="120" height="60" as="geometry" />
        </mxCell>
        <mxCell id="Jlv6tlQgSIHZSu_hJbBJ-88" value="" style="edgeStyle=orthogonalEdgeStyle;rounded=0;orthogonalLoop=1;jettySize=auto;html=1;" edge="1" parent="1" source="Jlv6tlQgSIHZSu_hJbBJ-85" target="Jlv6tlQgSIHZSu_hJbBJ-87">
          <mxGeometry relative="1" as="geometry" />
        </mxCell>
        <mxCell id="Jlv6tlQgSIHZSu_hJbBJ-93" style="edgeStyle=orthogonalEdgeStyle;rounded=0;orthogonalLoop=1;jettySize=auto;html=1;entryX=1;entryY=0.5;entryDx=0;entryDy=0;" edge="1" parent="1" source="Jlv6tlQgSIHZSu_hJbBJ-85" target="Jlv6tlQgSIHZSu_hJbBJ-91">
          <mxGeometry relative="1" as="geometry" />
        </mxCell>
        <mxCell id="Jlv6tlQgSIHZSu_hJbBJ-85" value="ACK + SYN flag&lt;br&gt;설정 패킷을 발송함" style="whiteSpace=wrap;html=1;rounded=0;fillColor=#fff2cc;strokeColor=#d6b656;" vertex="1" parent="1">
          <mxGeometry x="520" y="1360" width="120" height="60" as="geometry" />
        </mxCell>
        <mxCell id="Jlv6tlQgSIHZSu_hJbBJ-100" value="" style="edgeStyle=orthogonalEdgeStyle;rounded=0;orthogonalLoop=1;jettySize=auto;html=1;" edge="1" parent="1" source="Jlv6tlQgSIHZSu_hJbBJ-87" target="Jlv6tlQgSIHZSu_hJbBJ-99">
          <mxGeometry relative="1" as="geometry" />
        </mxCell>
        <mxCell id="Jlv6tlQgSIHZSu_hJbBJ-87" value="SYN_RECEIVED&lt;br&gt;상태 대기" style="whiteSpace=wrap;html=1;rounded=0;glass=0;" vertex="1" parent="1">
          <mxGeometry x="520" y="1440" width="120" height="60" as="geometry" />
        </mxCell>
        <mxCell id="Jlv6tlQgSIHZSu_hJbBJ-98" value="" style="edgeStyle=orthogonalEdgeStyle;rounded=0;orthogonalLoop=1;jettySize=auto;html=1;" edge="1" parent="1" source="Jlv6tlQgSIHZSu_hJbBJ-91" target="Jlv6tlQgSIHZSu_hJbBJ-97">
          <mxGeometry relative="1" as="geometry" />
        </mxCell>
        <mxCell id="Jlv6tlQgSIHZSu_hJbBJ-91" value="ACK + SYN flag 수신" style="whiteSpace=wrap;html=1;rounded=0;fillColor=#dae8fc;strokeColor=#6c8ebf;" vertex="1" parent="1">
          <mxGeometry x="120" y="1360" width="120" height="60" as="geometry" />
        </mxCell>
        <mxCell id="Jlv6tlQgSIHZSu_hJbBJ-95" value="ESTABLISH" style="ellipse;whiteSpace=wrap;html=1;" vertex="1" parent="1">
          <mxGeometry x="760" y="1550" width="120" height="60" as="geometry" />
        </mxCell>
        <mxCell id="Jlv6tlQgSIHZSu_hJbBJ-101" style="edgeStyle=orthogonalEdgeStyle;rounded=0;orthogonalLoop=1;jettySize=auto;html=1;entryX=0;entryY=0.5;entryDx=0;entryDy=0;" edge="1" parent="1" source="Jlv6tlQgSIHZSu_hJbBJ-97" target="Jlv6tlQgSIHZSu_hJbBJ-99">
          <mxGeometry relative="1" as="geometry" />
        </mxCell>
        <mxCell id="Jlv6tlQgSIHZSu_hJbBJ-108" value="" style="edgeStyle=orthogonalEdgeStyle;rounded=0;orthogonalLoop=1;jettySize=auto;html=1;" edge="1" parent="1" source="Jlv6tlQgSIHZSu_hJbBJ-97" target="Jlv6tlQgSIHZSu_hJbBJ-107">
          <mxGeometry relative="1" as="geometry" />
        </mxCell>
        <mxCell id="Jlv6tlQgSIHZSu_hJbBJ-97" value="ACK 발송" style="whiteSpace=wrap;html=1;rounded=0;fillColor=#fff2cc;strokeColor=#d6b656;" vertex="1" parent="1">
          <mxGeometry x="120" y="1540" width="120" height="60" as="geometry" />
        </mxCell>
        <mxCell id="Jlv6tlQgSIHZSu_hJbBJ-106" value="" style="edgeStyle=orthogonalEdgeStyle;rounded=0;orthogonalLoop=1;jettySize=auto;html=1;" edge="1" parent="1" source="Jlv6tlQgSIHZSu_hJbBJ-99" target="Jlv6tlQgSIHZSu_hJbBJ-105">
          <mxGeometry relative="1" as="geometry" />
        </mxCell>
        <mxCell id="Jlv6tlQgSIHZSu_hJbBJ-119" style="edgeStyle=orthogonalEdgeStyle;rounded=0;orthogonalLoop=1;jettySize=auto;html=1;exitX=1;exitY=0.5;exitDx=0;exitDy=0;entryX=1;entryY=0.5;entryDx=0;entryDy=0;" edge="1" parent="1" source="Jlv6tlQgSIHZSu_hJbBJ-99" target="Jlv6tlQgSIHZSu_hJbBJ-68">
          <mxGeometry relative="1" as="geometry">
            <Array as="points">
              <mxPoint x="730" y="1570" />
              <mxPoint x="730" y="1130" />
            </Array>
          </mxGeometry>
        </mxCell>
        <mxCell id="Jlv6tlQgSIHZSu_hJbBJ-99" value="ACCEPT()" style="whiteSpace=wrap;html=1;rounded=0;glass=0;fillColor=#dae8fc;strokeColor=#6c8ebf;" vertex="1" parent="1">
          <mxGeometry x="520" y="1540" width="120" height="60" as="geometry" />
        </mxCell>
        <mxCell id="Jlv6tlQgSIHZSu_hJbBJ-104" value="" style="endArrow=none;dashed=1;html=1;dashPattern=1 3;strokeWidth=2;rounded=0;" edge="1" parent="1">
          <mxGeometry width="50" height="50" relative="1" as="geometry">
            <mxPoint x="87" y="1650" as="sourcePoint" />
            <mxPoint x="827" y="1650" as="targetPoint" />
          </mxGeometry>
        </mxCell>
        <mxCell id="Jlv6tlQgSIHZSu_hJbBJ-114" value="" style="edgeStyle=orthogonalEdgeStyle;rounded=0;orthogonalLoop=1;jettySize=auto;html=1;" edge="1" parent="1" source="Jlv6tlQgSIHZSu_hJbBJ-105" target="Jlv6tlQgSIHZSu_hJbBJ-113">
          <mxGeometry relative="1" as="geometry" />
        </mxCell>
        <mxCell id="Jlv6tlQgSIHZSu_hJbBJ-105" value="&lt;span style=&quot;&quot;&gt;SEND / RECV&lt;/span&gt;" style="whiteSpace=wrap;html=1;rounded=0;glass=0;" vertex="1" parent="1">
          <mxGeometry x="520" y="1680" width="120" height="60" as="geometry" />
        </mxCell>
        <mxCell id="Jlv6tlQgSIHZSu_hJbBJ-112" value="" style="edgeStyle=orthogonalEdgeStyle;rounded=0;orthogonalLoop=1;jettySize=auto;html=1;" edge="1" parent="1" source="Jlv6tlQgSIHZSu_hJbBJ-107" target="Jlv6tlQgSIHZSu_hJbBJ-111">
          <mxGeometry relative="1" as="geometry" />
        </mxCell>
        <mxCell id="Jlv6tlQgSIHZSu_hJbBJ-107" value="SEND / RECV" style="whiteSpace=wrap;html=1;rounded=0;" vertex="1" parent="1">
          <mxGeometry x="120" y="1680" width="120" height="60" as="geometry" />
        </mxCell>
        <mxCell id="Jlv6tlQgSIHZSu_hJbBJ-109" value="" style="endArrow=classic;startArrow=classic;html=1;rounded=0;entryX=0;entryY=0.5;entryDx=0;entryDy=0;" edge="1" parent="1" target="Jlv6tlQgSIHZSu_hJbBJ-105">
          <mxGeometry width="50" height="50" relative="1" as="geometry">
            <mxPoint x="240" y="1710" as="sourcePoint" />
            <mxPoint x="290" y="1660" as="targetPoint" />
          </mxGeometry>
        </mxCell>
        <mxCell id="Jlv6tlQgSIHZSu_hJbBJ-111" value="CLOSE()" style="whiteSpace=wrap;html=1;rounded=0;" vertex="1" parent="1">
          <mxGeometry x="120" y="1800" width="120" height="60" as="geometry" />
        </mxCell>
        <mxCell id="Jlv6tlQgSIHZSu_hJbBJ-113" value="CLOSE()" style="whiteSpace=wrap;html=1;rounded=0;glass=0;" vertex="1" parent="1">
          <mxGeometry x="520" y="1800" width="120" height="60" as="geometry" />
        </mxCell>
        <mxCell id="Jlv6tlQgSIHZSu_hJbBJ-116" value="" style="shape=image;verticalLabelPosition=bottom;labelBackgroundColor=default;verticalAlign=top;aspect=fixed;imageAspect=0;image=data:image/png,iVBORw0KGgoAAAANSUhEUgAAAnIAAAGwCAYAAAAt5oi3AAAgAElEQVR4Ae2dT4/sxnX2G7jAXekaF9YmyiJ5N5Zk+Hoxzm4WztoxJMCLYJKlE2d2EqKlJ1DaSOA4kRRoZLnlRBPZiexITlpJJFseyDcKgpZl68rO/0UDo/E3GN/PUC9Okad4qlhkkxwWu1j1DNDobrL+nnrqqV8X2T2L//u//1N4IAbQADQADUAD0AA0AA3MTwMLDNr8Bg1jhjGDBqABaAAagAagAdIAQA47ktiRhQagAWgAGoAGoIGZagAgN9OBwycxfBKDBqABaAAagAaggcX//u//KjwQA2gAGoAGoAFoABqABuanAYAcQBYgDw1AA9AANAANQAMz1QBAbqYDh09N8/vUhDHDmEED0AA0AA2MrQGAHEAOn8KgAWgAGoAGoAFoYKYaaAW5xWKh8EAMoAFoYEoNjP1p9brlTdl31IW5Bg1AA6SBPr4FkAOsAtahgag00MfApkiLhRULKzQADUytgT7e1gnkXn75ZYUHYgANQAMhNcBG2cfApkjL7QrZd5SNuQUNQAOkAfabPt7WCeT++q//WuGBGEAD0EBIDQwxsD5mNzQttytk31E25hY0AA2QBthv+vhVJ5D7q7/6K4UHYgANQAMhNTDEwPqY3dC03K6QfUfZmFvQADRAGmC/6eNXADlAKiAdGohCA0MMrI/ZDU3L7cJCi4UWGoAGQmuA/aaPX3UCuW9+85sKD8QAGoAGQmpgiIH1MbuhabldIfuOsjG3oAFogDTAftPHrzqB3EsvvaTwQAygAWggpAaGGFgfsxualtsVsu8oG3MLGoAGSAPsN338qhPIrVYrhQdiAA1AAyE1MMTA+pjd0LTcrpB9R9mYW9AANEAaYL/p41cAOUAqIB0aiEIDQwysj9kNTcvtwkKLhRYagAZCa4D9po9fdQK5b3zjGwoPxAAagAZCamCIgfUxu6FpuV0h+46yMbegAWiANMB+08evOoHciy++qPAYOwY/Ur9Q9t8vflTV8aPy5P2fv+6Nve/86z+/bxdo3v1C/agcQ5lG1sfja87/4kfqxRdfV41FesrmMmrP3FiT5776+etVX036Wjqlmvpf5BkSQ5Hn/s/V6y++qEyfTfv4BcVtpBhgDnl1bMb+xRcHGVgfsxualo1VthWvPfO3i8Zrc9z2gva5WNRZK8JMV/IsSlPN8Ub/MIUU3jhOvR1iYurlRtv9N7qqpYMXmth00dmM07Df9PGrTiD39a9/XeExXgxe+1kTcCn1i3eKet5hkPvZa97Y+843l/sL9U45hlaa+z9Trzlja87/4h319a+/plqaWjpRVbZPI9xOtq3q2c7XnE4p1dbOqkDzqjmGoj+iTNNnUwK/oDaKPHy49mz3xRcHHNs9f4YYWB+zG5qW24Ux3D2GbTFqnuPV/Gmfi7Y31qYhHdC+9XVlyhHzXLbNtMVNXyu0apvJU0tT1SvrcF8356/qoDzN6eCFbkxTfM9+08evOoHcCy+8oPAYKQbvXFY2cPmOFVc6dflOUQ8nu/+zv7fS8Dj4zv89U5dTLuehZ5OmbIVbvjnvKaPtnKzDvP77nylGVrued9SlulTvlLoy5aqq/7oM7iS1Vban6fgLLyg61RTDqp776md/X42nOS7raNB8n7QmDg1l4Xw1BhSLIQbWx+yGpuV2Ybzs8eoVj75e0DIXefpLT+Fjin3F1GfP9aLN5D/FH3tFl3nNdbTW2zTXTXvoc6n0dHhhLx01xTeh4+w3ffyqE8idnp4qPMaIwXfUh0w2l+etMT0vneb+h9/xpvOd/w4X3lK2SXP/fglZ99WH36n6Zs57ymg759XHdz701mGnPTem6uurqVNxOwfG0LRFqcvzqr/UFlOHp892W/uldfPivR13Nx5DDKyP2Q1Ny+1y24v37eNpxcfMP57H/rxd5qLP+075oLpU53q9qnyi5iu1tN3mNWezyuODpl5/v0479R9eaGkmU+5gv+njVwC5KcXSaTIXRsD+YJmGaKvvfBcTlGnM6/sfqu+UZZtjHqhpO+efgJUx6U01B6B0Hu6IATXXCKsyNIANiuGHBhbVNfvVPwZuf/Der5XT6HfkmtqN4100Xc3jRi/o+KGKLaPyxgra5Pw2c1X4G41VPf9QkPPX69dDh/5zw+CF3s0Lf1y7aG9eaYKB3PPPP6/wGCEGZqJeqvMdMeWk9++96o297/yr93i7r7xuwE+X56YMk0Yfe1Vxlsvzon/2ebvPbeca9fHqPXN5tWqOKJc7Qp9ovTGp2qhjsTN9VbZJyhXfv6de9dRh+sXp+FnEjftn0nrOcRo8V2PQJxZDDKzPp9ahabldffqCtB4N7PKC559XZn7xHORnMd9q85rTuB5i6ruv7r3K7WGgksdGrtfjMVoPpj2mwYp9V583HYMX5jx/2G/6+FWnHbm//Mu/VHiMEIO3zZ0Z6u0dMeWk9+/9nTf2vvN/x1RW+UTx6vJtU4ZJw8e4IHWp21Q7L9rZdm6XPkw13LayflNmWX+9nL8zsKljYQoq2ltPX42TScp10q12b1fnOW/VBpGQXnKMRooB14fn+hhQTIYYWB+zG5qW24Vx849b37jU5qWYZ13mYi2/nrY+P3C8g+YxZ75/T/2db147FiA9gLPaSXz1tsepVg680KxPfbWUYnr2mz5+1QnknnvuOYXHCDF4+6PSA+6re3/bXh4nvX/vb72x953/Wwa5j9725qEx9KXhstRHb3vP89j78vK5rs+mLqXUR28/p54zB5pi8rbiqHVLX8WVi75/720Dg0p9pN529NynX33Sdo0J0hVjNsTA+pjd0LTcLoxTNbfGiAXPTzJFPbcb/Mmti/OxN/J739w2/nL/nvrb555TnJbzctld5rWbl99763U8huuRz1V+eKGMS+6v2W/6+FUnkHv22WcVHmPE4AcGStRHP2iN6Q9Kern/wbe96Xznv/1BeWm1pWx/mqpd9+83l+HP2zcuoi7dN/e9XZ6pU32kfqB1WKXvF8PmfKaOlrix/vuk5Tx4tse0KR5DDKyP2Q1Ny+1qajeOdxvfepyqOck+12V+1b2vXk5VF5+7rz74tnxtt3n8eu3yq/bI49wepYr+u+9l2meVaSO80Lsm+mNsx3AOadhv+vhVJ5B75plnFB7jxOD7vL2kP4Z+34ornfvo+0U9nO7+B9+y0vA4+M5/y4CcXS7noefGNFwgXzf4qF5GY94mfXzrA3X//gfqW/K8qIf7asqlT+Zl/3WbRVoZB3GYMljxoXNcBqczefkA/RyTiKup3ylLxo1f90nLefDcbe4MMbA+Zjc0LbcL49htHL1x6usFLXORp7Gcw8/wQXVfffAtu518ynxIdT2pzReFd5lyhHe01WvFoW//4YWWr1uxFGOS4nH2mz5+1Qnk/vzP/1zhMVYMXlE//SXTUv354q2inrcu6uf0kYu39Fjw+V/+9BUzNq80FvxL9dNXinJNmrIcOa5cpqxHnm/LK9OZ16/8VDV39UK9ZXTVHhP1y5+qV0xa6kd7ejeGMkZVHz0xqYW8SsN96h0Dq91jaSjNcoYYWB+zG5qW28UawPMA/XX0AjO/WuYiz2E5ry1PcL2NM5Rl2vmKvgSpV879jv23+lGLgVLwwgHak+Mwg9fsN338qhPIfe1rX1N4jBwDx1xozl68VdXhOV1M64u39Fjw+V/+5BUzNq/8pAmbfql+8kpRtklTlmON6ys/qcDLc741b5NGZJlsTJ6ydTu4U5zOiYnVVqpvR3o+LWP0ta+9pSpGLuJi+iXqLV5WceO6TdqmPjTFAceNTjmW7vMQA+tjdkPTcrvc9uJ95VedYtHBC8z8apmL/nlt+0HznL9Qb3nmYph6nfh06L+JI3dSxEGuDyYd92VHej7dHBd4YS2mHNuJn9lv+vhVJ5D7sz/7M4UHYgANQAMhNTDEwPqY3dC03K6QfUfZmFvQADRAGmC/6eNXnUDuq1/9qsIDMYAGoIGQGhhiYH3MbmhablfIvqNszC1oABogDbDf9PGrxf/8z/+opgcX+Kd/+qcKD8QAGoAGQmqA/abJj/Z1nNsVsu8oG3MLGoAGSAPsN338rhPI/cmf/InCAzGABqCBkBoYYmB9zG5oWm5XyL6jbMwtaAAaIA2w3/Txq04g95WvfEXhgRhAA9BASA0MMbA+Zjc0LbcrZN9RNuYWNAANkAbYb/r4VSeQWy6XCg/EABqABkJqYIiB9TG7oWm5XSH7jrIxt6ABaIA0wH7Tx686gdwf//EfKzwQA2gAGgipgSEG1sfshqbldoXsO8rG3IIGoAHSAPtNH7/qBHJPP/20wgMxgAaggZAaGGJgfcxuaFpuV8i+o2zMLWgAGiANsN/08atOIPdHf/RHCg/EABqABkJqYIiB9TG7oWm5XSH7jrIxt6ABaIA0wH7Tx686gRwXjOeFCTJigVhAA2E00MfApkiLcQ4zzogr4goNNGugj7cB5BbNgYTIEBtoYHoN9DGwKdJCA9NrADFHzHPXQB9vawW5PgUhbfMPKyM2iA00AA1AA9AANAANhNAAQK7lP1uECDjKxESGBqABaAAagAaggbE0AJADyDX+i7axRIZyYFjQADQADUAD0EAYDQDkAHIAOWgAGoAGoAFoABqYqQYAcjMdOHyyCfPJBnFFXKEBaAAagAbmpAGAHEAOn8KgAWgAGoAGoAFoYKYaAMjNdODm9GkBbcWnW2gAGoAGoAFoIIwGAHIAOXwKgwagAWgAGoAGoIGZagAgN9OBwyebMJ9sEFfEFRqABqABaGBOGgDIAeTwKQwagAagAWgAGoAGZqoBgNxMB25OnxbQVny6hQagAWgAGoAGwmgAIAeQw6cwaAAagAagAWgAGpipBgByMx04fLIJ88kGcUVcoQFoABqABuakgcV///d/KzwQA2gAGoAGoAFoABqABuangdmB3COPPKIWi0Xvx+3bt3vnGVIP8vQfG8Ts+jH75Cc/iQ9kGX0ohQ9ef87Ad9KLYa4+ODuQo8l3cXHR+0H58IcIpBoB0jc+Sc/vk/TQMYMPpjqT0a/rRCBXHwTIXUc1yIsIRBKBXA1sKAjNPR9ALpKJh2ZEFYFcfTAZkDs7om3iA3Vy179bRwOMP0Qg1QjkamBzB7Kh7W8COfhgqjMc/eoSgVx9MAGQO1NH5p45gFwXsSNNehHI1cCGgtDc89VBDj6Y3qxGj/pGIFcfTADkyh24syPsyPVVPdInE4FcDWzuQDa0/XWQgw8mM5nRkcERyNUHAXKDJYOMVQQu1elh8Q2o4/PqKF5NF4FcDWwoCM09H0BuurnVrSZ4YLc4hU2Vqw8C5MLqKpPSJzSxy1N1aC6lEzweK7Cj0j+tM3c4Qfu7f+sWIBebtcIDYxgRgNxMfoMJBhbDdHHbMJWJcT0lvDHUYRsQIDcT/xoLVuGDrgft+z1700KFtSOuBx7oG3GA3EyMEAbmk+++j7G5jGBi58fFDzcfnqpLp1uXp4f6nDTK82Nc0qUw5WpgY4HR3MqBDzrmsPe38MC9D0HGPohLqzGob/ZtmMLEztWxvqTqXErlXTkP+M0+rD06AJDrfllybtDmay9ArsfkmCQpPHCSMO+oJFcfTAfkdvy3BxrgfP8YgordK4qF3NVSvAsm7j2zznPgGJo4nYEnn4mJOk06pep1MZhVZVD7zIMbwm3k99wmxfkO1am7hWfSpP+C4uVb8HEsTcCj8cZ/uOkzr4Uflf5iWQn7i/Ae6zxXBQ/kSET5nKsPAuSilOOYjaobGImdTYovV9Ix93EoyKgpXVEOwxSXW73vUsZiQRBW5bHaUTaU6+d2ywi1nZPpUn5NMQO0pQltvnGl8QbIdZ3R8MCukZp7ulx9cPFf//Vfak4PGFjPqWY+QfLOl8hvzi2UBK5q14x3uYQRSpI6Py6BsIIwOs33rVllKi7DbkctLX8ylrt4eiOPQJPbI/qglGKQs+uz06T+jubFnOYx2no934UP9pjRxuds79ElmHPwwB4RjTZprj44O5C7detWbeeIBm/X48aNG9GKL2zDGKA4RsLMGqBJGegqd9g4XeNPfQiQOy6/rCCBjzpoyuB22M8GwjhdD5Djsk0ZYQMaZem5GliuQAgf7DMN4YF9ojXntLn64OxAbqhx0wDn/Mc7Xwy8GnoaoKkR5By4quJZgdzi8LD8nTcBjJSQ62qEwbI0TufUVbQfO3JVzO1XuRrYUD/INV/OPggPtD0jxXe5+iBALkU1t/SJL0MuaMdMXFaQG2gmDUOXSGftejVcWq3lp/Y0lUG7fxLaGkCOy5Tt5G62neM0qT/namC5AtnQfucMcuwB7BfwQI5IOs+5+iBALh0N+3siAIpEzg8GMvdTKp+nZ05DBRvzE2VQmgKsqh05Bi1TroA0c8wpYyHSVDt3ZVurAou283vTW67bv1tnkiX+gsZi6OKOfNe7X21O8SOdZPcHD8xmyHP1QYBc6hL3mJgENN193gUzgNUARW46A1UMUwx2VKq8L6Uqrw6EziVY88UGB+RMeW76sh4Jg6mPqad/uRrYnCAqhrYC5ApfgQd6TCSBQ7n6IEAuAfHm0gWGQGnCvmO5xEP2M1cDiwGO5tSGLEFOTpSZv/b5ne/YzLs5uPm5+iBAbrBkkHH6CPDOH+/wYTeOxyBXA5sTRMXQVoAcz5i5PsMD20YuVx8EyLWpAucijIC8ZEuXSRjqImzqhE3K1cBigKM5tQEgN+GkDFYVPLAptLn6IECuSRE4jgjMKAK5GticICqGtgLkZjSp0dTeEcjVBwFyvaWCDIhAfBHI1cBigKM5tQEgF9/cRYvGi0CuPgiQG09DKClIBLZqvVyrbZCy0yk0VwObE0TF0FaA3BznPDyw66jl6oMAua4KiT4dTfalWgaEnu16pTZXUweiv4lV7bxSmxXFZB/tnjZOuRpYDHA0pzakDXLwQHadHD2Q+p6rDwLkWPmzf96q9TrsvlVlDlMG6zogV7RzP+2eMkb5GticICqGtiYPcvBAbTyu57nvp3Wn6WoDyP1X2r9unraB0URxQG67Vku9Q7dUhbdt1Xq1UZv1Ui1XG6U31kSapTFA3sWinayl4uNbyleWx8eUN7+ctKIsrpNOX23UistacvvKfKJM026zy1iWx20VablNvnbmYGK5GlgMcDSnNqTtg/BAvRJ4vDoHD6S+5+qD2JEr+WH+T8LENChV95Vtt7RTV1x2YAbSMGXeEFutSuCTkSBwqi5LWmZAdezKv12rFV+LvdqqbUGPam1d6qR2lXU0tpv6Yrelrf1WO6nne7kkLOMY/nWuBjYniIqhrdmAXKOXiA+OXTzM8R3LS7rkhweGNz9RQ64+CJATIpj3ywrkCMoMQJlOFTty5hY3uZtV7o6ZPNa5BpCz0hS7dSY/16nNVBgnHZfGVqZjiGxs93KlVgIodbaW+i2zBcjhf7AmfrWhDyDmAnKNXiKvDLR4iHW1gT9oul7Slh8eyBGY9Bkgl7jZpW1gNFf6g1wNvHQxa3M5tXjbDHLe/J5pW1zuLMsZDHJLG0495XDVALm0b5PoAy5Ia2shbR+EB+bsgdR3gBxAjufATJ8rEyvuQfNcWpWfRp1LD2q70d9ItT7J6jQS5MTuWkN+K3jbrfnZEN51Ky7xVmVa750yq0vCRV8ICA08Omm5/VQ/pRNXfXFpNfG5DVizYa0tHrmAHDwwPw8k7wfIJW72aRuYxhf7W6ti27+AGufSqv7Owar+BYbyXjr9xQb95QgBXVxmSUkEZ7UvQNgkV/4kiviCBZ3XEMZfnhDl6254vqRhvuxQQBp/WaOxfqed7g6d1cRE3uRqYG3QgnN1wEvbB8WH2SYvkR9m4YGJuF/VjVx9EPfIVRqY+SvHxGbemzGbD5CrL+iAnDxjkhXIjWkiMy8rBw+kIQLIYUdu7lM1+A8Czy9A/PMnzq7f/Dqys8W5GhiAtB+QJg9y+otb1W0lOydO8gny8UAaylx9cPGf//mfKodH2gaWvBuhgzsiQPrOYR6jj9fza/jgjomE07OOQK4+CJCbtWzReESgiECuBgaw6wd2ADk4RsoRyNUHAXIpqxp9yyYCuRoYQA4gl80kR0d3RiBXH8wG5D72sY/p6+c00HggBqlpgPQNqOkHNTnGCz4I70vN+2R/cvXBbEAuR9PeZ59pcu2zftQNqIEGoIF9awA+CA1OoUGAXCZf9phCTLIOGBgMTOoBr6GHHDUAH4Tup9A9QA4gF2TnDAYGA5vCwFAHdBazBuCD0OcU+gTIAeQActBAEA1MYWCoAwtlzBoAyEGfU+gTIIdFPMgiDgODgU1hYKgDOotZA/BB6HMKfQLkAHIAOWggiAamMDDUgYUyZg0A5KDPKfQJkMMiHmQRh4HBwKYwMNQBncWsAfgg9DmFPgFyADmAHDQQRANTGBjqwEIZswYActDnFPoEyGERD7KIw8BgYFMYGOqAzmLWAHwQ+pxCnwA5gBxADhoIooEpDAx1YKGMWQMAOehzCn0C5LCIB1nEYWAwsCkMDHVAZzFrAD4IfU6hT4AcQA4gBw0E0cAUBoY6sFDGrAGAHPQ5hT4BcljEgyziMDAY2BQGhjqgs5g1AB+EPqfQJ0AOIAeQgwaCaGAKA0MdWChj1gBADvqcQp8AOSziQRZxGBgMbAoDQx3QWcwagA9Cn1PoEyAHkAPIQQNBNDCFgaEOLJQxawAgB31OoU+AHBbxIIs4DAwGNoWBoQ7oLGYNwAehzyn0CZADyAHkoIEgGpjCwFAHFsqYNQCQgz6n0CdADot4kEUcBgYDm8LAUAd0FrMG4IPQ5xT6BMgB5ABy0EAQDUxhYKgDC2VMGvjBD36gXn75ZfMgkJPv6XxM7UVb0pg/ADks4kGMBZ9E0zAIGD3GERroroG7d++qBx98UJH/uY+bN2+qf/qnfwritxij7mOUYqwAcgC5IMYCkMvbWFI0S/QJmu6iAdqBcyGO3n/lK18J4rVd2oQ0aWsXIAeQC2IuALm0jQMLA8YXGmjWwPHxsQVzjz32WBCfxRg0j0FOsQHIAeSCGAxADgaTk5Gir9C7q4Hf+I3f0DD3//7f/1MffPBBEJ9168T7PHUIkAPIBTEYgFyehoKFBOMODRQaoPvlfvVXfxX3xWGNDbLGynm2+I//+A+FB2IwtgYI5MYuE+VBp9BAoYFHHnnEunRH863L4/bt253SdSkLabrFHHGaLk6f/OQns1x3AHIA2SDCJ/PCogvwggbCaIDm18XFRe8H5cMfIpBqBHJddwByALkgwJXrhAK4hAEXxNWOqw/k7p4cVLttR2deyAPIpYow6BdFINd1ByAHkAPIQQNBNAD4suFrzHjUQe5MnZzcLeDt7ok6WCzU0Vl9xw4gB+BJOQIAOSxmWMxG1ECuE2rMxRplhQOhuce2DnIS2s7U0WKhDhjsxCVYgFzKGIO+5bruYEduRHiZ++IwZvtznVBjxhBlAeSaNNAGcsUl1gN1clfCXfEaIAfYSTkCua47ADmAXJCdyFwnVNPCi+OAsjE10ARyZ0fFNwR9u3H05QiAnIsxl+r0sIjZ8bl7LuD78/IHgw9P1WXAanIrOtd1ByAHkAPIQQNBNDAmuKAsG4R9IMcQ57s3jr/hCpBz0aYjyF2eqkP9Ey+H6nQM8moDOVMX/2zHsZqSMd0Izek9QA6LGRazETWQ64QCcNjAgXiEiUcN5Fq+4MAQhx05H5LEBnLcnhLeGOom3S70xWkex3Jdd7AjNyK8YNGqFq1cJxQ0UGkAsQgXixrInR1VPz1S/jiwb2eO8uFPRoDBaaEmZaWGHbnL00M9jrIt58d7uPQrQzSj17muOwA5gFyQnchcJxTgJRy8ILZVbGsgJ76ZKnfg3NcAOZdKYgK5c3WsIdy5lMq7crifzh282vtc1x2AHEAOIAcNBNEAwKsCr7FjAZCrreEDD9ggx7tfFN+FBU4MWXyPnJ2Pd9Lq+YpmWecXC3V87PmyA+/Sye04nZ3r4roHdjWDbAA5LGZYzEbUQK4TauwFG+WFg6E5x5bml7vb1uU95cOfjABD0kIdHhaXNSlG5mFgrgXkGMpkPgFjFhzKNA4sMuyJrKahbedMIrzQ4zbneT207diRGxFehg5CivnICFPsF/oEsIpBAzS/uoCbm4by4U9GoAI5aweOd8cWvAvWDHIyn4E2BkC+LLpYqEPxdddaOqVUcYzrk21UikFOlmGnwDuKQK7rDkAOIBcEuHKdUDEs8mhD+rB569atatfI3eVpeX/jxg2s+FYEKpCzd8Lc480gZ+UzAFje58bvGey4bs/xNpBTZXqAHAfQ/5zrugOQA8gB5KCBIBoAUMYHlNiRcwHABTY+7x7fL8hhR47Hpf0ZIIfFDIvZiBrIdUIBXuKDF4xJNSYAORcEKmCTl0gZnBYdLq227siJS6tVuvY6q3RVW7k9vnNVKrzKdd3BjtyI8IIFw14wEI8qHogFYhGDBgByLuwIqPJdkjbkNHBHTvnLN1+skJdc+XKrqZPbymX475/jVHjGPXLYjQLQjaqBXD8ZxbBYow2AxiYNAORc3GFIoh8Erl5TnBYWUA0FOarPUy5DmwQ5xXU4vyPHx620bj/wniKQ67qDHTkA3KgAxwtIrhOK+49nwFSMGgDIxQ08fAlVfqnBdyzuXuyvdbmuOwA5gBxADhoIooEYQSb3NgHk9gcZ3Wrm3Tu+jFru0mE3rlP4AHJYzLCYjaiBXCdU7qCA/se9EwmQ68QDe07El1j5h4kZ6vbcrBlUn+u6gx25EeEFi1i1iOU6oaCBSgOIRXyxAMjNgEbQxMERyHXdAcgB5ILsROY6oQAv8cELxqQaE4DcYEZAxhlEINd1ByAHkAPIQQNBNACAqgAqlljEA3JbtV5t1NVocHClNqu12o5Wnixoq9bLUGXLesZ43RaHtnNj1L3/MgByWMywmI2ogVwnVCwLNtoRH0TFMCb7BTkCoqVaaihqAzlKt1KbXpQXElL6g9x23dz+tnPXR1AgNGQAACAASURBVKG2OLSdG1IzlUfj2dzXIaVeJ0+u6w525EaElxiMOpY25DqhYok/2gGQ82lg7yC35j2zNpAbspSPDSmyDQA5GQ33dVgwdWtrf5/rugOQA8gF2YnMdUL5Fk8cA1TFooHYQG67Waml3qVbqpXZghNQdrVRq/Wm3PlZqqW8HEvnyrzL1VqtvZdWedeoJe9yqQxfEids16ZNxXEJcmV5nEGkXZbHtmvapSofnK7kD+852Q+3LYZbRD+obFmuzO/GofFcAdIbaivF1NMPpUSdJu71YwC5/fsbQA4gB5CDBoJoIBZ4QTuqhSYqkFu68MaX6AgWynvSNIjI4wxdEq4Yvjz3sW3XFSBebdVWX66lvFymJrfqva6vKme7pR1ErovaJfJRWgFUV5uVAcI2uLHPtbTFQJz7QraD21am0UDG7d91roxlUz98sfMcs/vjtnXa97luICx+/vOfKzwQg7E1QBNq7DJRHnQKDVxPA1GBnNnlKRZ7AqFiV84BOZHOwJIECp1d5JHsoMGM4a88UcurFJdbtUEWUsDWSkIcnZa7WM6uYhvcWOda2iJboF9b9ZVAWcsv4tB2juCU42qVW+wk6nHwxc5zzOpPrdHTHsh13QHIAWSDAFeuEwqgcT3QQPzCxi92kCs2uASMdNkt0qwg8njYobik2QQ/XUFO7iAWIFddDrYrbYMb61wNtqq2WCUSbIndP1NGLb+IQ9s5B+Sa+kFtsGJXNkoeM22xGryfN7muOwA5gBxADhoIogFAWVgoGxLfqEDOuh9MXmIUMNIEcnpniC8h8u6YeM8csd2anyThXbfiUqm4RKovnZbvnXLtS6sF1BjocdKq7cZ805ZAR3AXt0Y/2+dkv+m0+77Iau0U6nr97S12Ccs41NpH9/5xjMSOXC1d2Q9f7DzHAHL7n+cAOSziQRbxXD8ZDVlckWf/RpjLGEQFcquN0jfbl5clK/DpAHKq2LmqvlRAX4hgSJHcRGBUfvGALyXSaQ0v/KUECXUMhcW5ok1URlW23o0qyyLAqtrA38gVZVSdqhrFlzL5XFtbTC67Hxvx8yZ2G+w4NJ8TIFeLJffDrrP4NZj6MYDc/v0LIAeQA8hBA0E0kAsczamf8YCcIRS8mHkEAHIAOSwgiUIEduT2P7nnBBho6zR62TvI6d2xandr5gyTefNp55R2Lp0dzT1GJdd1BztyiYLUvhfGXCfUvuOO+qcBornGeb8gt8cVHlVnEYFc1x2AHEAuyK5orhNqrgs82p0HAALksuCZbDuZ67oDkAPIAeSggSAaABzGB4cAuWwZJ4uOA+SwmGExG1EDuU4owEt88IIxqcbkYx/7mKK5iQdikKIGSN85znfsyI0ILzkKqKnPALlq8WyKEY4jRtBA2hqAD6Y9vrHMX4AcQC7IJxgYGAwsFpNDO6DFfWkAPgjtTaE9gBxADiAHDQTRwBQGhjqwUMasAYAc9DmFPgFyWMSDLOIwMBjYFAaGOqCzmDUAH4Q+p9AnQA4gB5CDBoJoYAoDQx1YKGPWAEAO+pxCnwA5LOJBFnEYGAxsCgNDHdBZzBqAD0KfU+gTIAeQA8hBA0E0MIWBoQ4slDFrACAHfU6hT4AcFvEgizgMDAY2hYGhDugsZg3AB6HPKfQJkAPIAeSggSAamMLAUAcWypg1AJCDPqfQJ0AOi3iQRRwGBgObwsBQB3QWswbgg9DnFPoEyAHkAHLQQBANTGFgqAMLZcwaAMhBn1Poc/Gzn/1M4YEYjK0BMrCxy0R50Ck0AA3MSQPwQeh1Cr0C5ACyQYALBgYDm8LAUAd0FrMG4IPQ5xT6BMgB5ABy0EAQDUxhYKgDC2XMGgDIQZ9T6BMgh0U8yCIOA4OBTWFgqAM6i1kD8EHocwp9AuQAcgA5aCCIBqYwMNSBhTJmDQDkoM8p9AmQwyIeZBGHgcHApjAw1AGdxawB+CD0OYU+AXIAOYAcNBBEA1MYGOrAQhmzBgBy0OcU+gTIYREPsojDwGBgUxgY6oDOYtYAfBD6nEKfADmAHEAOGgiigSkMDHVgoYxJA2+99Zb6gz/4A/MgkJPvv/vd72KuwW9H1wBADqIaXVRkrPgkigU2pgUWbYEep9LAb/7mb2r/Iw+Ujzt37qj3338/iN9O1TfUE+c8AsgB5IIYC0AuzgkPI8a4QANhNfBv//Zv6qGHHrIg7tatW4p26xD7sLHPNb4AOYBcEHMByMGwcjVV9Bva/9a3vqVu3rxpYO7ZZ58N4rPQGrRGGgDIAeSCGAxADgaDRQYayFkDTz31lAa53/3d3w3isTnHFn23vQUgB5ALYjIAOXuiwXgQjzE18Mgjj5jdHpprXR+3b9/unLZrmUjXPf6IVdhYPfroo0HWszHnboiyAHIAuSDCJ8MKIViUCSCCBoovE11cXKi+D5qX+EMEUo1AruvO4sMPP1R4IAZja4Am1NhlojzoFBooNEDzy4K4uyfqQO7MHZ3Z50voA8ilijDoF0Ug13UHIAeQDQJcuU4ogAZgcwoN1EBO7s6dHanF4kCd3K3v2AHkADwpRyDXdQcgB5ADyEEDQTQwBdDkWkcbyN09OVCLxZE6k3CHHbmU+QV9KyMAkMNihsVsRA3kOqFyBQv0e9qdSB/InR3xjeR+iKNLsZQPf4hAqhHIdd3BjtyI8ILFrFrMcp1Q0EClAcQiXCx8IGfumdOXVhfq6AyXVv3Acq6O9f2Eh+r00p8CR+cZgVzXHYAcQC7ITmSuEwrwEg5eENsqtq0gd3GmjhYLdXByt/aFB8qHPwfkLk/VYaxgZ9rGu63H6hwD2BiBXNcdgBxADiAHDQTRAMCrAq+xY9EKctiRa1zoixNzAblLdXpIAFfCG0PdMVCuaYABcljMsJiNqIFcJ9TYCzbKCwdDc45tDeRKeKPj9PBdVsU9crz8OyDHh7s+nx8XP6p8eKpCXpm9PD3U9UhuOz8uxlce69rsHNLluu5gR25EeJnzwjB223OdUGPHEeUB5HwaoPll7onzfDu16Rzlw98cQI7b6FxK5V25wBA5V43kuu4A5AByQXYic51QvkUXxwBjY2sAIHcd1GBI4i87uO+pbD7G96Yt1PE5X+qsjtE4LOT2GO/WlTuj5rKobm6Vn7LwjpsuwwUzLkeWbZXBbb9OHNLLm+u6A5ADyAHkoIEgGhgbXlBeBcQAuetACEMaw1DTexvYdoGcBWYG5KgMrkeA3HF5eVamE9DGZYlDpsNt50yiTF8A5LCYYTEbUQO5TijARgUbiEW4WADkrkMqTeBWAhdfvuQvGbhV8W6ZtYvGZdqXQvmetkP9OycVyC1EXk5TP8YAaDeAQa4o0z6X+7tc1x3syI0IL1i4qoUr1wkFDVQaQCzCxeLWrVvFDfdyR6fD6xs3buS+1ovLpgxKDGHue96Rs+FM+UCOjzWMgQty1k6byVvVU8Adt8cZsjI9QM6JC/7XajjDgZnnGVuAXJ7jjvke97jTvMRfE7jZ4GR2yko4M+DE4CV21QzcNe3i6aBXO3LXATnsyDUr2LfuvPvuu8lfbcOOHHbkgojcN6GwyMe9yGN80h8fgBxBQDeQY1xgcDJfavCBnLkcu1AG+HQB5+rYAF93kOM6LeArG9R2jtuc67O77jzzzDPq4YcfDrLGxeSXADmAXBCRuxMqJtGjLekDC8bYP8YAOUKcHSAnoIzixQ8DaAxyfK6kLXcHj/NV9751Bzmzw1cjOS7D3j3MFdzcflPMae7/+Mc/Vr/zO7+jx+6hhx4KssbF5DEAOYBcEJHzhIpJ7GiLf3FHXPKJC81L/PUHOQNxZfAsaBOwxbtlBuKsS60MYfRTJmIUDBhW98hVsCmPUZ6y7WaXT5SDlxrc3nzzTXXnzh0D4AA5QE4QyMlh4QTI5QMHOeg5lT4C5OZDOwyFEiJ9x+bTo/AtJX0P/SJQBd/VLqzvWIxegB05wGoQWKUJEKPg0SYAZs4aoHmJv7lEgHfw+DIqduN2jRzpm+6LkzA35o5crOsaQA4gFwS4YhV8zos4+g6IBcjtQoHYzvNlYN4lYqiLrZ1xtIfXHXl5FSAHyAkCOTksqDyhcugr+ghAmosGAHJxAAdaESYCct3hLzwA5AByALmBGpATai6LHNoJIEtdAwC5MACBUuOIgG/deeWVV0Zbx33lx+AZi3v37ik8EIOxNUCCH7tMlAedQgPX00B+ILdV69VGXcXBGT1bsVXr5Vpte+bKOXnodSd0+UP9DSAHkB0FuP7lX/5FfeYznzEPErx8/zd/8zej1DNU6Mh3PQBA/NKIXx4gRwC0VEsNQRLk6PhKbVqobrtuPz8tJPUHuar9V2qzohjE1J/w0QsNWqHLH+qzADmA3GiA9aUvfcn8dg8Jnh+f//znR6tjqNCRLw0QwThebxxpTqb/t1XrNe9jSZDb3fMKhHanDZ/iOiBXtC6u/oSPWGjQCl3+UH8DyAHkRoUs2oVjgKPnX//1X1fvvffeqHUMFTvyXQ8CEL/5x4/mZPp/TSBHu1R8qZJ3rJZqWV563a5pB6t8MAhu1/VjVxu1Wm/KHa8qvx3Xevn6POXlOpZLxdXoc6Ku4rgEubI8ziDSLstjvvYD5MadswA5AFMWMPPDH/5QPfjggxrmbt68qf7hH/4hi34DcsY1TMQzTDwBciXIbddqxddYr7ZqW15utcBHAxvv7Cl1tVkV4KVhjC9ZFoDFfGVgzlu+e2lXvNdlMmQqtd1SvQxyVAfXp6ghaiUqNO2iHM6lYfe9aV+iL0KDVujyh/oeduQAmKOD1ksvvaRB7umnnx697KFCR74wYIC4ziuuALkSljQ4OTtiLgjJXa9yF03DH+UVX6CQIGX4yFe+hLsyIeelZwOWppAC9FYS4uhcU7vc9nvem6ITfREatEKXP9RPZwdyDz/8sHXpjgLb5XH79u1O6bqUhTTdYo44TRenRx99FNCMD2U7NUBzMv2/LpdWiygUlyOr3S5rB8sDXjpXy46YG1urfE953UBuaUOepxyu12o/QG7nfOgLTjR/+uaZIv3sQI4CeXFx0fuRh4HxdMZzbhGI1WBGN7E3nlKfXnxaPfXGvHbCRo/DQGjNwwc7gNx2a37Wg2GKPIPAy1y11Ltq1eVOtd0U33jtAnLe8sWlVG1Q4r1Tl31ptWiX2bFz0pp2ue0HyI0OXbH6LEAutxUf/U0yArEazPUB5g311KcBbnYch8cEIMdgRhBVfrFBXCY1ly1LmiPIq30BogvI6fvbPOVrCOMvVVQ7gQXXVV+sKKqnNnJ7C5jjL2Z420WF8GXXsv3uDl2S5ic6FdoHQ5dvz/PuH1aTALm7JwfVZdOjM+9uXR4GJhSNl1lFIFaDGWpMVb7h0FKV0d0Q55FneEzy8EG5I5eVDdQ6C5Abd+7H6rMJgNyZOjm5W8Db3RN1sFioo7P6pdc8DKw2j3Egkwj0NxiCAb6HT+54yeN0/gvqeXMZjwHiefUFc2+qm5feN50nU5XnFuoLz0ujlXVTOfI9t4Xyu23ifnAaLnNXezmd/fz8FxbqC0/RJdyFWnzh+fLyTFu7nXOU99NPqTd03Nz23lP36PKwOU91O/lFTN546tPmQ+qnn3pD3bvni4nd/jYYzcMHebet2s3KxAZEN/nnT5xdP5EixZf9fbD73KF5Fbr8trnbdi4BkJPQdqaOFgt1wGAn7qXLw8BSnJroU5cI9DOYAgYKMCAje0M99RQBi3v8ntIgYaCDIaICKX3ewE638xW8Schx65ZtkrDYlqdve/0mTiC3MH0u4/NpCZ3tbbDzy7RlfRbIFf32xsRKR317qoRqyiNj4u+Hz/jhg11mE9LMNQL9fLD7vOG5FLp8rqfvc1IgV1xiPVAndyXcFa9hYHOdmmh3lwj0Mpjnv+CAig8w2OQkNLjQ4e4u7ThP9RroK8rXu1+0A9XUJg2XEloEGDmgU5hfn/ZyH+1n0ybeiWxrt68N1jHRXi5Pnt9VtrX7yO2UfeRj3Z7hg11mE9LMNQK9fJDnY4/n0OX3BThOnwzInR0Vl1d8u3H0LVcY2FynZsd2X56qQ3O5j7RwrM47Zk0hWS+D8cCDNoSG4xXY+ABCgsqO81S+NUbFnNW7UQ11F7uEDSDXkKd7e/3wU+Uvz/dttwQ1fdm02sHUcZbn28qmBYbS6pjJGPji7O8LGz0/wwdTmO3oQ1MEevlgD4CT84dfx/ScBMgxxPnujeOfKoGBNUk/heOX6vRQwBtD3XE+KNfLwBoAyL8rJqFBvmZw6Alyzo6cMcOmNrXtyFEe6xIotUm2Ub72tZeP2c9ekGtrt9sGCWo+kJPtbuy33abiPjqGOV+/3PT+97du3fLCNOkHD8Rg7hogfRtPGQBqu/L28tkA9Te1b/4g1/IFB4Y47MglAGvnx8VCc3iqLp3uXJ4e6nOS286PC1OWx5xsSb3tZzAEX/KeL3k/2kJV98757jljmGBQ6AFy5U391f1g99TzX+DdqqY2URrZVre+67SX+2A/2/XRObdtO9pNXyIxcEfQJdtYvK/Ot5T9xlPqKfPFBxve6m20+9Bk+Dg+bZz6zctp2wYt9I93rOM5f5A7O6p9kvTtzNEA4G/GEWgEuXN1rHcTnEupvCvnAb8ZR6Gx6f0NpgAIyrewfmC3BA3eoTFAQqZnw0SxELhg1QZ68lJhAdoS6hiYam2iXSvdHoI+WR+3Seyk9Gqv38i9kGQucXrabZ37tHrqeedbqb3OS2i1x0ICtt49NTHx9wML9f7j0n9e7r/N0E3zGMQ6nvMHOfHNVLkD576mAcjijwGGF2IXZBiI+PxioexdK75MWRzn3S69kFpldU1XRr1WrwNelMzb9qoe3QZuNzeay+X3ZpA536E6dbfwTJp0XsRqMFkuCtal1eZFIcvYTHi5KYb4Yl6mpf9YxxMgl85arizoYuARoNZ0nsR5aGiHAWihjo/Ly5mirIUBpq7piM+KS59Uj/2oIKspzfF5VY+Vt2wH5zPNEuPZdk4kS+IlxSaGhQttcL/Jm9ZChvHtN56Yl/3iFbu+Yh1PgFwSyzh1gi8xLlQFW3T4uNhxE7tdFbQV5wtAYqgS4CR24Pies4U51jUdt8vegePyirZwmoa26+7575EryuG224PJIGf1106SzLtYDSZ2Yw7SPuzI4UNFufOIeQmQC+Ixzs727EBu6Leubty4kcyi7e0IX2Js+tkNPm9AjEupIKrY1aoAzdrl4vym/I7pTD53N654ryHLpLFhj1uonzmN0/42kCOIJSMFyKVlplMYI+qAZsbQAEAuLR3FOp6zA7mhk4sGIOm/BtAxfW48PxXI9Yc003Z60dD+NpDDjlxaJjp07iMfdDCFBn74wx/WdiJjXfiniEeKdcQ6ngA5ixZm/Kbl0qneWRPn5U4bw071A7odd9pUx3SiXntn7Fwd8+5aUxq+LNwCctx+2ScexbZznCaV51gNJkUzR58Ahj4NPPjgg+qll16yYA7zMi2txDqeALlUVnL9pU//lwoYcvi+NBKj+6ggqyOgdQU5vZlWr0/XzyDXoe1mR47bXnWq6Au/N+PJ/fDfP2eSJfIiVoPxLXg4ltbihvEsxpM99Utf+pKBOczLtLQe63gC5BJZyE03+BKkCzycwD2/cEGHAcj5WRKTjy+Rdk1XVMy7Y2x21Q4gN0xcPm1ouwWiBtz40jC3i8srjwtY5DMpPsdqMFjk01rIMJ7N41l520J95jOfUXSpFfOyOV5z1FKs4wmQS3FVz6xPDInVrmL1kyfyWMphkYsIvf785z9vdgWefvppawcW54rFJcW4EEDwAkmX+aQucK4Y9yniQnGnS630zOOB5/lDXazjCZBLeXXPpm+8O8i7i3ntxtEwx2owWLzmv3hhDLuNIc1BfvD9cpiX3WI3F43FOp4AuWxgJ/WO8iVWNlOGutT7XfQvVoOZi0GjnWktuPsYT4Y4vqxKbcC8TEtXsY4nQC6PdR69TDwCsRrMPhZU1JnW4jmX8aQ5KL/oAJBLT4ex+uzigw8+UDk8aADwhwikGgHSdw7zGH3Mw6/nOM6r1ao2BzEv09JrrOMJkEt1ZUe/BkRgq9bLtdoOyLnvLLEazBwXZLQ5rcV3n+OJeZmWlmIdT4BcsBWYoGCplhGCwXa9Upsrf8fbzvlzpHS0P8hV8bpSmxWNd3NsQ0YqVoPZ5yKKutNaROc4npiXaWkw1vEEyAVbXbdqvY5zb6eCj3rn287VU6d25DogV8RiX/GL1WDmuPiizWktvvscT8zLtLQU63gC5IKxiANy27Va6h26pTJ8d7VRq/IYnbOOrzflDs9SLVcbpTfQKL3vOPVBlL80BdnH6fB2TbtG5UOm00k955raaMWNd6NEWxvbtFXr1UZtqB2rtVqvxA4W1cV99fZH5i1jYtrR0Ia29os6ilBIkCvL4xiJtBxfXywBcmkZ9z4hAHXPX0uxLvzQ1jBtxTqeADkDAmO/ECCnYaK692q7pZ06ggYBMfK9Ts/nCqDQPNF2nIFDKXW1WRVQ6K2XYI7LrvfZPtfSRpl1u1YrvlZ7tVVbok6q29cm3c8KWqmtJi+X0zGvbAKBrCmH2yBjqhOL/nhjwyBHMRcxamxPPZZ2/KwWBn0Tq8FgwRi2YCBu84zbP//zP6vf//3fNw+al/L9q6++WvtCBMZ6PmMdq88C5IItrxXIWbDC9UnwKI9ZAMY7Uy6Y+Y7L3aJyt42gxluv3nkTkMLtKZ8tEGlro8ynoaiCM32qoU0aYEUfNPCV703dXfN2aIOBuzItx9gfmwL06NtnzKXtfQHIYRGazyKEsZpmrD772c+aHwamhZ8fd+7cUZvNBiA341/KAMjtefBoAKb9uybI+XazmnaGPMBFffXDSh0+ZFwMTNFBT7kMQjIPvy4uNZYQ5MlbpCsuj1bfteDdL3G8c16uuXre1QZuvz82DHLLanePim5sTz2WVvyqZgV/FavBAB6mgQfEOZ44/+u//qt66KGHDMDR3HzggQcU7dZhnOIZpyFjEavPYkcu2BJbgZzedRLfXu10abUPyDmXCdV2U+woOceLegk+nN0zEQP7nLgUqdO478uM2635yQ4GJbfPpk10uVPuyDFwrsrLwVSk0+62vKbpvjYMvrRaxMjs5jW2px5LgNy8jXqIuSMPxtzVwNnZmbp586aBub/4i78AxO15M8cdoyHvAXJ7HkQagGn/BMhRxeJyoWE0DQj8BQNxOY+Om0TOPW++4yUMeb/E4KuXj4myTGzcc01tNBl058qfWrG/7EBQV29THeRq4NbYH09e0w6CzDKWEhTb2s99NV80oTLEvYz6CxnFlyr8fRHjWsYSIIdFfcgCgTzp6eYP//APNcgdHR0B4va8/o81vwByex7IvYOcAQ68SDkCALn0FuSxFoExy3n44YfNbg95W9fH7du3O6ftWibSdY8/YhU2Vo8++mhQaKbxG3Mej1UWLq0GowreIap2eIJVhYIjiED5cyXWN5Gna1asBjOWUaEcG5BpvC8uLno/KB/+EIFUIxDaB0OXP9TnAHKpKhr9yioCsRrMUGNCPhvc3HjQeDeB3NkR7XocqTMP6FE+/CECqUYgtA+GLt+d513fA+RSVTT6lVUEYjWYrkaEdO3g5saHxtsLcmdH5aVTgFxWBoDO6giE9sHQ5bvzvOt7gBwmACKQQARiNZiuRoR0Y4DcXXVycKCOjg6wI5fAnEYX+kcgtA+GLn+oD2YDcrdu3cJNvj1uiibB4jGfGJC+h5oA8vWDqBjiRXPT3ZG7e3KgDk7uKnrGpdX+EIAc849AaNAKXf5Qb8kG5IYGCPmGLXKxCh7jOWw8Ebe44lYDObqkenCi7l5cAOTmzyPowcAIhF53Qpc/1GcBcnv+WZShAxd7vlgFH3vc0L64gCnW8XBBrviCg7uDXL9PjvLhb8YRuDxVh9bVkmN1PuPujN300OtO6PKH+g1ADiAX5JJcrIIfOlGQD4AVkwZofrmXVvk9Lq2OjQexlHepTg8J1kt4Y6g7BsrxCIVed0KXP9RjAHIAOYAcNBBEA0NNCfl2QzNAjpfuxJ7Pj4t7kw9P1aXTtcvTQ31Octv5cbELK4852bJ6Gxq0Qpc/1PsAcljEgyzisQp+6ERBvt1wgRhNF6M2kOOdOd8z5cNfxBFoBLlzdawvqTqXUnlXzgN+EfcyWNNCrzuhyx/qoQA5gBxADhoIooGhpoR8u4EQINeNBXgXi+JlHj7oYSDidG6aXecZwDg/X/7UzeRLogtFO2d2mxjMqjSmnVQWb7Vx+fzedJ/zHapTdwvPpMnnBcUupH+ELn9o2wFyWMSDCD9WwQ+dKMi3Gy4Qo+liRPPLt+O26xjly+nPhiYBcwKImtJwkqHnFwuGK4athTo8LC6P0jiYh4bGKo05LkCO28BtkmPYdk6my+E1xS6kD4Uuf2jbAXIAuSDCj1XwQycK8k0HKYj17lgP/V3MGzdu5LCeN/fR7KzxThhfshS7X5T7/FjvninV9TyXV1TN964d6m0yAWlyp4932RbFTp3OycdkOt0cAj8GQ7t7DHJFXfa53N6FXndClz/U+wByADmAHDQQRANDTQn5doPc0BjRQpTVnwE3sQOmd8NK8GJwsi6Figh1Pu+WX7x3Qc7eUasAzxzn+nqAHEEnjStATuk4DJ0bXfIB5LBYZrVYxir4LpMVacKBBGK739hmBXIG4sRumXusAZwMynU93wSCuiAPsDUdb6iv2OHDjpwZl4YXoded0OUP9UfsyAEwgwBmrIIfOlGQb78AgviPE/+sQI6hSEAWX/Ks/Rabu6PFl1YN+Dk7XrvO0yVZs6tWgZz58oKSX3oQgMZtNnkLYuHLp2bnToBM2zmRLIuXoded0OUP9TmAHEAOIAcNBNHAUFNCvnGgzRfHrEBOQBj1Wz8OD8v/jFDt0jEImTRlWoamXecrOHQurxoYEyDH7ZDPXBGhFoMcn+dzfJzfGyzjsgUMmnP5vaAx9Ol+6ECulAAAIABJREFUrGOhyx/azsVPf/pThQdiMLYGSPBjl4nyoFNo4HoaoHmZ058FYQRWBu4qkNPxYFByAYqDteO8VY8uQ5bPsEVfaqhe01jIHbqqKgGEBtz4SxeyXMpRHjfQyKXk+Rx63Qld/lB/A8gBZIMAV6yCHzpRkO96AIH4xRE/mpf4mzoCFbwZLhvQBIZF+aUG37EBRSeTJfS6E7r8oT4JkAPIAeSggSAaGGpKyBcO+gBy+2CWcUBOKS6HL6NiN84dzdCgFbr8od4HkMMiHmQRj1XwQycK8oWDC8R2utgC5Nylf4r3DGDi9+IGV8uXWPnyK0Pd4AKTyhh63Qld/lAvBMgB5ABy0EAQDQw1JeQLB3YAuX1wy5ggt4/2z6fO0KAVuvyh3geQwyIeZBGPVfBDJwryhYMLxHa62ALk5gMlaGn/CIRed0KXP9QLAXIAOYAcNBBEA0NNCfnCgR1Arj8cTJPjSm1Wa7WdprI91LJV62X4/oUGrdDlD/U+gBwW8SCLeKyCHzpRkC8cXCC208V2N8jRgrtUywkWXR9NbNcrtbnynYnjWLj2TQty4frRNE79QK5qH8WF9NhNF6HXndDlD/VCgBxADiAHDQTRwFBTQr5wYNcJ5Nb72xeqFvAmINjv8XDtA8jJkXXj7L6XaeXr0KAVuvyh3geQwyIeZBGPVfBDJwryhYMLxHa62PYDOd4NoR2RpVpKwNuui2PLpTKHdxyr8m/VerVR283KlLHaXKntuqzHrcus1EW+DaVbbZTeuBN1mvLlsdVarfmSJR03jVXKggOZx6QR/V9tlK5X71Y6sTDtE+llH642arXelDtLou10nMuT7TTliReifUXzusTC3x5vnEX5MkZVC0RZHHvZfqkDyiTKM+01u7xlWXRCpON6fe2zxqpqVO1V6HUndPlDvRAgB5ADyEEDQTQw1JSQLxzY9QM5uU7S4lte3tILeHW/03a7VarpmIEiSrIqoa+4fEvwVvxVZbcv2EU+UyTVad5w+c4lPA0KZVvptUhv6vKWU8CIaePVVm2vHPiT4am9rvpUxIYvDRYQs962tNMtyxdb1SUWsiDRHt01bo8qxk7EpRonkX+7VnYsqH5Rhm5Piz70eRoH0Y6muLvt87wXLbNehgat0OUP9T6AHBbxIIt4rIIfOlGQLxxcILbTxbY3yMkdk3LhpoXeLOrlMuo7Zu22lDtPRb5iN4kxjorg/AaurOWZ3zj5rLYVu3mrlds2AocdIOcrhyBTA5TYcewCFFZZAmx4F6vs63otwEh3T7STu1s+c2zswx1iQX3wtcfth5WmjKOBbNMIvXtoeE+CnUlSgHpje5crReNjim6p19WB+96ORfUu9LoTuvyhXgiQA8gB5KCBIBoYakrIFw7seoEcLbRm5a52o3wLte8YQYQLfMWS60AIw42+0iYW+mp9Ll85+Xzl144JQGroT3M7y9bqS75Fu1qBoql8385TAJCrxbqpPR6Qq+Wtxd6JxaY+tqQBkotXC+WO3Wq1rDRRG6uqUjfO7vsqpf0qNGiFLn+o9wHksIgHWcRjFfzQiYJ84eACsZ0utn1AzlqQ9e6U2GEy9zsp1XppVaRT2025G+NcFhSX5ej+KMGO9ipN6cTOlns5V5e/pfvOqsu+xY5U+Z76YPKLS4O6bzJP2c7t1vwcCENKW/ta4yU6pcvatLTT6bXbTx3vDrFYr8XupBw/DXIizk39l+2oxULET6cT753yTHvLcaEYanB00lX6oA8Non0ueMp2Oa9Drzuhyx/qhQA5gBxADhoIooGhpoR84cCuD8gpDVjlFxD0zf5it4x2e8rLpYZRPMcIWjhdtbtXAJn88kCtDHNArtQOyJU7eW75dp30JYMK0ggQivRrRaDDl/nsPPyt3QI4dXoGQO5jU/vMlxfoyxECfEV6DXLlzlXVdrudstf6NddrvlTQJRZ2+017qEAur2yXv/+yFXZZ+rK4BjGOZxXLxvYKwNbj4HzhpdJHvX3YkWv3BIAcFvEgi3isn1wACe2GgPikHZ9+ICcX8jFf1yFkzNLtssSlVfsE3s0oAgC5dl8CyAHkAHLQQBANAArbzXcf8ekEcnpXqdrFGn+9B8iNH9NUSyQQp10/Z8evobuhNxBClz/UEwByWMSDLOKxCn7oREG++KAEY9J/THaDXMMKOephgNyo4URhJgKh153Q5Q/1NIAcQA4gBw0E0cBQU0K+/oDWNWZxgJxZd/ECERg1AqFBK3T5Xeexmw4gh0U8yCIeq+DdCYD34aABsY0vtgC5UbkBhUUWgdDrTujyh3omQA4gB5CDBoJoYKgpIV84ALx165aixQgPxCBFDZC+Q/oHQA6LZVCBhRTvkLJjFfyQviBPOLBAbBHblDUAH0xL37GOJ3bkAJhBADNWwae8aKBvaS0aGM/5jyd8cP5jKOdhrOMJkAPIAeSggSAakAaI12ktaBjPbuMZ68KP8es2fm6cYh1PgBwW8SCLeKyCdycm3g8zNMQNcYMGdmsAPrg7RnPSUazjCZADyAHkoIEgGpiTQaOtaS24sYxnrAt/LPGZWztiHU+AHBbxIIt4rIKfm3GgvQAMaGC+GoAPznfsfPMu1vEEyAHkAHLQQBAN+IwQx9Ja2DCe7eMZ68KPcWsft6b4xDqeADks4kEW8VgF3zRBcXyYsSFuiBs00KwB+GBzbOaom1jHc/GTn/xE4YEYjK0BEvzYZaI86BQagAbmpAH4YFp6jXU8AXIA2SDAFavg57QIoK1pLQIYz/zGEz6Y1pjHOp4AOYAcQA4aCKIBgEtaixjGs/94xrrwYyz7jyXFLNbxBMhhEQ+yiMcqeBjYMAND3BA3aKC/BuCD/WMWs85iHU+AHEAOIAcNBNFAzIaMtqW1wMY6nrEu/LHGK/Z2xTqeADks4kEW8VgFH7tRoH0ADGggHQ3AB9MZS5qXsY4nQA4gB5CDBoJoAECS1iKG8ew/nrEu/BjL/mMJkMNCmd1CCQMbZhQwWMQNGkhHA/DBdMYSIAeQA8hBA9lpAECS1iKG8ew/ngC5/jGLWWexjicurQIwggBGrIKP2STQtrRMH+OJ8YQPpqWBWMcTIAeQA8hBA0E0AJBJaxHDePYfT1r4Dw4O8EgkBgA5LJZZLZaxCh6LUf/FCDFDzKCBYRogH/zGN76BR0IxiHEuYEcOgBkEMAFyw4w/RpNAmzCW0MAwDcAHh8UNeusXN4AcQA4gBw0E0QDMuJ8ZI17pxQsgl96YxjhPAXJYxIMs4jAwGFiMhoc2QZdTagA+CL1NoTeAHEAOIAcNBNHAFAaGOrBQxqwBgBz0OYU+AXJYxIMs4jAwGNgUBoY6oLOYNQAfhD6n0CdADiAHkIMGgmhgCgNDHVgoY9YAQA76nEKfADks4kEWcRgYDGwKA0Md0FnMGoAPQp9T6BMgB5ADyEEDQTQwhYGhDiyUMWsAIAd9TqFPgBwW8SCLOAwMBjaFgaEO6CxmDcAHoc8p9AmQA8gB5KCBIBqYwsBQBxbKmDUAkIM+p9AnQA6LeJBFHAYGA5vCwFAHdBazBuCD0OcU+gTIAeQActBAEA1MYWCoAwtlzBoAyEGfU+gTIIdFfJRF/Pvf/771j6HJwOQ/i37jjTdGqWeKSYE6YL7QADQwRAPwQehmiG6umwcgB5AbBbB+9KMfqYceekgRwLmPBx54QAHkYHDXNSvkh4Zi1wB8EBrdh0YBcgC5UUCOxPvyyy+rmzdv1kDua1/72mh17GOSoE6YMzQADXTVAHwQWumqlbHSAeQAcqNC1pNPPmmB3NHR0ajljyV8lAOzhQaggVAagA9CW6G05SsXIAeQGx20PvvZz2qY+9SnPqX+/d//ffTyfULGMRgnNAANxKQB+CD0OJUeF++//76a0+Phhx+2dnzc+7Ga3t++fXtQvqbycLx+Lxxisr+YPProo7Oax3PynBjbCh/c31yDz8Ub+1x9cHYgR5Po4uKi94Py4Q8RSDUCpO8YgSNUm557nBaTO+rJ783rg+hY8YAPpjqT0a/rRCA3H2Q/AchdRzXIiwhEEoGUDOx7T94xu+ePP+cHtT4gV5TXDfpk3Xee/F60cAyQi2TioRlRRSAlH2RI6/I8f5C7e6IO5E9eHJ15d+togPGHCKQagZQMrICpx9VzLbd99AG5PmkL03xOPb5YqHmB3F11ciAveR2ok7v1KxfwwVQdAP2iCKTkg10AjtPMH+TkZdazI7VYwMAwpfOLQEoG5gW57z2p7vAHtjtPqidrl1YL+KI40KOAsO+pJ+9IuFmoxZ0n1fc0IPrS8+7ffEHu6KwOb/JWFIoN/hCBVCOQkg8ypHV5Tgrk7p4cqMXiSJ1JuCtfw8BSnbroF0UgJQOrg1wJXQxhBur4cikBW7WD5+7Aue/ff789/fvvzxHkztTRYqEAcvCDnCOQkg92AThOkwTInR3xp24/xNEnUoBcw/Q+P9axWRyeqsuGJDgcfwRSMrAayD33uNaovF+uDme8m/a+KvIvFKdvS0tG6KafM8iRDvQDt5h0n7TwwO6xijxlSj7IkNblOQmQM5cO9KVV/6dSGmD8eSLQZmKXp+qQFwb9fKzOPUV0OXR+XCwwx0ML6FLJGGlG7PMYzelaRkoG5oJcHbTeVzaceS6hLtpArj39PEFOXFKFD3adNkU6eKAdr5l6IHUiJR/sAnCcJi2QuyguLxyc3K194QEgZ89V867RxC7V6SHBVwlvPLmHkBjnjX7Xb8Q+mwBP8yIlA+sLci7oue9t6KvvwLnpZw9y8MF+kw4eKOI1Xw+kTqTkgwxpXZ7TAjl8EhUTsuPLBhO7PD3Uk0Jy29BdtaH5OvZgtGRj9nm0RnUsKCUDc0Hufb4nruEeORvEqt02vrRqn3dBrp5+liB390Sd8Bcd8KWvjrOmTAYPNPGaswdSJ1LywS4Ax2nmD3IlvNEA0qPpZl86hz9PBLwmdq6OfZdSB+2sNZTlacp+DzW0c1Cfp+9JSgZWAzn6lml5n1wxzx9Xj1vfWpXfQL2jHn+8+B06BjkGM51Xw2C39HP++RHfVQncK9wwL+GBZWDm7YHUiZR8kCGty/P8Qc7zDVVzz5w4RwMc7x9PoPJG5cVCyZ0wxUZj7leT96rxVniRhz9R6UXLcynTOk/1HHu+7MD1WY2g6HFdh+q04zcjuL7D1gzcfyqXX4s+cnu8/S9HlYGL0+i+c1lOPHVX+P6/si9cxwh93ofOUjIwL8i1/KZcF6Prl2aO31oV98gJ33O9MF4frOaq9i54YHVbCxkK+xP7G9/yIs0mcw+kUKTkg308CyAnJ8JeXtcNjMTIPMEgxOZWPTNMMVwJKDOTfaEWXJD2ggoUq3LKYwL6uE6R1USm7ZxJZF5w3wSUmXPyBac7VIf6vjxqU5GH66u1d8H9V6opDbXfnBP9o5r5ci/Hh9Ndv8+yX9O9pvj0mfgxp+VLodSnalet+lZqyLbLuue1IzdnkOP5b/sTz0Wem80eAA9silFOHkhum5IP9vE5gNx0a62/JvMpygc7bHD2OYaQYperMjH5EyKcxhwz9SyU3B2rpTOQU4GSbDgbhixDnrde86dIdmTrpHzD/Vwo0159mo+39Z/T2NBKn2B1tabfoj+eY0UcRBrRvF59FvmmfJmrgfUxu5TS0ni7u21d3lO+6P7MfLTnedFOnt/2OfYteCBdGuEY5e2BpJdcfXB2IHfr1i09WDRgfR43btyIzr9so+L+CMNiEGroq2tiFi+ZvGV5/N7ZmTJb9uJ4G9Rw+t0gx4DphyN7MCoj8veBY2M/6zZwv3yXGspK2PTd3TcJjeP02e7VlO9yNbCU4KxPX9LywWr+F54ODzTeYfzN9j5e++CBJlL6Ra4+ODuQ62N2Mi0NcMx/BjZKaOs6Qav71qrLsbqfxgDGBbnOu1P8KVsAYnP82cgd6HP74CuA07TVw2k07HFddrzaQK5zn33tm+hYk4Gt12v1W7/1W8lcdpVzGq/ty83f/va31e/93u+pd955p3G8Y/ZBeCDBGjzwOpbZ5IOpewVA7jqqCZCXoUHvHjEMLezLoXor3YAL73zZYMI7Z3yvmRJlVbteVV65O8VtqNJVHW07V6Wq7kHzlSHTFa8ZrhwTE222dwDP1TH3vykNX1rVFXD5C3V4WPysiuwvJWnrV9u5el/2c8Q1MAY4Ou6eS93Ucu3fiy++qMf6gQceaAQ60kLsfzzf4IHamMyPssMDdys3V68DyO3WRtgUAkR40aVnnrTup1SThkHGfJN0B8iJdKYMqscHNryDVaMwBj8HuNwIcZ9MG90E7nsGrXq5u/tfQZjsF72WzTeLg9zxlM24bp9lWXt4Tf0lgHEBjmOSK9zk1G8GOR5zH9DRuej+2C+cW0jggcVIwQO7K5Z9MKd5T30FyHXXSJiUHhNjA+MKXQgxu2w6AcOVDS61HTknrTZ7Ih0GGAu6GKzEvSo6f3ncSsutrJ65vW4/qhTuK66vDnKUksvjBcruf1kW94MXA0lxRSHmk603v7lheFif3R5N/Z5iQ5dQqxj576lxzx8cHHgvw7lQgHzFZcyY49LUNgl0NI7R/cEDxRcW4IHX0SfpOzeIA8hdRzGJ52V4kjDmO1YPA0OZC0T1lLEd8fXPdyy2dlN7yMAeeughgByDfPmcE6g2gRxpg+LA52PUb4xt8s1937F62+GB9ZhMcwQgN+kPbto36U5B0DTA+OsTAd7p40+I/Xbj+BuifWrcf9phfd5/u6uv3Z+cnHiBboo5hjqm9zUZcwY18jp+MMBxOvhgn9k6zA8Y9uCBfWI9TlrSN2s9p2dcWh1HP4mWwp8seWFgqEu0u7pb8+yza2Au0OVkarn2VYKcC3AcE4BcX++apx/07aWdfr59dn2QdZ/6M0DOVjDeIQKzjECTgTHQpW5k6N/7+tJpE8BxfABys5zeaHTHCDT5IOs/1WeAXEeBIBkiEHMEcjWwVI05VL8AcjHPYrTtuhHI1QcBctdVTvT5r9RmtVbb6Ns5dgPz6neuBhYKeFItN0+Qy8sLKifNr9+5+iBArlL9nl5t1Xq5VMtlKNiaw2SmGKzU5mrMIejW7+16V71UDo3PrnRjtr1/WbkaWKrAFapfcYIcPFApeGB/16vnyNUHAXJ1LUx8ZKvW65D7Zd2AZuJOT1Bdt37vBrmiqV3TTdAxbxW5Glgo4Em13GhBDh7ondfXO5iXB1KscvVBgNz1ZsoIuSXI8e7PUi1XG2U2qLZrtdS7dku1ZMO72qjVelPuFjnp6RynX63VuunSqky3XCouWn86XG3UZu2Uq3u7VWv3nK99lFYcN2WLY6Yvig2HnsXOF7WP4+DN54Rf9sfqt4grxaVszJb6x3HSx/zpiq6IdjnVxvA2VwNLFbhC9St+kBNzkOd+MQGduaqUovkOD7TtJ2MPpEDk6oMAOXsa7OGdALntWq34+uLVVm2J5LRZVTt2V5tVAVx6wjJcFOZX8Alt0YvLtBqAxHvTQ3crX76n1xLsTCaiM/tca/uqerfbbXNfDMhRklUVA45HUx2yWbpdVX0FRIr3Ji3FiuNGrFm9Nkn0i67p7Fz7epergYUCnlTLjR7keM7TRIIH6g/Dek2AB3ay1lx9cPHjH/9Y5fCI08BImwLkNJw5ACV3osrdIzOxxSdWA3jSCLX0CUg8QFNLV0CUgUFRtj2Dih05726haJ8FZFxAU18EyGlwLes2kNWYjwsudv8MBPv6bZVRwZupg4vqmo7TR/JM+s5hHqOP1/PrOH0QHqjggaM4aa4+CJAbRT7XKUSYWFlMccmvhA0PcOlkTZ/QaunDg5wNUEUnmkDOl9YyMW1o1HcBjLU+eeJdSyP6TXBWXk6lnBLe5Gu9i9clnaf6fR/K1cAAdv3ALnqQKycSPBAeOMRTc/VBgNwQtYyaR4Dcdmt+JsTssOldOrGjtt0U3+5sArlaerq/TuQ3bZeXUumgfC8gyqTnF865Wn2ifaJec2lVHFPcF/lpVF9NXqnVqryETNU21cFN8qap+m1BpS5L7shVO6Dt6ao8stpYXudqYAC5xEAOHqgtRXsRPLC3vebqgwC53lIZO4MAufL+M30Dvri0SZPavim/5d65EoSq9PSFCB/IMSDxDf8SVBxYs7pcP+dtH+URlyl5o8ufVuyeUT4X3Gp9qu4ZlE2zy5b9Lu7r47hu5H1x3EbdwOZ01s6drDSS17kaGEAuMZCDBxaOAg8c5Ky5+iBAbpBcxswkQW7MclHWmBEAyPUDBgBWnPGihS6+P3hgfGNSb1HsHkgtBsgl/qWHOA2MpMe7QA27ZvX5hCOTRoB2C+fxg8CApzjhKaZxidMH4YGTWlrvyubhgdQtgBxArre8kQERiCUCuRpYTJA0h7bECXKxzCK0Y+4RyNUHcWl17spF+xGBjD+JzgGeYmojQA52kXIEAHLYkUtZ3+hb4hHI1cBigqQ5tAUgl7gRZN69XH0wmx25W7du6evnNNB4IAapaYD0PQeQQBv3ex8ffBDel5r3yf7k6oPZgBwWkGkXEJpciPm0MUe8EW9oIC4NwAfjGo9U5wdALvFLyvsSLgwMBrYv7aFeaC8WDcAHocUptAiQA8gF2TmDgcHApjAw1AGdxawB+CD0OYU+AXIAOYAcNBBEA1MYGOrAQhmzBgBy0OcU+gTIYREPsojDwGBgUxgY6oDOYtYAfBD6nEKfADmAHEAOGgiigSkMDHVgoYxZAwA56HMKfQLksIgHWcRhYDCwKQwMdUBnMWsAPgh9TqFPgBxADiAHDQTRwBQGhjqwUMasAYAc9DmFPgFyWMSDLOIwMBjYFAaGOqCzmDUAH4Q+p9AnQA4gB5CDBoJoYAoDQx1YKGPWAEAO+pxCnwA5LOJBFnEYGAxsCgNDHdBZzBqAD0KfU+gTIAeQA8hBA0E0MIWBoQ4slDFrACAHfU6hT4AcFvEgizgMDAY2hYGhDugsZg3AB6HPKfQJkAPIAeSggSAamMLAUAcWypg1AJCDPqfQJ0AOi3iQRRwGBgObwsBQB3QWswbgg9DnFPoEyAHkAHLQQBANTGFgqAMLZcwaAMhBn1PoEyCHRTzIIg4Dg4FNYWCoAzqLWQPwQehzCn0C5AByADloIIgGpjAw1IGFMmYNAOSgzyn0CZDDIh5kEYeBwcCmMDDUAZ3FrAH4IPQ5hT4X7733nsIDMbiuBt588031xS9+0TzIwOT77373u9AZ5ho0AA0krQH4INbS666lQ/ID5GCsoxnr5z73OUUA5z4ODg5Gq2OIyJEH5goNQANTaQA+CK1NpTWuByAHkBsNst599131a7/2axbIffzjH1f0KZUFh2eYHDQADaSsAfgg9D21vgFyALlRIYsuod68edPA3AsvvDBq+VNPENQHU4YGoIG+GoAPQjN9NXOd9AA5gNzooPXlL39ZgxzdI3cdcSIvzBAagAbmqgH4ILQ7lXZnB3Kf+MQnzG6Pey9W2/vbt28PytdWJs7V74dDTPYTk0ceeQTQnNGHMvjgfuYZ/C3uuOfqg7MDOZpIFxcXvR+UD3+IQKoRIH1P9ekP9ex/pwE+mOpMRr+uE4FcfRAgdx3VIC8iEEkEcjWwXKESIBfJxEMzoopArj6YFMidHdG275E68+zY0QDjDxFINQK5GhhATl6duKtODvjS14E6uSvPFa/hg6k6APpFEcjVB9MBubOj8h44gBymdH4RyNXAAHIMayXEHZ213nYCkMvPG3Lqca4+mAjIkYkdqKOjA+zI5TRr0VcTgVwNDCBXgpz+IOvfhZP3FAPkzJTBiwQjkKsPJgFyd08O1MHJXUXPuLQ6xuw8V8f6PzQcqtPLMcpDGaEjkKuBBQO5159QdxZ31BOv7/+LDb4+0nhLQCu870AdmEuruDJxvTkHD7xe/PaTO1cfnD/I0SfRgxN19+ICIDfa3InAxC5P1aH1776O1flo/UuvoFwNzAc5w469rp64Ey+4uX1qArnivrgzdURzx3OZlfLhr0sE4IFdohRbmlx9cPYgV3zBgW/w5ef6p1EYWJ8pt28Tu1SnhzSWJbwx1B0D5ZpGMVcDcwFn+PsUQI59r/l+Ofhg0wxyj8MD3YjM4X2uPjh7kKtfXmAz45uA8W2t/hNwvyZ2eXqov7giue38uIB0eax/v9LNEa+BESDxByy54yWP0/nH1LPmB30Zqp5Vj5ldWTcvvW86T5dD5bmFeuxZeYlU1k3lyPfcFsrvton7wWm4zF3t5XTjPdN4S++7uHuiDhYLdXRGflfsyNHtJlaaiws9r9KdBWP2DB44ZjSnKiteHxxv7vs+rALkplLYrOrZp4lx3c6lVN6VOzxVuG2vLqY4DawApDtPvF7+WPHr6oknnlXvvecef0+9/sQdtbjzhHpdwxyDVQVS+vxjlJcMsdv5Ct4klLl1yzZJWGzL07e945t4DeToJ5fMN/f9l1UJ6igf/rpEgH1oH/cJc93wwC4jJdPE6YPjz38X5pICOffTp3wPA5NyL18zHPGuh4EkNhLHxM6Py594qXYm6jtknLchTa0Mx6z4fK1gvtzqtMnTrRwPRWlgzz4m4EyYGX2RwEAbHyfAYpAqYKsCsffUe1aeHeepXgN9RfnPPlbuyjW1ScMh1095BMhZdQ9pL+cZ75nGW/pb19fwQccd4IFOQOb9NkofNFcaxpv/ALl563S01vPlSxK+fBT8xDBWQVNTesp7aL7ayvl8ZSrVXEa9nhrHqSq/79xogZlpQVEamAeotAE1HDewVYMqMkABVrvOU/mOrum9BsOGuotdvgaQa8jTvb3jGzj1pyu8yXSUD39FBJr8CB44X4WQvl3IyeE9duTmq9lrtFwAl6Si82PlNTHxqbWCNqUU754tShAz6ZxdNt1SrtM+x/e+cbnF+wrsZCfZeDmtPJf76ygNrAGA3qPjO3fkJFQNADlnR86YeVObanAowPHa7QXIxTc/2Y8WagEPjG94BrYoSh/EjlzdAB/w7yKeAAAJeklEQVR44AHvp20awLbHjRs3BkojwWwGwGyoqnrKJlcCFac3l145JadbOADIYyHK5zIaxonhrA3kGBw5LbcCz7H+axqCIflFA3k/2kJV98757jm7BsiVX3SQl2affYzvt2tq03uq2mHzgeN12lv3MQOWA00ePnjNWW/8SHiUVSR7GzzQCkvkbwByAw3luoY0VX4aYPyVEWATq4EZR2ioiRX5eZeNwVqDF9fJPynCVTnPbSCHHTknWOKtz8DOz88juMxQgFOhBQlnxX1urBF7h07eL8cQJHbIartnLniV99SJDw0S6uxvtIo20c6bzkPQJ+uj8q/TXu7DtM9vvvlmbfypf/gTVxPggUnJgfQ9FVPEVM/sLq0ODR4MTMxXcwlU3t9WmNuuS6vyKgSDlfm9N1EFvTTnKVNTnepcHQsz5TyyHi627RynyfXZNbCvfvWr6hOf+ESWpjbUI1LL9/GPf1y98MILlgbgg6VDNPlRh9tLpDexJ8ED43Be1wdTm9NN/QHIxaG/yVtRGRBfBi2eC5NyduQ049npaMLww1zqFObI5+iZz7s7dSaNADm+fGrdt6Kjg2+ttomEYkmT/N1331W//du/rcfmV37lV6xFvMkEcHzanbKp4s3z64tf/KLRAR3DXxEBeGB6SmAfnGqOxVIPQC49LXfvkbncWUKZ+ahZBzldqJuev+TANXpAjiGuSlL82C8vMvVPsly3e+9KeVxCHxeKZw1u//iP/6g+9alPGcAGyKUJaF0Xj2qOLdTBwYGiS60AOccsXE+DBzoBmtdbgBzukZuXYhNuLX9SlhDoO5ZwCHp3jQys7Qb4z33uc2ZX5stf/rKBPcqHcwXwpRgXGl9+0KVWeo2/+CPg8zvfsfh7Mm0LSd9dP+iklA47ctPqDLV1ioB7GRW7cbvCRgZG98VJmMOOHHbkJMTR/XIAuV0zKZbz8MAhIwGQw47cEN0gT7AI8CVW3lHw/7ZcsOpnVjAbmLy8CpADyJEu+LIq7UAA5OY0seGBfUeLfTCl3bYufcGOXF+lID0iEGEEpIHxFx6yATn6F1oL8TMiY30oDVXuWO3bUQ5pQn7RASAX4cRFk0aNgPTBLgCUShqA3KgyQmGIwH4i4DOwb37zm3u8X8T3W3Cx75DNsc3NMXV/egQgt5+5iVqni4DPB1OBtbZ+LDabjcrhQQOMP4rAVq1XG3UVdTC2ar1cq23UbYyrcaTvuObxa+qJO3fUE6/NyV/m2OZ+8YUPwgPjcq5xWxOfD/abn0M9HCA3ro4iKI0gaKmWjSCUJsht1yu10XR6pTYr6j+/j2BIJmhCXAZGQMT3NtLzY+oZ/YHxGf0vu6it9HjsmcrknnlsoR57gi6RLtTisWfUZkNpH1PPPMP/baFI/9oTd3Reyn/niddKeC3T6joYxmRdLlD6zvnaLMultvrScB+61Mtp9/dMcUv/Dx6YoweSrknfQ2FozvkAcsm52lat1217WamDXDGgFdglN8DeDsVnYAw2DC0FBFXwZkMSgRz9m67XzBWCErY01G3UhoGO379G0CcBkV8zbPH7jdLwx/k2G/XMY9U5Xa6p122zbGNRbgWPZblWXgmt9XpjWCiyATl4oMrNA8kY4/NB9r+wzwA577I454MOyG3Xaql36Jaq8DYH5K42alWep3SV//HO1lIt5aVYUd6ySiwC1pCvsR662utpo9lRLMvjukRarn+7ph248lGmy83E4jMwB4oIxARMEdToXbhyV06+LoCHIErupLnvZfl14KqAcaM2BH0GuFxDdfO6dZbQ5y1DtqEAve71uu2Y5n2WICc8o7AHeKAw7KRexueDE83rGD4lTtGGPAyM5qQAOQ1P1b1m2y3t1EkTo0sQ8hKkeL9dq1VxrVKpq63a0mVLKo+BSr9dCfAr/cCXj+psqqepjRrkCOJE+1rqd8HNfZ+UW3k6E5+BScgRO2riB2qpzQw+fpATO2f6sqaELFl+G4yRkcrzJdhZ7eB6ZJlOPg+I2jDq5nXym53GaYy9yVPz8EF4oF4JzO0mHsNI9FB8PjjNfMeOXHKCrkzsarOqYMz0U4CchK7yPOXRrKYBS+7Q2TtnvANmYI/Lb8jnpuN6Gtu4XKmVhDgqX3yydut3wc19z81L9Tk+A3PApgGEGDgmAznrkixDXUeQq+3qyT7K12zeDkBGAHO5gVyjv/BVBnhgUpYYnw+yF4R9BsglJWPqzEggV8aluGxZ7op5TK8pfLvydQO5pQ2iLfW74Oa+b2pnKsdjNDAbzghqqh24YjeLAcq+zFrAnQtBLijJ9zKtPM7mKc4TUAogozZWX8Zw2yHylV90aL9HTu4YUt0yP7dlv88AOZrxHT/Mluawy8uaPGRXPnhgU+SGH4/RB/nDashngNxwzUSaswI5fSnU3GumVL9Lq1vz8x9sOG55arspvykqQrH15Bt8aZU24QTMOZdhZf2UTlz1ze5G3ygNjKBJX8IsgU3vhhXfWKXjfFm1gDr7fR2CXECT7yUwyeMMTe552QZ5Tl4CpjY759xvrQogLL7RCpATTrDHl/BACn5uH2apz1H64AQ78QC5PdpNmKqFiRWz2XwRYPeNvuJ+NA1f5RcI+DJEeV8cX9bkLxvY/eCv/jtfkigvuRZ5ZT32JVPTRgmg9GWGsg0Eld76+bJrSXO5mViuBhbyU26KZZNO0v+DBxbW7/hs+gMPkEvRtGSf8jAwPX13/PxIBrM5w0+jADnefcOz9D33dR4+6IBcHpZX62VuH2YpALn6IHbkavKf+wHeEau+rTr3HvVrP//8SV6fRnM1MBdU8L4dZLMBudYfRe/nKPNLnacH0jjl6oMAufnNUrQYEahFIFcDA7i1g5sbnzxArjY9cCCTCOTqgwC5TASObqYdgVwNzAUVvG8HO4Bc2j6Qe+9y9UGAXO7KR/+TiECuBgZwawc3Nz4AuSSmOzrREIFcfTAbkLt165a+fk4DjQdikJoGSN/uoo33/SAnh3jBB+F9qXmf7E+uPpgNyOVg0ugjFm5oABqABqABaCAvDQDkJvixPkyqvCYVxhvjDQ1AA9AANDCVBgByADlckoMGoAFoABqABqCBmWoAIDfTgZuK9FEPPlVCA9AANAANQAPxagAgB5DDpzBoABqABqABaAAamKkGAHIzHTh8Oor30xHGBmMDDUAD0AA0MJUGAHIAOXwKgwagAWgAGoAGoIGZagAgN9OBm4r0UQ8+VUID0AA0AA1AA/Fq4P8D6nXxu2IbQvAAAAAASUVORK5CYII=;" vertex="1" parent="1">
          <mxGeometry x="905" y="880" width="626" height="432" as="geometry" />
        </mxCell>
        <mxCell id="Jlv6tlQgSIHZSu_hJbBJ-117" value="Actor" style="shape=umlActor;verticalLabelPosition=bottom;verticalAlign=top;html=1;outlineConnect=0;rounded=0;glass=0;" vertex="1" parent="1">
          <mxGeometry x="165" y="790" width="30" height="60" as="geometry" />
        </mxCell>
        <mxCell id="Jlv6tlQgSIHZSu_hJbBJ-118" value="SERVER" style="shape=cylinder3;whiteSpace=wrap;html=1;boundedLbl=1;backgroundOutline=1;size=15;rounded=0;glass=0;" vertex="1" parent="1">
          <mxGeometry x="550" y="790" width="60" height="80" as="geometry" />
        </mxCell>
        <mxCell id="Jlv6tlQgSIHZSu_hJbBJ-120" value="응용" style="rounded=0;whiteSpace=wrap;html=1;glass=0;fillColor=#d5e8d4;strokeColor=#82b366;" vertex="1" parent="1">
          <mxGeometry x="1740" y="880" width="120" height="60" as="geometry" />
        </mxCell>
        <mxCell id="Jlv6tlQgSIHZSu_hJbBJ-121" value="표현" style="rounded=0;whiteSpace=wrap;html=1;glass=0;fillColor=#d5e8d4;strokeColor=#82b366;" vertex="1" parent="1">
          <mxGeometry x="1740" y="940" width="120" height="60" as="geometry" />
        </mxCell>
        <mxCell id="Jlv6tlQgSIHZSu_hJbBJ-122" value="세션" style="rounded=0;whiteSpace=wrap;html=1;glass=0;fillColor=#d5e8d4;strokeColor=#82b366;" vertex="1" parent="1">
          <mxGeometry x="1740" y="1000" width="120" height="60" as="geometry" />
        </mxCell>
        <mxCell id="Jlv6tlQgSIHZSu_hJbBJ-124" value="전송&lt;br&gt;- 세그먼트" style="rounded=0;whiteSpace=wrap;html=1;glass=0;fillColor=#dae8fc;strokeColor=#6c8ebf;" vertex="1" parent="1">
          <mxGeometry x="1740" y="1060" width="120" height="60" as="geometry" />
        </mxCell>
        <mxCell id="Jlv6tlQgSIHZSu_hJbBJ-125" value="네트워크&lt;br&gt;- 패킷 (IP)" style="rounded=0;whiteSpace=wrap;html=1;glass=0;fillColor=#fff2cc;strokeColor=#d6b656;" vertex="1" parent="1">
          <mxGeometry x="1740" y="1120" width="120" height="60" as="geometry" />
        </mxCell>
        <mxCell id="Jlv6tlQgSIHZSu_hJbBJ-126" value="데이터링크&lt;br&gt;- 프레임(MAC)" style="rounded=0;whiteSpace=wrap;html=1;glass=0;fillColor=#e1d5e7;strokeColor=#9673a6;" vertex="1" parent="1">
          <mxGeometry x="1740" y="1180" width="120" height="60" as="geometry" />
        </mxCell>
        <mxCell id="Jlv6tlQgSIHZSu_hJbBJ-173" style="edgeStyle=orthogonalEdgeStyle;rounded=0;orthogonalLoop=1;jettySize=auto;html=1;entryX=0;entryY=0.5;entryDx=0;entryDy=0;" edge="1" parent="1" source="Jlv6tlQgSIHZSu_hJbBJ-127" target="Jlv6tlQgSIHZSu_hJbBJ-165">
          <mxGeometry relative="1" as="geometry" />
        </mxCell>
        <mxCell id="Jlv6tlQgSIHZSu_hJbBJ-127" value="물리" style="rounded=0;whiteSpace=wrap;html=1;glass=0;fillColor=#e1d5e7;strokeColor=#9673a6;" vertex="1" parent="1">
          <mxGeometry x="1740" y="1240" width="120" height="60" as="geometry" />
        </mxCell>
        <mxCell id="Jlv6tlQgSIHZSu_hJbBJ-128" value="응용" style="rounded=0;whiteSpace=wrap;html=1;glass=0;" vertex="1" parent="1">
          <mxGeometry x="2650" y="870" width="120" height="60" as="geometry" />
        </mxCell>
        <mxCell id="Jlv6tlQgSIHZSu_hJbBJ-129" value="표현" style="rounded=0;whiteSpace=wrap;html=1;glass=0;" vertex="1" parent="1">
          <mxGeometry x="2650" y="930" width="120" height="60" as="geometry" />
        </mxCell>
        <mxCell id="Jlv6tlQgSIHZSu_hJbBJ-130" value="세션" style="rounded=0;whiteSpace=wrap;html=1;glass=0;" vertex="1" parent="1">
          <mxGeometry x="2650" y="990" width="120" height="60" as="geometry" />
        </mxCell>
        <mxCell id="Jlv6tlQgSIHZSu_hJbBJ-131" value="전송" style="rounded=0;whiteSpace=wrap;html=1;glass=0;" vertex="1" parent="1">
          <mxGeometry x="2650" y="1050" width="120" height="60" as="geometry" />
        </mxCell>
        <mxCell id="Jlv6tlQgSIHZSu_hJbBJ-132" value="네트워크" style="rounded=0;whiteSpace=wrap;html=1;glass=0;" vertex="1" parent="1">
          <mxGeometry x="2650" y="1110" width="120" height="60" as="geometry" />
        </mxCell>
        <mxCell id="Jlv6tlQgSIHZSu_hJbBJ-133" value="데이터링크" style="rounded=0;whiteSpace=wrap;html=1;glass=0;" vertex="1" parent="1">
          <mxGeometry x="2650" y="1170" width="120" height="60" as="geometry" />
        </mxCell>
        <mxCell id="Jlv6tlQgSIHZSu_hJbBJ-134" value="물리" style="rounded=0;whiteSpace=wrap;html=1;glass=0;" vertex="1" parent="1">
          <mxGeometry x="2650" y="1230" width="120" height="60" as="geometry" />
        </mxCell>
        <mxCell id="Jlv6tlQgSIHZSu_hJbBJ-136" value="데이터" style="rounded=0;whiteSpace=wrap;html=1;glass=0;" vertex="1" parent="1">
          <mxGeometry x="2000" y="880" width="50" height="40" as="geometry" />
        </mxCell>
        <mxCell id="Jlv6tlQgSIHZSu_hJbBJ-137" value="세션&lt;br&gt;헤더" style="rounded=0;whiteSpace=wrap;html=1;glass=0;" vertex="1" parent="1">
          <mxGeometry x="2000" y="1010" width="50" height="40" as="geometry" />
        </mxCell>
        <mxCell id="Jlv6tlQgSIHZSu_hJbBJ-138" value="표현&lt;br&gt;헤더" style="rounded=0;whiteSpace=wrap;html=1;glass=0;" vertex="1" parent="1">
          <mxGeometry x="2000" y="950" width="50" height="40" as="geometry" />
        </mxCell>
        <mxCell id="Jlv6tlQgSIHZSu_hJbBJ-139" value="&lt;span style=&quot;&quot;&gt;데이터&lt;/span&gt;" style="rounded=0;whiteSpace=wrap;html=1;glass=0;" vertex="1" parent="1">
          <mxGeometry x="2050" y="950" width="50" height="40" as="geometry" />
        </mxCell>
        <mxCell id="Jlv6tlQgSIHZSu_hJbBJ-140" value="표현&lt;br&gt;헤더" style="rounded=0;whiteSpace=wrap;html=1;glass=0;" vertex="1" parent="1">
          <mxGeometry x="2050" y="1010" width="50" height="40" as="geometry" />
        </mxCell>
        <mxCell id="Jlv6tlQgSIHZSu_hJbBJ-141" value="데이터" style="rounded=0;whiteSpace=wrap;html=1;glass=0;" vertex="1" parent="1">
          <mxGeometry x="2100" y="1010" width="50" height="40" as="geometry" />
        </mxCell>
        <mxCell id="Jlv6tlQgSIHZSu_hJbBJ-142" value="전송&lt;br&gt;헤더" style="rounded=0;whiteSpace=wrap;html=1;glass=0;" vertex="1" parent="1">
          <mxGeometry x="2000" y="1070" width="50" height="40" as="geometry" />
        </mxCell>
        <mxCell id="Jlv6tlQgSIHZSu_hJbBJ-143" value="응용계층헤더" style="rounded=0;whiteSpace=wrap;html=1;glass=0;" vertex="1" parent="1">
          <mxGeometry x="2050" y="1070" width="100" height="40" as="geometry" />
        </mxCell>
        <mxCell id="Jlv6tlQgSIHZSu_hJbBJ-145" value="인터넷&lt;br&gt;헤더" style="rounded=0;whiteSpace=wrap;html=1;glass=0;" vertex="1" parent="1">
          <mxGeometry x="2000" y="1130" width="50" height="40" as="geometry" />
        </mxCell>
        <mxCell id="Jlv6tlQgSIHZSu_hJbBJ-146" value="전송&lt;br&gt;헤더" style="rounded=0;whiteSpace=wrap;html=1;glass=0;" vertex="1" parent="1">
          <mxGeometry x="2050" y="1130" width="50" height="40" as="geometry" />
        </mxCell>
        <mxCell id="Jlv6tlQgSIHZSu_hJbBJ-147" value="응용계층헤더" style="rounded=0;whiteSpace=wrap;html=1;glass=0;" vertex="1" parent="1">
          <mxGeometry x="2100" y="1130" width="100" height="40" as="geometry" />
        </mxCell>
        <mxCell id="Jlv6tlQgSIHZSu_hJbBJ-151" value="헤더" style="rounded=0;whiteSpace=wrap;html=1;glass=0;" vertex="1" parent="1">
          <mxGeometry x="2000" y="1190" width="50" height="40" as="geometry" />
        </mxCell>
        <mxCell id="Jlv6tlQgSIHZSu_hJbBJ-152" value="인터넷&lt;br&gt;헤더" style="rounded=0;whiteSpace=wrap;html=1;glass=0;" vertex="1" parent="1">
          <mxGeometry x="2050" y="1190" width="50" height="40" as="geometry" />
        </mxCell>
        <mxCell id="Jlv6tlQgSIHZSu_hJbBJ-153" value="전송&lt;br&gt;헤더" style="rounded=0;whiteSpace=wrap;html=1;glass=0;" vertex="1" parent="1">
          <mxGeometry x="2100" y="1190" width="50" height="40" as="geometry" />
        </mxCell>
        <mxCell id="Jlv6tlQgSIHZSu_hJbBJ-154" value="응용계층헤더" style="rounded=0;whiteSpace=wrap;html=1;glass=0;" vertex="1" parent="1">
          <mxGeometry x="2150" y="1190" width="100" height="40" as="geometry" />
        </mxCell>
        <mxCell id="Jlv6tlQgSIHZSu_hJbBJ-156" value="데이터" style="rounded=0;whiteSpace=wrap;html=1;glass=0;" vertex="1" parent="1">
          <mxGeometry x="2250" y="1190" width="50" height="40" as="geometry" />
        </mxCell>
        <mxCell id="Jlv6tlQgSIHZSu_hJbBJ-159" value="데이터" style="rounded=0;whiteSpace=wrap;html=1;glass=0;" vertex="1" parent="1">
          <mxGeometry x="2200" y="1130" width="50" height="40" as="geometry" />
        </mxCell>
        <mxCell id="Jlv6tlQgSIHZSu_hJbBJ-160" value="데이터" style="rounded=0;whiteSpace=wrap;html=1;glass=0;" vertex="1" parent="1">
          <mxGeometry x="2150" y="1070" width="50" height="40" as="geometry" />
        </mxCell>
        <mxCell id="Jlv6tlQgSIHZSu_hJbBJ-164" value="트레일러" style="ellipse;whiteSpace=wrap;html=1;rounded=0;glass=0;" vertex="1" parent="1">
          <mxGeometry x="1920" y="1185" width="80" height="50" as="geometry" />
        </mxCell>
        <mxCell id="Jlv6tlQgSIHZSu_hJbBJ-165" value="전송매체" style="rounded=0;whiteSpace=wrap;html=1;glass=0;" vertex="1" parent="1">
          <mxGeometry x="2000" y="1250" width="610" height="40" as="geometry" />
        </mxCell>
        <mxCell id="Jlv6tlQgSIHZSu_hJbBJ-167" value="송신" style="shape=umlActor;verticalLabelPosition=bottom;verticalAlign=top;html=1;outlineConnect=0;rounded=0;glass=0;" vertex="1" parent="1">
          <mxGeometry x="1785" y="794" width="30" height="60" as="geometry" />
        </mxCell>
        <mxCell id="Jlv6tlQgSIHZSu_hJbBJ-169" value="수신" style="shape=umlActor;verticalLabelPosition=bottom;verticalAlign=top;html=1;outlineConnect=0;rounded=0;glass=0;" vertex="1" parent="1">
          <mxGeometry x="2695" y="784" width="30" height="60" as="geometry" />
        </mxCell>
        <mxCell id="Jlv6tlQgSIHZSu_hJbBJ-175" value="헤더&lt;br&gt;PCI" style="rounded=0;whiteSpace=wrap;html=1;glass=0;" vertex="1" parent="1">
          <mxGeometry x="2025" y="1361" width="50" height="40" as="geometry" />
        </mxCell>
        <mxCell id="Jlv6tlQgSIHZSu_hJbBJ-176" value="" style="rounded=0;whiteSpace=wrap;html=1;glass=0;" vertex="1" parent="1">
          <mxGeometry x="2075" y="1361" width="50" height="40" as="geometry" />
        </mxCell>
        <mxCell id="Jlv6tlQgSIHZSu_hJbBJ-177" value="" style="rounded=0;whiteSpace=wrap;html=1;glass=0;" vertex="1" parent="1">
          <mxGeometry x="2125" y="1361" width="50" height="40" as="geometry" />
        </mxCell>
        <mxCell id="Jlv6tlQgSIHZSu_hJbBJ-178" value="" style="rounded=0;whiteSpace=wrap;html=1;glass=0;" vertex="1" parent="1">
          <mxGeometry x="2175" y="1361" width="50" height="40" as="geometry" />
        </mxCell>
        <mxCell id="Jlv6tlQgSIHZSu_hJbBJ-179" value="데이터&lt;br&gt;SDU" style="rounded=0;whiteSpace=wrap;html=1;glass=0;" vertex="1" parent="1">
          <mxGeometry x="2225" y="1361" width="50" height="40" as="geometry" />
        </mxCell>
        <mxCell id="Jlv6tlQgSIHZSu_hJbBJ-184" value="" style="shape=flexArrow;endArrow=classic;html=1;rounded=0;" edge="1" parent="1">
          <mxGeometry width="50" height="50" relative="1" as="geometry">
            <mxPoint x="1900" y="900" as="sourcePoint" />
            <mxPoint x="1900" y="1240" as="targetPoint" />
          </mxGeometry>
        </mxCell>
        <mxCell id="Jlv6tlQgSIHZSu_hJbBJ-187" value="노드 : 네트워크에 연결된 모든 물리 장치&lt;br&gt;호스트 :&amp;nbsp;&lt;b style=&quot;color: rgb(102, 102, 102); font-family: &amp;quot;Noto Sans KR&amp;quot;, sans-serif; text-align: start; user-select: auto;&quot;&gt;네트워크에 연결된 컴퓨터&lt;/b&gt;" style="text;html=1;align=center;verticalAlign=middle;resizable=0;points=[];autosize=1;strokeColor=none;fillColor=none;fontSize=15;" vertex="1" parent="1">
          <mxGeometry x="1670" y="1351" width="280" height="40" as="geometry" />
        </mxCell>
        <mxCell id="Jlv6tlQgSIHZSu_hJbBJ-188" value="응용계층&lt;br&gt;&lt;span style=&quot;color: rgb(68, 68, 68); font-family: Roboto, &amp;quot;Nanum Gothic&amp;quot;, sans-serif; font-size: 14.994px; text-align: left; background-color: rgb(255, 255, 255);&quot;&gt;FTP, HTTP, SSH&lt;/span&gt;" style="whiteSpace=wrap;html=1;rounded=0;glass=0;fontSize=13;fillColor=#d5e8d4;strokeColor=#82b366;" vertex="1" parent="1">
          <mxGeometry x="1610" y="880" width="120" height="180" as="geometry" />
        </mxCell>
        <mxCell id="Jlv6tlQgSIHZSu_hJbBJ-189" value="전송계층&lt;br&gt;&lt;span style=&quot;color: rgb(68, 68, 68); font-family: Roboto, &amp;quot;Nanum Gothic&amp;quot;, sans-serif; font-size: 14.994px; text-align: left; background-color: rgb(255, 255, 255);&quot;&gt;TCP, UDP&lt;/span&gt;" style="whiteSpace=wrap;html=1;rounded=0;glass=0;fontSize=13;fillColor=#dae8fc;strokeColor=#6c8ebf;" vertex="1" parent="1">
          <mxGeometry x="1610" y="1060" width="120" height="60" as="geometry" />
        </mxCell>
        <mxCell id="Jlv6tlQgSIHZSu_hJbBJ-190" value="인터넷계층&lt;br&gt;&lt;span style=&quot;color: rgb(68, 68, 68); font-family: Roboto, &amp;quot;Nanum Gothic&amp;quot;, sans-serif; font-size: 14.994px; text-align: left; background-color: rgb(255, 255, 255);&quot;&gt;IP, ARP, RARP&lt;/span&gt;" style="whiteSpace=wrap;html=1;rounded=0;glass=0;fontSize=13;fillColor=#fff2cc;strokeColor=#d6b656;" vertex="1" parent="1">
          <mxGeometry x="1610" y="1120" width="120" height="60" as="geometry" />
        </mxCell>
        <mxCell id="Jlv6tlQgSIHZSu_hJbBJ-191" value="네트워크액세스&lt;br style=&quot;font-size: 13px;&quot;&gt;&lt;br style=&quot;font-size: 13px;&quot;&gt;&lt;span style=&quot;color: rgb(68, 68, 68); font-family: Roboto, &amp;quot;Nanum Gothic&amp;quot;, sans-serif; font-size: 13px; text-align: left; background-color: rgb(255, 255, 255);&quot;&gt;물리적인 주소로 MAC을 사용&lt;/span&gt;" style="whiteSpace=wrap;html=1;rounded=0;glass=0;fontSize=13;fillColor=#e1d5e7;strokeColor=#9673a6;labelBackgroundColor=none;" vertex="1" parent="1">
          <mxGeometry x="1610" y="1180" width="120" height="120" as="geometry" />
        </mxCell>
        <mxCell id="Jlv6tlQgSIHZSu_hJbBJ-192" value="" style="shape=image;verticalLabelPosition=bottom;labelBackgroundColor=default;verticalAlign=top;aspect=fixed;imageAspect=0;image=data:image/png,iVBORw0KGgoAAAANSUhEUgAAApEAAAG1CAYAAACh/q92AAAgAElEQVR4nOydd1gUx//H33t3HHCAgiJFlGYFLFiiwYY1olhjr7HGnqhR0Wgs0dii+aEmtiRKErtRYzQJgiXG2GLBr4pBREVBVAQUacfd7e3vD54Z9xocCvGAeT0PD3A7Ozu3uzPzmc98CicIggAGg8FgMBgMBqMYSN52AxgMBoPBYDAYZQ8mRDIYDAaDwWAwig0TIhkMBoPBYDAYxYYJkQwGg8FgMBiMYsOESAaDwWAwGAxGsWFCJIPBYDAYDAaj2DAhksFgMBgMBoNRbJgQyWAwGAwGg8EoNkyIZDAYDAaDwWAUG5n4H61WC5bAhsFgMBgMy4HjOABg8zOjROE4DhLJm+kSdYRIjUYDuVz+RhUyGAwGg8EoOXieBwBIpdK33BJGeaGklIacIAiCVquFVqtFvXr1kJ+fXwLNYzAYDAaDURKoVCoAYEoeRomhUqnQvHlz/P777+B5/rUXKDKgQEUuk8mgVqsRFRWFatWqUfU5g8FgMBiM/x5BEGBnZ4eFCxciPz8fa9euRWZmJpufGa+NIAiwtrbGgQMHsHfv3jeuT2c7WxAEODk5oUqVKm+8T85gMBgMBuP10Wq1kEqlsLGxAcdxkMvlbH5mvBGCIEAikcDe3r5E6pPpf0AMLdlKh8FgMBiMtwcRFjmOo3Mym58ZJUFJvUNsOcNgMBgMBoPBKDZMiGQwGAwGg8FgFBsmRDIYDAaDwWAwig0TIhkMBoPBYDAYxYYJkQwGg8FgMBiMYsOESAaDwWAwGAxGsWFCJIPBYDAYDAaj2DAhksFgMBgMBoNRbJgQyWAwGAwGg8EoNkyIZDAYDAaDwWAUGyZEMhgMBoPBYDCKTYkKkYIglGR1jBLmTZ8Pe77lF/ZsLRtznw97jgwG479EVlIVCYIAjuNw5MgRJCYmQiYrsaoZJYBKpUKXLl3g7+//2nXExcXh2LFjsLa2LsGWMd4UjUYDHx8f9OjRg/bD4qJUKhEREVEKrWO8KTKZDMOGDYNCoTBZhjz3Cxcu4J9//oFcLv8PW8goCrVajcDAQLRr1+61+yiDYYmUmKTHcRwiIyPRq1cvSCQSaLXakqqaUQJIpVJwHAe1Wg2NRlMsIV+j0UAikaBx48bQarXgeb4UW8ooLlKpFDzP4+TJk+jQoUOxzuV5HlKpFP369cMff/wBjuOYNssC+fPPP7Fz505otVpIJMY3kFJSUtCqVSv6PjAsB5lMBo1GgwcPHqBmzZpvuzkMRolRourCjIwMAEDbtm3Rp08f5OXllWT1jNdAq9VCoVBg4cKFyM3NBfB6W14ajQYajQaOjo5YtGgRsrOzTU5mjP8GQRBgZ2eH3bt34+LFi1Aqla9VBwCkpqaC4ziEhYXBwcGBaUosAI7jkJycjG+++QY5OTkACu+7pH97e3vj448/xsuXL1kffctotVpUqlQJ69atw927d6FWq992kxiMEqVU9pxbtGiB6dOnM7W9BaBWq2FlZYXPP//8jScUjuOgUCjw8ccf03oZbw+ilYqNjcXFixffqC6JRAJBEDB58mR4eHgw4cNCuHTpEr755ptijaPu7u6YNm0a1TIz3h5k12fv3r24e/fu224Og1HilIoQSVbLbFvs7VOaz4A9X8ugNJ4De7Zvnzc1LRAEgT1HBoNRqpSKEElWzRzHMU3kW6Y07z97tm8XIiCUxnNgz9YyeJPnwMZfBoNR2rA9KwaDwWAwGAxGsWFCJIPBYDAYDAaj2LBgjoxygSmvR4lEAolEAo1GU+j5HMdBJpNBEASDslKplDmaMBgMBoOhBxMiGeWCojzFzfUk5zjOZNnCYvQxGAwGg1HRYDMio0zD8zxyc3Ph4OAAd3d3VKlShf7Y29vjww8/xPHjx8FxHJydneHk5ARXV1d4eHjAyckJVapUgZOTEw3SHR0dDRsbG1SrVg3Ozs5wdHTEzJkzcenSJRoGh8FgMBgMBtNEMso4RKjLzs5GmzZt4O7uTrMlaTQaNG3aFC4uLujbty8qV64MKysrnD9/Hv/++y/GjBkDpVIJjuPg7e0NoEAozc/Px4ABA6h368mTJ/F///d/2L59O0aNGsXinzIYDAaDASZEMsoBRKD7+OOPERISYrTMwYMHqfD3ySef4NatW9i6datB0HTy9+bNm2FjYwOJRAKO47B8+XKMHj0aw4YNoykkKyrmhBYyJmgb0+IWdR/1zymp+15S4ZHE7avI7wSDwaiYsO1sRrmBTOharZb+kIDL5H9xOf2yxuoQBAEqlQozZswAALqtXZExJ/6gsePkPPEPUKAxNmUmYKw8eS7Fhed5HeFRXB95/ubWQ8ob+y4MBoNRUWCaSEa5Rhz43pj2iXhv65cnnxNNJCmTn5//XzXd4iCORdu2bcPLly8xffp0A2cj8v+0adMwevRoNG3aFACQlpaGpUuXwsnJCUCBN33z5s3RtGlTeHl5UWFf/GyePXuGZcuW0XNUKhV69+6Nxo0bw8bGplhtFwQBUqkUycnJiI2NxZkzZ2BjY4POnTujbt26qFKlillmCqSetLQ0xMXF4eTJk1CpVGjWrBkCAwPh4+NTqkHgGQwGw5JgQiSj3CAWAF8XIgDwPE+1SlZWVjh79iwAICgoqMJ6aZN7s2vXLqSkpBgVInmeh0Qiwddff41mzZqhadOmEAQBGRkZWL9+PWQymYG2ztXVFevWrcOgQYN0BLn09HSDc1asWAFHR0dER0ejefPmZrc9Pj4ePXv2xJ07d3Q+X7hwIQRBQM+ePbF7924oFIpChb+nT59i6NChOHXqlNG0hC4uLtizZw86dOjAbGcZDEa5p+LNhIxyB5nI169fj/Hjx2PMmDEYP348Bg4ciMzMzNfa+szLy4NSqcSLFy8QFRWF9u3bY9asWcXWgFVkxAKUTFawXr158ybVOgqCgKdPn6Jnz54YPHgw1q9fryOYkXP+/fdfapKg0WjQoUMHtG7dGvn5+UVuQwuCgMzMTDRo0ACtWrXC8+fPda6v1WoRHx+PxMREdOjQARzHged5g3rIZ82bN4dMJsOjR48MzCVUKhWmTJmCjh074tatW0yAZDAY5R6miWSUeYjQce7cOfqZTCZDeno6NmzYAAcHB7MndKLx8vDwoFo1rVaLJUuWYOHChRVWC/k6GBPeNRoNDQxPwi59++23CAgIwMcff4yhQ4fC2dm50HP27dtHvezbt29faBs4jkNERASqVKmCiIgIaDQaHRtMjuNQp04dHD9+HK6urrh37x58fX0N6pFKpbh79y4ePXqExMREcBxn1JZz4cKF+Ouvv7Bz50588cUXTBvJYJRByAJRKpWafY5Go6EL34oEmw0ZZR4i1O3ZswcvXrzAixcvkJaWBkEQ4OrqWiyhjwwaR48eRXR0NC5cuACNRsMEyBJCJpPBysoKVlZWkMlkkEgkUKlUmD59OipXrozvv/8egK4AKj5HEAQ6UF+5csWgrDGcnJyQmpqK3NxcSCQSgzYAQEJCAgBAoVAYrU8QBMjlcgAFW9pSqVSnHisrK/puPHz4EHZ2dm9ymxiMMonY6Qwo6Dc8zxvV7ptTj74TZGFOeCWJRCIplgAJoEIKkICFaSK1Wi14ni905c5xnMHDJS8qYOgoARh6TBJHiTfREJAtLPJCG7uuufWQukg95ni/Mgwh74A4BaK5mWoI5Bm2bdsWNjY2kEql1HuXCZClAxl8Q0JCcOnSJQC6giHRHgIFfVelUgEAOnfuTD8zBc/zGDlyJMLDw+Hm5oavv/4a9evXR+XKlaHVapGRkYHjx49j8eLFmDlzJtzc3KDVao2GJ6pZsyZ69+6NGjVqYPXq1WjdujWqVq0KQRCQl5eHu3fvYs6cOXj27Bk++ugjpoVkVBjIuy6VSiEIAh4+fIisrCy4urrSnQVzHdeAV4v5p0+fIj09HTY2NvD29qZjRWmMx48ePQLP8/D09ERERATOnj2Lb7/9tshrCYKAnJwctGvXDsePH0eVKlVKtF2WjkUJkcUVxMhgT/IeE/S9I02tEF7nRRRf09hKhed5s1Yw+qFG9NvBPDyLD7nvxRUci4IJj6ULecfd3NywdetWANDRXMhkMprXnOM4DB06FD4+PmjcuHGh/Y1oLbRaLc6ePYtVq1Zh6tSpyMrK0rm2p6cndu3ahcGDB0OlUlG7TFIv0Yqo1Wr88ssvmDJlCubMmWPgJMRxHGrXro2nT59CLpdDo9EYjE0MRnmD9MurV6/iww8/xNWrVw12Evr27YsNGzbA1dW10Lo4jkNycjIGDRqEf/75R6d/SSQSODs7Y/v27ejevXuxFmnJycl4/PixQSQJuVyOxo0bAwDmzZuHnJwcHDhwAElJSbhx4wb9fmKePHmCpKQkKjADwMuXLxETE4NLly5RoZnYV3t4eKB69epmtbMsYhGjG3kZ1qxZg+XLl8PBwQGCIMDKykpH86BSqdCnTx9s3ryZ2h/ExcXh8OHDOHz4MFJSUjBo0CB88MEH8Pf3p4GkW7ZsiYyMDOTn59MsJsOGDcPAgQOL9SIKggCJRIKHDx9i3759uHjxIs6cOQMXFxf07NkTrVu3Rvfu3c1auXAch9TUVOzbtw/Xrl3DsWPHAABdu3ZFYGAgBg4cCBcXF6bNsBAEQYBGo8GJEyfQrl07KBSKt90ki6e4761EItEJoUQmkI4dOwIoGPRTU1OhUCjoAF/Ygk0svFlZWWHx4sVYvHgxgIIMRxKJxOA5ki1rMVKpVGfCaNq0KWrVqoWEhAS8fPkSHMfBwcEB4eHh2LVrFxQKBdNcMyoMHMfh999/R2hoKMaMGYMNGzagWrVqsLKyQl5eHpKTk7Fw4UK4ubkhNTUVzs7OJseG69evo3HjxujSpQtOnz4NFxcXyGQycByH9PR0HDp0CKGhoZg/fz6WLVtW5PxIjn/55ZcGjnsAULduXdy+fRsAYGNjg7y8PHqePqRPb9y4EUuXLqX28gSpVKqT7IIcnzlzJtauXVtuxwSLECIJ1atXR4sWLWBrawtra2ucPn0aWVlZ6NGjB5RKJTQaDWrVqgUANBYd2Z7y9fWFq6sr/vzzT6xevRoxMTFo0KABgAJ7J0dHRwQFBUGtViMjIwMjRozA2rVrcenSJbMeLikze/ZsrFmzBrVr14a3tzdatWoFjUaD6OhorFmzBu7u7jhz5gxq1qxZaD3r1q3D9OnTUatWLdSsWRPvvPMOAODu3bs4deoUpk2bhvDwcHz88cfl9uUrS3Ach8TERHTr1g0qlYo9EzMw13aJDPRPnz5FaGgoAOiYmwQEBMDGxgb29vYYOnQounbtWmh9ZLfA19cXWVlZdKAn5idicxFiTiK+nkqlQmhoKPbu3QsAGDlyJA4cOABra2twHIecnByo1Woav5KgVCqRn59Pt7ilUimsra2RmJj42uYuDIYlQ5Q5ffr0wbJlyzB//nzax8jvOnXq4Ny5c2jdujVGjhyJP/74w2AHgYynn3zyCUaPHo1t27YZmJV4eXmhadOm6Nq1K9q2bYtly5aB5/lCNf3k/GXLlmHevHlUsFMoFNi8eTMOHz6sU7Yw203Sf8PCwjBp0iTax52dnbFu3Tp88skn+Pzzz7FgwQKkpqZS0zwHBwed88sbFiFEkgc9dOhQDB06lL5goaGhiIuLw549e+jLSh5yaGgozp49ixs3bqBBgwY6K5LExERUqlSJ1p+fn4/OnTtjy5Yt9GV98uQJ3N3dqTBX2IqGTDJ79uzBmjVrcP36dTRs2FDnHPJ39+7dERISgtjYWKNbbRKJBHFxcZg+fToiIyPRtWtXo/VERkaiW7duCAkJQb169Ur2hpcjiAF0ly5dzN4yaNasGYYNG0bPF+Pm5obOnTvT1S/w6pkcOnQI/fr1g5WVVbEynJQXyP1wd3fH/fv3Cy0DAH5+fmbVS/rkiRMnMH/+fAC6hu0bNmxA7dq1aXlzTUZCQkKgVCrpsyLnWVlZwdraGoIg0MWpWJBUq9Vo1qwZreedd94Bz/PUTIJoSOVyOWxsbOhuCdnpIOUkEgndTWG7CYzyjFqtRp06dQAYZoYiwpavry/u3btXaD1KpRI1atQAoOvrALwaE8Rb4ub2K3t7e+rsRvry4cOHUbNmTRw8eJDOy0VttwOAnZ0drSslJQWjR4/GgQMHcP78efTo0QPXr19HeHg4PDw8zGpbWccihEiCOD0dmSTEwZ+JHeL+/fsRGRmJx48fw9XVlR4jWgVPT09IJBIdBwtxOjue5+Hm5oZBgwZhx44dmD59eqErGiJEHDhwAAMGDEDDhg2Rn59vYIcpkUjw5ZdfokGDBlCr1UbtHDmOQ2xsLLy9vdG1a1colUoDgUWj0SAkJATe3t6IjY1FvXr12La2CSQSCeRyOaKiooosq79YAQy3QwMCAhAdHa3zGbn3UVFRmDJlCr1uRYPcv379+mHHjh1QqVSQSCS0bxHP6Zs3bwKAweKOINZQkn63b98+pKWlYcKECUaz4IjTDBYlQJJzN23aZHBMq9Xi7t27+N///geZTIZWrVrBxcWl0PqmTZuGadOmGXyelpaGs2fPQq1Wo2HDhqhTp06FfC8YFRfSFxcuXIghQ4bA2toavXr10unz+fn5WLFiBXbs2IFTp04BMBw/Sfnp06ejf//+qFq1KiZOnAhra2taRhAEnD59GkOGDEGPHj10zisK/d0HoMC28dy5c3THAQCGDx9u9Hwyjt26dQuHDh1CWloaDh06hIcPH2LMmDFIS0uDjY0Nnjx5goULF6JWrVrw9PRE9+7d4ezsjF69eqFRo0blch63qBGPTBDG0tCJJ46pU6fi888/h5ubG13lkO0i/fP16xFrOKysrJCRkWFWuwAgODgY+/fvR0ZGBuRyObWVEl//q6++ovYg+tt5pB5vb28kJibixo0b1ANY/GNjY4MbN24gMTERXl5eOucyjFOcfMpib3hzjpF6MzIy0Lt372KHqygvkIVa69atAQAfffSRjsMLYfDgwXjvvfdgZ2dn9D6LB3SZTIb9+/dj0KBB2Lt3L+RyucG7rp+C0lzIghEAfvvtN3h4eEAqlaJu3boYMGAA+vbtCzc3N3Ach6CgIJrNRv9dEr8TDx8+RNu2bcFxHFxcXNCnTx8MGDAA9evXh1QqhZubG44cOQLAMNwJg1GeECt4lixZgk8//RT9+vWDVCqlfZzjONjY2GD16tXYv38/2rdvb3L85Hke/fr1w48//ojp06fD1tZWpx6pVIr27dujU6dOOHjwIN3uLk7IHyIv/Pnnn7h37x5ycnLoTsTYsWORk5Nj9DxynSpVqmDTpk24desWJk6ciOzsbHz33XeQy+W0HcuXL0dWVhYWL16MO3fu4P/+7//KtaOsRWkii0IqleLFixdITU3F2LFjqfbPHMhgrtFoqBAZExNDVx6FaTc4joNWq8XUqVMRGRmJqlWronfv3vDx8YGjoyNUKhWePn2K6OhoPH78GBcvXgRg3Ctcq9WiWbNmmDp1Kho1aoSQkBD4+vqiWrVqAAq0G3fv3kVkZCSmTp2KZs2aMfs7MyjO/Slse9HYMfJuXL169fUbWI6oVq0aduzYgeHDh+Ps2bPo0qULKleujCdPnuDIkSNUYwDAYEdh48aNcHR0hEQiQUpKCk6cOIH79+9j37596NevX4mu1Mk7cezYMfTo0QPLly/HuHHjUKVKFdoulUqFlJQUzJ49G3Xr1kV6ejqcnJx02kAmEKVSiXr16qFTp064d+8eqlevTjUlWq0Wz58/x/fff49evXohKioKXbp0KZHvwWBYIvoKnqVLl2Lp0qVIS0vDmTNn8PjxY/j7+6NZs2bULlBcXr8uqVQKnucxYsQITJw4EZGRkZBIJLh+/Trs7OzQv39/2NnZYfbs2a8dgYPsck6dOhUDBgyAQqFATk4O7OzszAov6ObmhuTkZINj5DuRMcfKykpnx6s8U6aESODVRF6tWrUijWqNIQgC0tLSsHjxYsTGxuLMmTNFTlzi+INHjx7FyZMnsW3bNkRHRyM2Nhb29vYIDg7GlClTMGnSJNjb29PwHuLwPaQelUqFDRs2IDs7G9HR0dBqtdi4cSOAAm1nfHw8Ro8ejQ0bNkClUtHOVdzgp4ySpaJmJBBDBKphw4bB398fGzZswIEDB/Dw4UN07NgRY8aMwdy5c2Fra6tzHlnEbdq0ia7833vvPUyePBkTJkyAnZ2dQT8kf7+uUEkWXzt37sSIESMwb948aDQanbzoHMfBw8MD+/fvR5UqVXDmzBn07t3bwE6ZTGZkDNBoNNBqtTre5JUrV8acOXNw8eJFHDhwAF26dCmX21eMig15p//++2/s2LGDBugnGnsrKyvY2tpCKpUiKSkJv/76KzQaDd1JkEgkyMvLw2effQZ3d3ekpaVh0aJFsLGxoYKcSqXC1q1bUaNGDRoua9myZeA4DitWrED16tVpfNb+/fujU6dORfY1IkDu2LEDsbGxOHfuHARBoGOVra0tMjMzTZ4fHx+Pr776CjY2NgYOeqbuE1k8K5VKTJs2jTr7lifK3IxIYrwVZ3BWKBTYvn07vvvuO/pZrVq1cPv2bQMPS30EQUBubi69Vm5uLlq3bk3DjojRarXIzs5GdnY2nWzlcjnVVpBcv1qtFjKZDGq1Gu3atcOuXbt0go0PGTIEarUaWq0WSqWSbuWxsDJvl4ouQBLIux0YGIht27YZHDfWN+vUqWNy20nsNS2mVq1ab5SdQuzdvWDBAqxdu5Zq/PXbGhUVhefPn9OUh8Y0kcT++tixYwYOcYTnz58jMjKSOggxGOWV69evY8uWLZDL5bQPF2a+QYRIqVSK/Px8TJkyBe7u7sjMzMTGjRthbW1NnXIUCgV2795tkP3G3t4eBw4coH1PrVbDx8cHnTp1KrStZEF569YtjBgxgtY9cOBAVK5cGTKZDMeOHcO7775rso6kpCRs2bJFp53F+b6hoaEm7cTLMmVuVmzSpAmAgm1fd3d3s87Jz89Hly5dEBYWhhcvXqBJkybw8vIyy14pOTkZnp6eBoGFi4JMPCRGFGl7fHy8Qdndu3cbrWPHjh30bxLPimkkGZYAGQTJooho60zZLRKHMTHEdsqUKYIgCDTW6+sMusQMJSwsDH///TdcXFzg7++PmjVr0u21tLQ03L9/Hw8ePMCqVavQsGFDk+YjXl5eWL9+PUJCQlCzZk0dM5SsrCw8evQIN2/eRJcuXfDpp58yMxRGuYT0xcmTJ2Py5MlGy4jHhKL6bmGLRSKoFTZO6LfLGBKJBHfu3EGDBg0wZcoUDB48GHfu3MHPP/+MqlWrQqPRIDMzk9p7G4NoOwtrpznftzwJkEAZEyJJSiKO4xAdHY0PPvjApPen+DNyXvv27emDNlcYc3V1xfHjx2mwYbKFLpfLaTxLnueRm5tLw3yQF4nnefj4+NC6fvzxR+Tm5gJ4NflaW1tDoVBQlXpeXh5yc3NpPaTjkJACbFKyLMhgWVEFe3PjH3IcV2w7Jo7jjAb/Lg7Ee/zIkSO4fv06fv/9d1y9ehV//fUX5HI5evbsib59+2Lw4ME0uL8pxzxBEDBt2jQMHToUu3fvxu3bt/Hrr78iPz8fbdq0wbBhw9C1a1c0adKkWPba5R0ybhbmWS/eodE/zxj67x2ZxMWLGUbpQhzXyI7b77//jpkzZyIpKYnOc0CBmUdgYCA2btwIf39/mhWKRCUhC0xSz507dzB58mRcunRJZ3vZ1tYWHh4e+PLLL9GnTx9ajylnWoJKpcLu3bsxatQofPTRR1i3bh14nqe7I0QmmDx5Mp48eWKyHv12/vPPP5g8eTLi4+N1smDZ29ujVq1a+Oabb9C6dWuz21lWKVNCJHkACxcuxKhRo9CzZ084OTkZxKUyZ0I3d9KXy+UGqvJ79+7hwoUL+PvvvxETE4PKlSujV69eqF+/Pjp37mxSXd2yZUud/7OysnD8+HGcPn2aZqwJCQlBQEAAOnfurGOMTChvqxhzycnJQVxcHAIDA42u9niex7Vr1+Dn5weFQoG8vDzcu3dPJ9eq2IaWvCe+vr64desW9aYnAwUReMh16tWrB57ncfPmTRp0WqPRwNfXF7a2tuVui6I8QRZ0jRo1QqNGjYyWEU8mhdWj1WpRpUoVTJ06FUBBDEt92G6BLkRgAEybIRkT/MTnmcLUuF+evWEtBfK8JBIJZsyYgfDwcMyePRutW7emNos8zyMpKQn79+9HQEAAfv75ZwMHOrFA+eeff6JDhw7o1asXtmzZgpo1a9KxmDit9u3blwqD5mj7Hz58iFGjRuHw4cPo1asXtY0kYz1R5iiVyiIda0g7t27digkTJmDs2LGYN28eatSoQQXiR48eITo6Gm3atMH//d//Yfr06eV6V6JMCZFkEF+0aBF+//131KhRAxcvXqSBv0mZqKgo+Pv7m73dbQ7kJejUqRNOnjwJV1dXuLi4wMbGBunp6VizZg0eP34MjUaDP//806RanNSzatUqzJ07F05OTnBxcaHB0Xfs2IHU1FQ8f/4cq1atwpw5c8r1C2guV65cQXBwMF68eAF7e3udCYPneWRlZaF58+Y4c+YM2rRpg5iYGLRu3Zo6JekjlUrh5OSExMRENGzYEFZWVjpxRQkkwD3xvg0MDNQpy3EcWrZsiSNHjtCcqQzLQ+wlLg7hQxYkRRnJE0g/FDsS6G/lMwHyFYIgICUlBUFBQWjRogV+/vlnHSGbCBPr1q3D999/j+vXr1MHtvj4eHTu3BlOTk46jlBZWVmYN28eJk6cCI4rSB/7yy+/YPfu3UhKSkKfPn0wcuTIchuXz5LgOA7Z2dkIDw9HbGws/P39Dcq8++67GDhwINatW4eZM2eiX79+OrGggVfvQVhYGD7++GOEh4cbnfd69eqF/v37o2nTpli1apVZOxW1a9fWiRNN6iS7I2J/hKJssEm758yZgx9++AEjR440eMcEQcD777+PLl26YOjQoTSZSXmlTDc3H+UAACAASURBVAmRwKtBPCoqCsOHD0ejRo3g4OCAKlWqQK1WIzMzEzk5Obh9+3aJPTjy4o0aNQpxcXF49uyZgcBAXqSlS5eiTZs2yMnJgY2NjUEnkEgk+PPPPzF37lwcP37cwKuM/H38+HF06dIFLVu2RHBwcIl8j7KMuRMBKdesWTMkJCRAKpXC1tYWERERmDt3LpKTk5GXlweZTEadlRISEiCTySCVSvHXX39h2LBhiI2NhbW1NY2DSFarQIFZQps2baBWq5GcnIxJkyahYcOGSE5ONst2h/H2KCkhTz/yAsM0KpUKSUlJSEpKws8//4z+/fsbTLxPnjyh+dDJuJ2fn4+kpCR4e3vrmELY29tTJ8MffvgBo0aNgpeXF7y9veHl5YXIyEisXbsWT58+LTRPM+PNEZvypKWlmSxDhP2ihD79JCHGIMfN7XviXYaS6q9SqRTPnz8vtEx6enqFWFBapBBJOn1QUBBNgaQ/EFSqVAlHjx5FXFwcTp06hSNHjsDPzw/vvfcegoODabgAAOjRowcaN25stB5zIIPa5cuXsWDBAjg7O9P8yeQ4eUE/++wzLFy4EElJSQbpCklnio+Ph5+fHzp16kTrEWtSJRIJOnfujPr16yM+Ph7BwcEVfkVdnEDiAGBtba3jaUu88D08PKBWq3W2tcXlSPYST09PGggeeJWPGQBcXFxQo0YNCIIAb29vXLx4Efb29jh58iQL68Jg6EEm7sGDB2PEiBHo06ePWQ4IpI/+9NNP1BZeDNmmjI6OpmZEQEE/jomJgUKhYEL+f4CtrS0+//xzBAcHY+TIkWjTpg2qV69OvacfPnyIn3/+GX/99RfNBmYqY014eDjeffddxMTEYPDgwfD09KSCZ0pKCs6fP49t27Zh/vz51Cu8KIpj4iaeF4xB2v3tt9+iX79+OH78OLp3744aNWpQTWZycjKioqJw6NAh6hxbnt9DixQiyQ1fsGAB/cxYDmqe51GvXj3Ur18fkyZNosf0nR327NlDj73O5E7aM3DgQEyePBl169ZF+/btDVZVz549w9ChQ1GpUiVqQydut1g4njBhAlatWoWPPvrIIKZeXl4eVq5cibi4OAQFBb12u8sjZKLQFyqNCZnGYg4WdUxsp1PUFicZJEkuVRYbkMEwhPSFuXPn4pdffsGSJUuwdOlSnYVZYfA8rxMIWhAK0mtu2LCBLriVSqWOtjIwMJD1wf8AIjh99tln6N69O2bPno0vvvgCDx48oONn7dq10bx5c6SkpMDd3d3o+Ej+b9myJVJTUzFnzhxs3LgRCQkJdD6vWbMmfHx8cP78ebz77rsl7ryWn5+vY/pkKtsW2a6+e/cuZsyYga+++goJCQn0WK1atVCvXj3ExcVViJTFFilEEsS2CsbQt3MytcUkPvY6EFvMhQsXgud5dO/eHSqVyqCMIAho0aIFzR1sbPUjCAIaNmyI3377jQZmNoarqyt+++23chlX6k0QC3nGPv8vEccJ02g0aNGixVtrC4Nh6dja2mL//v3o2bMnJk6ciOrVq5t1nn7oKLJgbN26NdasWQOe52kYqPKs8bFUyPzYrFkznDx5EgBoUH8rKysDO+LCxkdBEODs7Izt27cDKJi71Wq1jpaQfF5Sz5rUs3XrVvpZ8+bNYWNjQ7+fGDLX+/j44PDhwwAKFjokHJlYLqkIc7dFC5HmviRFqatL4mWTSCTQarU0R+i9e/dw+fJlxMbGwsHBAZ06dYKvry9cXFwKVbGTF7Bbt254/PgxHjx4gLi4OJw5cwYA0LZtW9SvX5/mzK4IL6E5kHu6ceNGnYGJHCNC/X+dq9ja2hrHjx9Hfn4+evbsyZ4Xg2ECpVKJHj16oF27dhgwYADOnTtnVhYo/V0B4m3fp08fuLu7IygoCIcOHYKHhweduJkw+d9C7rfYNEscFs9cAZ88Y/16ANB6SmuxQOzfAaBbt27o1q0bAOPyg347iXa8uN+3PGDRQqSlQVT3MpkMfn5+8PPz0zlOXqCi7C+IIKnVauHt7Q1vb2+EhITolOF53iy7oYoC2Wb47LPPTHpbi8uVBkRA/emnn/D3339DrVbjxo0bOHz4MNavX49q1aqVay88BuNNIH103759cHNzwx9//EEnamOQvrxu3To4ODjQiVmlUmHZsmXgeR737t3D2LFjUaNGDfTt2xfh4eHw9PRkES3eEiWtHfwv0Y87ChS9q8TeMSZEFhux1lMsMJAVkrneWKbq0T/GKIDYO6Wnp5sM8ePk5FTsgNbFgTynnTt30q2L0NBQXLlyBU2bNmVaSAbDDFxdXTF//ny8//77yMvLM1mOLNo2bNhAQ/yQ8FrLli2DVquFXC7Hzp07ERYWhlmzZsHLywtDhgzBjz/+CIBN8q9DYdrcokzMSrNN4ji/5DOgdMyHTNVZ2vFHy6Imvey01AIpTnw5c+vRr0us1mcUhHcw9VPaEME1MjISgiBApVLh0KFDNEMJEyAZjKLheR7Lli2Dk5MTFi9eDMC4GQpZEIqdK1QqFR0PiVmLVqtFw4YNERUVhXv37uHu3bto0KABPcYoHoVtxb6tbEAajUYnKwyAEpl7TUGEOX1K85qkfnPiVVoSTIj8jyEvp7EfcRkC29LWxcrKyuTPfwXZZlOr1TpOW+LMSQwGwzhkMRYREYElS5YgNzfXqGBC+pJGozG6YNTPz0zS2168eBH379/HDz/8UOYmZEvg9OnTmDlzJoBXwj35vWDBAkybNk3ns/+Co0ePokqVKvRdAIBt27bhjz/+AGB+CDhz0RcWSf1r167F5cuXS+WaAHD9+nUMGjSIOiuVBZgQ+R+TmpqKpKQkJCcn058HDx7g2bNntExKSgp1FJk0aRINUcQGQ8uATIL6Dj5SqZQJ/AyGGfA8j/feew/t2rXDmDFjYG9vb1CG9CWZTGZ0wUiER61WS3MaEwHDxcUFR48eBcDGzeKQnp6O9u3bY/z48QB0t61zcnKwbt06bN68GU+fPv1PxzpxO8gifu7cuVixYgWAkhNoybty4sQJ/PXXXzqfZ2dnY9asWdi8eXOJXpNAUrPevn0bs2bNKjOadIuziSRaubi4OLPtAnmeh4eHBypXrmy0vjt37hQ5kJAVbd26dU2WSU5ORnZ2dpEhCtRqNU3FSMoSL8QePXrQlYyYgQMHYu/evQCAzp0749dff0WdOnVw/vx5GnC9Im+ZFjdjjT7F8fQvbhniTBUUFIQvv/wSbdq0MetaDEZFRRzDt0aNGnBwcDB7vCfj4OLFi+Hn54eBAwdSWzmZTIbbt28jOTkZs2bNAsBCbpkDGcOGDx+OMWPGwM/Pjzonkbnxhx9+QN26daFQKLB582YsWrTIwIFJq9VCq9XS50F2Z4wtsLVaLQ0DJC5rbMtcLEyRuv/3v//RzEX67w5pBzmmr1Ukx6VSqc611Go15HI5OnfujC+++ALt2rWj9u/29va4f/8+3NzcDK5pLAWqPhqNhvo7iL24ST1SqRRarRanTp1CtWrVMGvWLHotS8bihEitVovc3FwEBASYzGcshkjrERER+OCDDwzqUiqVaNy4MdRqdZGeuz4+Prh3756Bh7U47eGJEycKrYO0WRAKkruTDkLq27t3r44xuUKhwMqVK5Gamko/s7W11bl+WTKyLS2Km7FGH3NXdOZcx5gjlFKpxIULF9C4cWPmGcoAADr5MIwjCALc3d2xcOFCLF68GHZ2dsU639bWFoMHD8bo0aPh5eUFiUSC58+f4/Hjx5gzZw5atmzJ+qKZSKVS/Pvvv4iMjERWVpbOHEiErRUrViA8PBxWVlYYMWIEFi1aZDAWEgGKCPrG8mObWxYofAFAApeLEac3NOUYJJFIIJVKjS5axNcjx8XOPN7e3iavaUyQFbeB1EO+r76TEIna4uTkhI4dO2L27Nn46aefLP4dtriWSaVS2NnZ4e7du4iLi8Pz58/x5MkT3Lt3D/fv36c/Dx8+RHZ2NhISEnD37l3069fPoC6JRAJbW1vExcUhISFB53zyc+/ePTx48AB79+5FTk6O0TaRB7hz506DdojrefLkCZYtW2a0DvJy+vr6IiAgAAEBAfD394ePjw9cXV11gpdrNBrqjci2Ygp45513aExO/c4qlUpRqVIlxMbGolmzZkbPHzRoEP79918AKDQuXVBQEGJjYw0EealUCoVCgdjYWJpFiCCRSHDw4EG0aNECDg4Or/sVGeUMJkAWYGNjg1q1ahkIicSOcdGiRRg8eDCCg4Pp50DBArtWrVo06LP4PAAICwvD/fv3sWXLFvj7+8Pb2xurV6/GnTt3sGrVqjLn5fq2IAvsb775Bh06dIC9vb2BMBUbG4vk5GR07twZnTp1wsuXL/H3339TrRqZp77++mvUrFkTHMchOjoaffv2ha+vL1auXIn09HSd6+7ZswdOTk7gOA5nzpzB4MGD4eXlhc8//xxPnjwxKUCSudHe3h6///47/Zw87+vXryMsLAze3t5o06YNtm3bBuBV2LzDhw9j5MiRqFq1KiZMmIAHDx7QOo4cOUJ3NFeuXInatWsjICAAQIGZGcdxiIuLM7h3+/btQ48ePeDu7o4ZM2bg4sWLVEAm7e3YsSPGjx8PjuOwdu1aeHh4oFu3brh27RoVIMmc8/nnn2PHjh0GSU0sEYvTRAIFk7KnpydkMhm6dOmC0NBQTJ8+XceJ4f79+3B1dUV2dnahK36O42jg7sJISkpCfn5+oWVcXV0LFeo47lWOZn3ISuP06dN4+fIl7XwKhQK3b9/WGSg5jjMZLb+iYmtrCz8/v0K3qws7XqlSJSrgFXZPFQqFyXqMXYM81ytXrlBNOHtm5QuyVXX06FFYW1vTiYPjOOTm5qJ9+/aoWrUqMjMz8b///Q/t2rWDRqNBlSpVkJCQQPOxV0Q4riAffUJCgtHjZAtv9+7d9DOyyPPy8jJ5HlAwgXt5ecHb2xsjRoygn5PnxQRI8yBz2rZt22jWFnEwbYlEgs8++wzdunWjAlbHjh2xYMEC/Pnnnzr3Oj09HY8ePcLWrVvxySefoG3btggICMCKFSuwcuVK3Lt3jwqOL168wIsXL7Bjxw5MmDABbdu2RWBgINavX4/ly5cjISGBmnIZa29OTg712CZtmDx5MjZt2oRGjRqhSZMm4Hkec+bMwejRoyGVSjFx4kT89NNPaNGiBTp06IDo6GhERETg0aNHcHZ2hpOTE959911ERUWhevXq1MsfeGWLSeQEQRCgVCoRFBSE+Ph4tGnTBkFBQTh58iTCw8MRFhaGlStX0vHi/v37cHBwQLdu3fDkyRO0bt0aV65cQZMmTRATE4PAwED6XZo3bw4AuHLlioHSwtKwSCESePUSV6pUSWcFQz4XD86mBguyQtq7dy8V2owhkUhw69Yto8bdptpVXEiMq1mzZhm1iRw0aJDO/76+vpDL5cjLy8PQoUNf65rljaLu/ZseN6ec/jEiRFatWhWDBg2q0HarAHD79m1cunQJcrm8SC26RCKBWq3GkCFDjGqNHj16hJMnT8La2tpkXRzHIS8vD82aNUODBg2MliGhmMhq31Q9+fn58PT0RHBwsM5z5HkeSqUSffr00TGxkUql4HkeJ06cQMeOHXHnzh3MnDkTly9fhlarRVZWVpkwjP8v0Gg0Jh3PJBIJnaD1dxkKy2gjTqcnjl9Y2mFYyhsSiQT5+fm0HwGvxjliu/fLL7/gyJEj9JxFixYhODgY2dnZ1C4ReOUxf+XKFWRlZdE5WKvVwtPTEzNnzkRERASAV0LZ0aNHkZOToxMj0c/PD5MmTdK5ZlHf4dtvv8WmTZtw4cIFtGzZ0uhYPGfOHGzatIm2VSqVwsHBAYcOHcL48ePRunVrHDt2DBzHYcSIEZg7dy5tv7Gt+REjRuDly5dIS0uDnZ0d/fzQoUN4//33MXDgQDRp0gRAgSLk119/xW+//Ybu3btTzWilSpXw7bff4ptvvqH3TyaTwcXFBbdv30ZQUJBFzysWK0SSAeK9997DmjVrsHTpUp0Vz40bN4w60oghTi5jx46FSqUq0ibS19f3jdtNjGUB48JITk4O1qxZg08++QR5eXl0YiMDKXlRhwwZgho1auDrr79mW9oWDHkfP/3007fcEsvgyJEjmD17dqECG4EIZIMHD9bp22TAPHfuHEaOHEmFNWMQm+ilS5cazTMvCAJevnyJwYMHF1oPoXfv3gZCpEwmg729vY4tM8/zsLOzg4ODA90FkclksLa2LvomVUCKSm1oyqmmqPMAlpzhTeE4DvHx8QAAZ2dnHYcaqVSK7777DgAQGhpK+0+7du1gb2+P9evX49NPP6W7hOQ5bNiwAWq1mvZpmUyGr776CuPGjaNCJCm7efNm6nRC2LBhA7p06WJWBjjCkiVLsGbNGrRs2RIajYZ+B/E2sY+PD71OZmYm8vPz4ejoiP3792P8+PE644M4vJH+ApfjOKhUKhw8eBAnT56EnZ0dnfs1Gg369u0Lf39/HDp0CE2bNgVQYCPdqlUrdO/eHWq1mi52Jk6ciDVr1uCbb77RkR+cnJxw8uRJjBo1yqKFSIvU94tDNYi9ocUxoki2AvK5qRU/0eYlJiaC53nwPE89s4h3GPlNOtKbDEj5+flULW3sofM8TycaGxsb2NjYwNbW1mDy+eKLL7BixQrUqlWLaTPKAEzQL2DWrFk6noqF/ZDA0RKJREdYIP1mwIAB4HmexuPU/yHOcp07dzYpHHIcB2dnZ2qbVFg7iHOGKUh/tbGxMSksimOIMhhlhczMTAAFCzsylpF5Z8uWLQgMDMTGjRsRHh6O8PBwbNy4EQEBAdi+fbtOWQKZm8UOLD4+PsjJyUFaWhqAV/3c0dGRCnqkLDFBS0xMNKv9GRkZePToETp27AigQGglzjXi+fzu3bvo0qULHReqV6+O5ORkelzf8Yf8Nja+X79+HQAQGBhIhV3x9QICAvD999/T8lqtFo6OjrROUo7cK32kUiltmyXPLxapieQ4jq7uPT09qXGpTCajN/7FixdwdXUFYBivzxjExtDYikL8uyQobAJRKBT47bffkJmZCZVKRa+rVqvxzjvvoE+fPjp1sK2ZsgF7RgVotVrk5+dDKpXC2toaiYmJqFGjBhUs5XI5pk+fjlu3biEqKgr5+fmFau8K69diLUdRCy1i3G7qmJWVlclg8SQO4aeffopKlSpRIdbOzs7AGY+8B8yphlHWkUqlSEhIwOXLlyGTyTBlyhSd4zKZDBqNBpcvX6Y2fIWhVCoBFGzrmlvWHBMzoEDZBJgWyLRaLfLy8tC4cWOEhITg6tWrcHNzg7u7O/z8/F5LSHv58iWAgvtg7Hye598oRE9ZmVMsUoj8559/0LJlS/qSAoXH/xMEAXPmzKEeeeKyZOJasGABbG1t6Tabfh5OiUSC7OxsfPTRR/D393+j9hfluBEZGYnIyEid8oIgYMiQIejTpw/y8vJ0vLOLcvhhFA7ZImCG9qWPRCKBXC6HVCqFq6sr8vLy6MKPaOkuX75M7XxNDfpAwUp/w4YNqFy5slEhURAE2Nra4tq1a2jbtm2h7TJ3W9QYWq0WKpUKa9euNbCJFE8eVlZWuHDhgs61mEaSYekIgoDGjRsDAJ49ewZHR0e6hbt48WKMGjUK27dv19nWJZq30NBQLFq0CL/99ptBveJdA5lMhkuXLsHLy8toKCf9slevXoWjoyNVFBWFp6cn7O3tcfHiRQQEBNDtbFK3TCbD1q1bkZubiwMHDtDdDeCVwGoKU05axOHl5s2bCAoKovMMsXW8ffs2hgwZYlb7xZBxKD09nWYHsuS5yyKFyNq1a2P79u2Qy+V0C1p/ZU+0BlZWVlCpVCa3kLVaLapWrYqIiAgqmOmnywIKJgSVSoWePXvC39//tW0Q8vLy6IsvPp9MLGfPnjV5LpmQfvzxR/j4+AAA1q9fj+rVqwOw7BeptHkTm5CcnBzI5XKDUCEljSXbrbwNFAoFLl++jPr16wN49X7HxcUVas9M7mNCQgK+++47Og4Yg9ggmaPdKAqNRoNGjRoZPUYE4adPnxpEYCDfi+d5+Pj4YPXq1cjNzcUHH3zAbPUYFo9Wq4WDgwNkMhnu3r2LOnXqUAFr586dOHfuHFW8iPshx3H44osv0KRJE2RlZcHBwYEeX7VqFcLCwqgA9+jRI8yePRsrV66k55P5eO7cudSLWSaTISMjA1OmTMGkSZOK9T3GjBmDqVOnomvXrvDw8NBpp/735TgO1tbWOHz4MBITE1GvXj2D+ohwaWw7myxgQ0JCMHLkSFy/fh22trZUJomKikJsbCyGDx9eLLtOcXufPXtmtF2WhsUJkcRuYNSoUcU6j7zk5GGJPapSUlJ0yiYnJ6NmzZpQKpUGEeuJ7ZT4oRdljE/Ok8lkePnyJZ3QyHni+oldVmZmJo0ZJfYslEqlsLGxodpHnucxZswY1K5du0ILKa/zvUnoJ2dnZ0ycOBHr168v1XtYUZ+NGHHMOLGRuPhzrVZLhcjCngfHcahZsyYePnxo9kD8Js9Ao9HQQbuwNpn6TKvVwt3dHf3794dKpcIHH3xQoRd+jLJFp06dsG3bNoSEhEAmk+Hw4cNwcXFBUFCQTuIMgkajQWBgIGrVqoW9e/di3LhxAAoWXOfOnYOXlxfeeecd5OTkIDIyEn369KGCpTgY+IMHD+Du7o5WrVohPz8ff/zxB4KDg7Fq1SqzQzVptVqsW7cOcXFxqFGjBoKDg+Hq6gqlUolz584hNTUVw4YNw8yZM1G/fn00bdoUcXFxaNq0KVq0aEF3DIiyZ9KkSViyZAlu376NlJQUnD59WmdXlOwe/vzzz2jZsiWcnZ0RHBwMBwcHxMfH49q1a/jxxx/h5eUFtVpNIxOYMz5JJBJcuXIFPM+jadOmFh+uyuKEyNe9WfoeevoR4fXLin/rH9M/z5zJSxy7iqyCZDKZwTXE6aAOHz6M6tWrm7THkMlkePjwId555x2EhoZWWCFSo9Hghx9+QL9+/ahhcnGwsrIqNY0QeSYXLlxAenp6hX5OQIGtcmZmJipXroyqVavi4cOHePbsGZRKJXieR+XKlaFWq6FWq5GSkgK1Wg0PD48it5v/C8NyshVlDLLQGzBggEG+9JcvX+KHH35gudMZZRIyNk6bNg29e/em41dERARmzpypU8bYeXPnzsVPP/2EcePG0T50+PBhfP3111i/fj1q1KiB3bt3G0RhIL93796Nbdu2Ye3atXB0dMS2bdswfPhwHaFLoVDQ+ZScZ21tTbfGSZSGY8eO4cCBA9ixYweio6Np+kISrzQxMRFLlizBsWPH8Mknn2DmzJno1KkT3e0j11u7di2qVq2KrVu3Yv78+QBemd6Q3xzHQaFQICYmBj/++CN27dqFy5cvY+zYsdi9ezfq16+vMxd4eHgY3aV0cnJCzZo1Abwa5yIiItC8eXNUqlTJLCXW28RihEjycs2dOxfHjx83K86cGIlEAmtra0RFRUEmkyEyMhKzZs2Co6OjgQqeqKlbt25tILRKpVJkZmZi9+7daNCgAdLT0xESEgJra+siH6ZUKsXt27dhZWWF2NhYZGZmYsKECZg8ebKBYEG+X1xcnEF2FOCVzUlgYKBFe2aVNoIg4OrVqxg3bhxCQkKgUCiMpqwiq0RjE7l+ykux7Q3RYJs6V3wOsXURX5vkWu3UqROGDRuG0NBQ+llFgvTfWbNmYdu2bXSlHhMTYzT80fvvv09tnmNjY43aIXMch6SkJLRv355q5sV2TgSJRAIbGxtERUW9ke2rOBSIfjs4joOnpyceP36sEy6MjBfp6emQSCTU0YZoNphNJKMsoNFoEBoaisqVK2PLli2YOHEiDh48WKTCBQDGjRuHsWPHAtBVAk2YMAFTp06l/xemURsxYgTGjBmjU1Z8za5du+rYIgOGtoxEkOzXr5/RDHZAge0kyWADFPR5cSpjUreNjQ2WLl2KpUuX0mNubm4GczFROo0dO5beA1Iv+b5kgXz69GmdthJmzZpF87xLpVJkZ2fj66+/RkxMjE6bLBWLESIJJKRHcVf0+ppIEiZIbEBLkEqlaNmyJQ3vI4aEDiEvC6nHnBhzarWa2jLm5eUZvbYxjAmJFVlwFCPWDMtkMhq6gaDfUcWfmYJspRg711icQWI/K45jSNomjiVoLNdqRYHcm2XLlmH69OmQSqU09pv+syDmIiQ2au3atY3W6eTkBD8/P+Tl5dFF1f3795Gbmws/Pz+6XV5ScQLVajXVSIghKS/F6dFMQSYKOzs7JCcnw93d/Y3bxWCUNmTM+vvvv+Hv74+BAwfSFLNFLcrIAlt/u5uYhpExoLB6SFkARq9JjouvQeZlcVliv0gUBeS6YmGYHCNKA9JG/Z1M8r3EO4pqtdpgh5EsmMX1iq9JMHYdcv/E+bdDQ0MxadIkBAYGWvxWNmBBQiS5UV9++SW+/PLLN66vW7du6Nat2xvX4+zsjGvXrr1xPfovFBFEzp8/b3S7led5VKtWDTk5ORa/EikNiNDQt29fnDt3DgDQvHlz5OfnY9y4cVi+fDktc/z4cXz22Wd49uwZFi5ciBEjRhSamWTFihXYvn074uPjsW/fPixfvhxarRbLly9Hjx49DATJ7OxsfPXVV/jmm2/QuXNnLF68mNrOXb58GV27dkVeXh527NiBEydOIDc3F8nJyYVm2yiPqNVqVKtWDdWqVSvWefr2zMRprl27drh16xYtw3Ec5s2bh5iYGERGRhoMsGRRKNZWmrMVRCYKlUpFdxzIpCh+D1QqFeRyOSIiIjB79mzY2NjQRaJ4MiMaTZlMhtOnTzNBklEmEAQBfn5++PLLL7F27Vp88cUXZilBxAKTuD8WZlJW3LLisH+EwlIdG9utEl9XfO3CMiLpC3Cve01zr3P9+nVYW1vj66+/LhMCJGBBQiSBSOWvg1jKF29Tvg7irc3CYswVhakVWH5+ZV8TUQAAIABJREFUPjiOQ7du3YrMxlERt8TIva9Xrx4yMjKQmppKM5IQ+xGpVIrhw4dj586d6Nq1K9zd3TF27FgcPHgQv/zyi8n3KDU1FU+ePMG8efNoHtWUlBT07NkTmzZtwsSJE6nQkpSUBC8vL/j6+qJDhw5ITExE/fr1cfbsWbRq1Qp2dnYICgrCqVOn4OzsjGbNmtGYZRXNPq6kYiMWNpmIHXT00R/Ai9J+iMsBBX3S29sbHMcZNUcg3y8nJwcZGRkYOHAgcnNzjS4QJRJJoe8gg2FpEI0a2VoFiu+jUJz3nfUNQxo1aoSoqKgyZVdvcUKkuQN/URS1sikOpaFNcnNzQ1paWqErF6JqJ7lJy8KqpKQg33XlypW4cuUKmjdvjoiICFSrVo12rkOHDmHXrl148uQJNVhOTU2Fq6srzpw5g9atW5usPysrCxKJBMnJydSLu2vXrggPD8fEiROpXWNISAgmTpyITZs2UW3ZokWL0L9/f6SkpKBu3bo4duwY7Ozs0LVrV2zevFlHO1UREAQBOTk5cHFxKdQ5xRjERvnDDz/Eli1bAAAdOnTAmTNnjPY7YmpiLFwTx3Fwc3PD/fv3AQDh4eGYMWMGbG1ti5ywyKLT19cXEokEubm5iI+PR506dYyW9fHxwe7du41qm8miszQduhiM0kA/WkhxzgOA2bNnUzvIohaVo0aNQv/+/c0qW1EQR5UpK1icEFlR4DiuyNzfhIokPBpDnMOU/C2TybBp0ybMmzcPrq6uVAhwcXFBgwYNcOLECZMBqMX2eyqVinbYTz/9FO3bt0d6ejqcnJyQkpKCf//9Fzdu3KACpCAIGDNmDD7//HNkZ2frDH7iEDYV7ZlZWVlR78ziahhUKhXatWtH/+/Vqxf8/PyMDqQkxqupQVbcpxo1aoSxY8dCoVCYZWMsdpzKy8szu38yGOWJNxm7bGxszHYqlMvlrxVtozxTUvbd/yVMiHyLlLWX5W0hDglBtvgBICYmBidOnMDy5csNzqlUqRIWL15caJ36Thni9HsSiYQ6Scjlch3BiGieEhIS0KBBA/q5MbugigAJ3Lt+/foSqW/GjBklUk/Hjh1pLt2SRCKRICMjA99//z2eP39u8Lz17TIZjIpCcYSgsigwMQxhQiSjzEG0SmlpaejTpw/atWtH86sDBVuenp6eZtVRGBkZGQCA1atX03zQQMHg9+LFCwOHiYruUf+635/Y/4gDk78J+gHOX8e2iNg1mjr2/PlzfPjhhyaFRP1UjwwGg1EeYUIkw+IRCwXi+GHBwcHw9/fHjBkzjAoLxNaxsDpNIQgCevTogalTp2L69OkAjGuOidOTuL6KuJ0NvL4jkf55JWVQbm6GCFPnmvpsypQpmDJlyhu1jcFgMMoDFW+mY5RZ8vLydOIxvv/++1i9ejUeP36sM+mnpaUhIyPjjVPgeXl5oWrVqvj4448hlUqpPR4AxMbGAnilNSO514GKt51d0SARE8z5qejaaQaDUb5hmkiGRUPyhzo7O+O9996Dn58fmjRpgiVLluCjjz7Crl27ULNmTXTu3BmVKlVCamoqTp8+jZs3b6JSpUoADDVS5mioiCB48OBBBAcH49ixY2jSpAny8/Nx48YNKBQK3Lx5k9YzZ84cLFiwAHl5ebh//z4uXrxY4eJEVhRKKoIEg8FglHXYSMiwaIjW8cyZM/Dz80N8fDxCQ0MBFAiY586dw6ZNm5CWloYLFy6gefPmuH79OgICAqgWyMvLC1WqVKF1Ojk5wcvLC4DutiVxrBEHz23Xrh1iY2PRvXt3HD9+HEqlEmFhYYiJiYEgCLCysoIgCAgLC8PKlStx6tQpdO/endbDYDAYDEZ5halJGGWC+vXr49dff9X5jGwxjx8/HuPHj6efE4cKYg8ZHx+vc978+fMxf/58ALoxQJs0aWKw/UiyOKxbtw7r1q2jn4ttM4mXYVhYGMLCwmgZJkQyGAwGozzDZjlGmYHneYPsQSRXqkajgUajocKdWMOo0Wh0vGS1Wq3RLEQkT7oYUhexgyMp+fQFRJLtgdnBMRgMBqOiwDSRjDKDqZhiRWUn0j9myqbNWH7Wos4x93wGg8FgMMobTBPJYDAYDAaDwSg2TIhkMBgMBoPBYBSbUtnOJjZhzDbs7VNaz4A4rzDeHqXZz9izffsQO9vXhfVRBoNR2pSKECn2Wi2p7BOM16O07j97tm8fcT8rrboZb5c3eQ6sjzIYjNKmVITI8+fPY8WKFcjLyyvzg5ip3LhiLDmUC8/zUCgU1HP5TRAEAXl5eVi5ciWys7NNOrqUBYx5cZc1BEGAQqHA1atX37gucj+++uorODg4vPX7UtS7WtafnTlwHIfk5GQAxdMMP3r0CKtWrUJ2drZFjU2Fac4tqZ0liVarhb29PVJSUt52UxiMUqFEhUg7OzsAwLlz5/D333+XZNWMN0Qmk72RECmVSiEIAl6+fIl58+aVYMsYbwoR5l9HqCeCmIODAwRBQHh4eIm2jVEymPNs5XI5ACApKQlz584t7SYxigGJEFFehWVGxaXEhEhBENC7d2/s2bMHubm5ZV5LoNVqoVAoMGXKFDx//lznGMdxND6hm5sbVqxYAY1GY9Hfmed5+Pr6AjAMeVMUUqkUHMfh7NmzuHXrVplO5afVaiGTyTB69Gh07doVI0aMgFKptOhnZw5yuRwdOnQo9nlEONm1axeOHj361kMUCYIApVKJKVOmQCKR6Cx8SL/jeR7vvvsupk2bVi6eXVFoNBqEhIQAKFyY9PT0xB9//IGUlBSLElbs7OyQmZmJ5ORknD9/HufOnUNOTg6Agmdqa2uLLVu2QKlUlundjcIQBAGOjo7w8fFhdqqMckWJSQNkIB80aFBJVflWEQQBHMfh3r17mD9/PjVyl8lkcHFxwdOnT2kA6yFDhpSpfLrFnXRJ+VatWqFVq1al0aT/BK1WC4lEgo4dO0Kr1eLZs2cYMmQIy3ENwN3dXSfrz9uC53lIpVIcOXIEf/zxB/1coVDA3t4eaWlpEAQB9vb2GDJkCC1f0SF9lAiblgDpbzNnzkRERITBYhwoGGcHDx6MYcOG0fLlnfK+6GFULMp/j31NOI4Dz/OYPXs2TWsHFGxHDB8+HEqlEg8fPsTt27chk8kqxOBXliHZbvz9/XHq1ClIpVLcvHnT4uzGKjqkn61atQrAK625lZUVli9fDpVKhcTERPz222865RmWB9G4nT17Fmq1GnXr1sWsWbPg6uoK4NWzGz58OAAmXDEYZRE2exaCRCKBlZUVZsyYAY1GAx8fH9ja2mL16tUICAiARqOBnZ2dTko9huWh1WqRm5uLgIAA/Pvvv9QpQ6lUIiYmhgmRFgbP82jYsCFatWoFjUaDgIAA5OTkYNy4cQgNDUXVqlUhk8lYv7NwiJB47tw5pKSk4Pbt20hOTsbTp0/p4sDR0RHt27e3eHMgBoNhHDZ7FgLZwp4zZw4AID09Hf/73//QuHFjxMfHo1atWtiwYQOkUinNqcywPLKystC4cWMkJCTAw8NDJ35edHQ0APO88Bn/DUSoX7JkCYACp59r167B2dkZx44dg4eHB6Kiomi/Y1gu4jGxQYMG2LNnDzw9PREWFgae5zFgwAAAzOGEwSirsJ5bBIIgwNXVFSNHjsTLly/x008/4dq1a1i4cCEA4KOPPkJwcDCeP39Ot8AZlgEJSdSwYUPcv38f3bt3xyeffPL/7N13fBTV+vjxz8zupodQA0mQEmroVUNTQeSCIj8VBFQEFKOACChihatgu3ApFlARUFFQQJArRUBQQEVEQEAESQhFegklgdTdmfn9wevMNyEJJBBINnnerxcvTXZ3ZnYzZ+bZ55zzHADuuusuAJYuXQpIEFmUqHbUsWNHoqKi+O233zhx4gQnT56kV69eJCUl0blzZ2JiYjBNE8uy5O9XBKlx5YcOHaJ27drs3LmT+vXr888///D9998D8OijjwISRArhraTlXoG6uL388ssATJo0CbiYJdm2bRtVq1blp59+okqVKixYsECyI0WIpmmcOHGCQ4cOce+997Js2TLmz58PwPDhwylfvjyxsbGcP39extYVMardjR49GrjY3jRNY+7cuXzzzTcEBQUxY8YMqlevzrZt2+xZ26JoUHVHN27cSN26dTl+/Dh33303f/31FwcPHmTLli2EhYXRqlUr+bsJ4cUkiMwD0zSpU6cOI0eOpHnz5sDFshsNGjRg3759xMTEkJqaygMPPEDPnj1xu92SHSkiqlWrRnJyMgsWLODChQts3LgRPz8/OnToQOPGjUlJSeGPP/6Q8VhFjKZpmKbJgw8+SOfOnWnRogVwsd3dd999/PPPP9x+++0cOXKEZs2a8eqrr+JwOOzMpCg8hmGg6zoLFiwgOjqa9PR0Bg8ebGf9Dx48iGmaPPTQQ4BkIYXwZtJ680Bd5MaPH2+PoXM6nfaYyY8//phVq1YREhLC119/TUREBBs3bpTsSBHh6+uLw+FgxYoVWJZFly5dABg4cCCAPVtUFC2q3S1fvpyJEycCF9udZVmEhISwZs0ae0zy2LFjadiwIceOHbMDUHHjeTweHA4H//nPf+zxjhMnTmTq1Kn2uPG2bduyc+dOewa+fIETwntJEJkPpmlmK36ssh8dO3bkyJEj3HXXXZw5c4ZWrVoxYsQIu2CyZEcKj7pJqbqD3bp1A6B79+5YlkXdunUL7djEleXW7gzDYMiQIezZs4eoqCj++usvqlSpwowZM+wvcNLubhxVb/WJJ56wV7X65ptvePbZZ+16nuqLd7169SQDKUQxIK04H3IrKK5Wr/Hz82PZsmV89tlnuFwuJk2aRN26ddm7d69MuilEKgBR3Wl33XWXHVx4PJ5COy6RN7m1O7UUZ5UqVdi1axfPP/88pmkSExND586duXDhAiCTpm4EFSR26tSJ6dOnExAQwKZNm7jvvvswTTPLmGP1pU4ykEJ4v2zLdJimiWEY0sCvgqZpuN1u+vXrx5133sndd9/Ntm3bqF27NhMmTGDEiBFSD60QOJ1Otm/fzsmTJ4mKiiI0NJSMjAw7MyLBvffLyMhg3LhxdO/ena5du9qlgObNm8fdd98t7e460jSN5ORkWrVqxa5duwgLC2Pjxo1UrlwZj8cjw3qugVolLXNZMrk/i2ulelALQpYgUtd1HA6HfXMV+acyJmFhYWzdupWpU6fy4osv8txzz7Fw4UIWL15M+fLlC/koSw514VUlRfr27QtcXAFFzvHiQ2W6WrZsyfHjxxk+fDjTpk2ja9eu9O3bl5kzZ6LruvzNr4O9e/fSpk0bTpw4QYcOHfjuu+/w8fFB07QSv5zotVLXL19fX9xuN4Dcn8U1UeeUn59fgZxHmmVZlhqzV6lSJcLCwuQkLSAej4cyZcqwe/duTp48CVy8GLRs2RKHw8HZs2flxnadWZaFy+Viz549nDt3jqpVq1K+fHnp4iymVFWEMmXK8Pvvv5OamgpAuXLlaNCgAaZpcu7cOQlurpFhGAQEBODn58evv/5qV6Ro2bKlHezIde3aWZaFw+HgyJEjmKZJlSpVJKsurollWei6TkJCgl2iUA1HuRqaZVmW2kBERAQzZ86kbNmycpIWENM00XUdHx8fpk+fztSpUwGIiopi5syZ+Pv7k5aWJnUKr6Nz587RuXNnAgIC+Omnn0hPT5fPu5gzDMMOFEeNGsXKlSsB6Ny5MxMmTCAlJcVumyJ/PB4PZcuWZdq0aUyePBmAQYMGMXjwYC5cuCBtqwBZlkVAQACTJ08mIyODl19+mfPnz8v9WVw1y7Lw8fFhxYoV/PDDD6xateqagsgsX8cdDgdNmjShYsWKcpIWMMuymDJlCg888AD33nsvf//9N926dePbb7+ldevW9uoOouAtXrwY0zS56667aNq0qQQPJYhlWaxYsYJp06YxZMgQVqxYwZEjR1i2bBk33XSTtLt8Um3nP//5jx1ATp48meHDh8tneR2ozzQiIoK0tDSioqLkcxbXRJ0/e/fuZe3atde8vSx3UimHcf2o2nW33norx44do1u3biQkJNCmTRuefvppuxtOulkLjvosFy5cCECnTp0A6WYrSdTEqSeffJL9+/fTsGFDduzYQWRkJB988IH9uFz7rkxNknn00Ud56aWX0HWdJUuWMHz4cJnscZ3J+SkKWkGdU5KOuYFU9svlcvHtt98ye/ZsAgICmDJlCrVr1yYuLk5mMhYgFUSuWLECwC43Ije7kkXNRAwPD+fPP//klVdewTAMnnrqKdq3b293D8oXuNyp4QF33HEHn332GQEBAWzevJmuXbtmK+EjhCg5JIi8wTIXSn744YfZv38/N998M3v37qVevXqMGzfOfly+fV4bp9PJ1q1bOXnyJE2aNKFs2bLymZZQqtakYRi88cYbbNmyhfDwcNauXUtERARLliyRL3A5UD0kiYmJ1K1blx9//JGbbrqJPXv20LRpU3uQvhCiZJLWX0hUoeRy5cqxceNGxo8fj2VZvPjii7Ro0YIzZ85IduQaqGBRLVOpurLlhleyqaxk48aNOXjwII8++igpKSl069aN3r17y7CSTDKPnapVqxaxsbG0aNGC+Ph4KlasKGPzhBASRBamzFnJkSNHEhsbS/Xq1dmyZQthYWHMmTNHlm+7SiqjNH/+fAB7HV+56QlVVsuyLD755BNWrFhBUFAQ8+bNIywsjM2bN5f4rKQa9vHzzz9Tv359zpw5w7333sumTZuklrAQwiZBZBGgsiM1atRg3759DB06FMMw6NOnD/fccw/p6el2hkTkjcPhICEhgR07dhASEkKzZs1KdFAgslKFsE3TpFOnThw/fpxOnTqRkJDALbfcwsiRI0vssBLDMNB1nc8//5xbb70Vt9vNs88+y6JFi66pFIgQoviRILKIUKsFeTwe3n33XX7++WfKlSvH0qVLiYiIYM2aNei6Lms955Gmafz6669kZGRwxx13SFF3kSM1vMHX15eVK1cyc+ZMnE4nEyZMoG7duhw4cKBELY3p8XhwOBy89tpr9OvXD4ApU6YwceJECSCFENlIEFnEqOxI69atOXr0KN27d+fcuXN07NiRmJgYnE4nhmFIVvIy1A1/7ty5AHTr1g2QrmyRM5WVNAyDxx57jIMHD9KkSRNiY2OpVasWkydPtr/gFeespJqB3bdvX8aMGYOmaSxfvpynnnpKAkghRI4kiCyC1ExSh8PBggULmD9/Pn5+fsyYMYObbrqJ3bt3l/gxW3mhCql269ZN6tiJK1KT3UJDQ9m6dStjx47FsiyeffZZ2rRpU6xLAalryW233cYXX3xBUFAQO3bsoHPnzlLCRwiRKwkiizA1VvKBBx7g8OHDtGrVisOHD9OgQQPeeOMNe8xWcbypXQuHw8GOHTs4duwYLVq0oEyZMoV9SMJLZJ7sNnr0aHbs2EHlypX59ddfCQ8P55tvvilWk90sy8KyLBITE6lXrx4//fQTVapUYc+ePdSrV09K+AghLkuuDkWcrutYlkXp0qX59ddfmTRpErquM3r0aJo3b86JEyckK5mJCqiXLFkCQPv27QHpyhb5o77A1atXjwMHDvD444+TlpZG9+7d6dmzJ263G8Crv8CpGdixsbHUrFmTuLg4WrVqRVxcHBUqVACk3QghLk+CSC+QOTvyzDPP8Pfff1O7dm3++OMPIiMj+eSTT0rsTNJLqfe/aNEiAB5++GFA6kOK/FPDSgCmT5/OypUrKV26NF9//TVVq1Zl/fr1XvsFTs3AXrt2LQ0aNODs2bM88MAD/Prrr1LCRwiRZ3Jn9SIqO1KzZk12797Ns88+S3p6OgMGDKBz586kp6cD3p0duRoqcFRdbydPnmTr1q1UqFCBevXqlbjPQxQs1e7uvPNODh06xF133cXJkydp164dQ4cOLdLDSnL6UqkmyXzyySe0b98ewzB4/vnnmT9/Ph6PB6fTWQhHKoTwRhJEehmVHTFNk4kTJ/Lrr79Svnx5Vq5cSXh4OKtWrco1O6LGPxUnatWMv/76i9TUVDRNY8OGDRiGQevWrXG5XMXuPYsbT2Uk/f39WbZsGZ9//jlOp5P333+fmjVrsn///hzbnWpzhRFg5rSijCrh8/LLLzNgwAAAPv74Y8aNG2fPzhZCiLySINJLqexIdHQ0R44coWfPniQmJvKvf/2Lxx57zA40M9+8kpKSOH/+fCEedcHTNI24uDgaNmzI0KFDAZg9ezYAvXv3Bv5vXKkQ1yLzsJJHHnmEQ4cO0axZM3tZwAkTJmQbVqJpGqdOnSqU+q4JCQmMHz+eCxcuANhZxoceeoi3334bTdNYuXIlMTExUsJHCHFVJIj0Yio74nA4mDdvHosWLcLPz49PP/2Um266ie3bt6Prut3NHR0dTYsWLQC8chxXTkzTpHz58gAsW7YMgF9++QW4OKnmwoULrFy50l7mTohrpUoBVahQgS1btvD2228DMHLkSFq1asXp06fRNA23201qaioVK1a0C3ffiHan9vHCCy/wwgsvsHr1avv3bdu25auvvqJ06dLs2LGDTp06SQkfIcRVkyDSy6nsiGma/L//9/84evQot956K0eOHKFZs2a8+uqruFwuAMqUKcOePXv46quvis1Nw7IsypYtS7169Th+/DhLly7l+PHjNGvWjIoVK9KyZUu6dOnC6tWrJZAUBSZzVvLFF19k586dVKtWjd9++40qVarw5Zdf2u2ufPnyzJ07l/j4+BvS7tR5vnjxYgBuv/12jh8/TlRUFOvXr6dGjRpSwkcIUSDk6lFMqBtBqVKlWLduHe+//z66rjN27FiaNGnC8ePHee211wB4/fXXAYrFEopqzNctt9wCXMy+ALRu3ZqmTZuye/dubr75Zjp27GiXNBGioKgvcHXq1GHfvn0MHjyY9PR0Hn74Ybp164a/vz9PPfUUgN3+rnc2Utd11q1bx+nTp7n77rtJTk6mdu3a7N+/n9atW7Nr1y67dqq0ByHEtZAgshjJnB0ZMmQIcXFx1KtXjx07dhAWFsaJEydo0qQJf//9Nz/++GOxGESvboJdu3YFIDY2FoCZM2eybds2WrduzcaNG+2SJkIUNLW6lGmaTJ06lR9//JEyZcqwZMkSQkJCaNGiBcHBwXz11VecOnXqugZuKkCdMWMGAMHBwdSpU4fz58/zwAMP2GWJpISPEKIgyF21GFI3tOrVq7Nz505Gjx4NQP/+/YmPjwfg3//+N+D9YyM1TcMwjCxFxXVdJzU1lTvuuIP169fbM1KFuJ5Uu7v99ts5ceIE3bt3Jykpie7du+PxeDBNk7feesue9HY9qPbw3Xffoes68+bNIzk5mVdffZX58+fz008/cfjw4euybyEKSlEslyVy5v2pKC91PddytizLXvrvjz/+4J577qFatWqMGDGCc+fO4XA4WL9+PZs3b6ZFixZe32BN06RMmTLUrVuX3bt3A3DPPfewePFiMjIycDqdXrd2tirPUtKyp6ocjjf9rRTTNHE6naxdu5bDhw/z2muvUbduXcaNG0dGRga6rjNt2jTGjh2Ln59fge9ftfu1a9dy9uxZO6gtU6YMixcvZsyYMTidTpxOJ6mpqXbb8FYlrW14s9ySFerLvSqFpf6m8rf1Ht57BfFy6enpnD9//rrcLA3DwMfHhw4dOnD69Olsk0lU0Pjmm28yZ84ckpKSvLrRmqZJ2bJlady4Mbt376ZDhw7MmzePo0ePeu1NUtM0e9Z5SaJpGklJSfaygt7EsixOnTpF+/btcTqdOY45Tk1N5d1332X48OEkJycXaPs3DIOyZcsydepU4P/a+dmzZ+2gskqVKgwcOJDExERSU1O9st1bllUi20Zhyc9kxNzO5yv1BGVkZJCWlkZISAgJCQk8/vjjLFiwIM/DLnKqiXo1rmbiZW77LYjPzRtolmVZqkbYTTfdxKZNm6hYsaJXv6mi7ujRo9SqVYvU1NTrOltYlSLRNM3u5pLZyUWfml3bp08fvvjiixJRw0+dp1988QV9+/b16pn0mdsdeP+QkaKoSZMmbN26tdivsKPOo9GjR5Oens748eMLLGDKC9M0+eeff/Dx8blse7Qsi8DAQMqWLZvtscOHD9OzZ0/Kli1rtwWHw0FycjJz5swhPDychQsX8tlnn7FkyRIOHDhA9erVSUtLw+Vy5emLzuHDhwkJCSE4OPiq3qf6TI8ePZrnRTksyyIgIIBy5crl+PiJEydIT0+/7PGr61x4ePgN+0Kn3uuCBQuYMWMGK1asuKZ7TPFtfUXY3r17SUlJITQ0lMqVK+PxeK7LReFK2RxN04rVBVgtPacmDngjy7IwDIO4uDg2bdpk/664Uxe2tWvXAlC9enVKlSrlde/dsqwrVj243uenx+PJ9XNTQyS8NQPpcDiIjY1l+/bt9u/E9WGaJqdPnyYyMjLXzHpm9957L4sWLbKvwYrb7SY2NpbQ0FA7keF0Otm9ezcpKSkA+Pj4ZBvikZd7ogp+WrduzejRo4mJibmqINvj8eByuWjQoAFJSUl5/uLXvXt3FixYkOU9q//v168fK1euvOzr1ed67NgxKlWqlK9jLiqKTwThRdQJ3r59e+bOnZut0YmSyzAMzp07R/ny5YtVgJ9Xqh1MmTKFLl26FPLRiKLE7Xbjcrnw9/f32i+J3kZdg9avX4/T6cw1ODNNkwoVKgDZxzNWr16d06dP2z+r7HHmJIZpmledsbcsi5SUFP755x/75/wGkZnfp8fjITAwEB8fH86ePZtlW5ZlERoaypkzZ3C73ZQuXRrIeQxnWloazzzzDI8//jhpaWk5HpP6nfrsvFHJu0sVAerbs/qvx+ORIFIAF4PI4lC/82qpNqFuKCX5sxBZqWyRuHFUkNOyZcvrXphejeHNa5tXKy3NnDmT06dP89FHH/HKK6/kuQs8M/U+o6KiAPjggw/4/fff+eyzz+wkj/rv7hYxAAAgAElEQVRv/fr1Wbx4sf3c3KSlpVGjRg27qH9xHSIoQWQhUieV0+mUIFIAxW+IwdVSmSb5LIQiXdc3nvoyFxYWdtkZ1klJSezYsYMaNWpke3zfvn3Ur1+f0qVL2wGiat9qyJVlWXZ3dl7avMpm7tixg8cff5x169bx1ltv0a1bN1atWmVX47ja++qZM2eIi4uzj02xLItdu3aRkZFxxW2ULl2aZ555hjFjxuR47mqaRnJyMgMHDmTixIle2yMpV2ghhBBCZKMSHXfeeWeuQbzD4SAlJYXAwMAcH/d4PKSlpXHnnXfa2UaHw8GFCxfsiTABAQHMmzePZcuWYRgGQUFB2SZNqfJfuq7jdDqZP38+vXr1YurUqdx66620a9eONm3aEBYWxs6dOylbtqz9mrwOf1AZw0qVKnHs2DH7d8r58+cBCAwMvGJ20e12ExUVRdOmTXPMrmqaRlpaGvXr17d/9kYSRAohhBAiG5UZ++yzz66Y2btSveFZs2Zl6xLPPHwlPDycXr16kZCQwFdffZUtqFL7/+GHHxg2bBi7du1i0aJF3HvvvZimiWVZ/Prrr/Tr149y5coxYMAARo8eTdWqVfP8ftU+b7vtNmJiYrIco67rHD9+HIAqVapcsZ5tcnIyAwYMYOjQoVcMOL01CwkSRAohhBDiMgzDuGI3c25BkAqecqpXvH//fipXrozb7aZdu3ZMmjSJAwcO8MUXX2TLHh47dozw8HA0TaN37978/vvvBAQEZJsZPWvWLF544QUGDBhAtWrV6NixI6tWrbpsoKYylh988AGAvarThx9+SEpKij2jPCEhAV3XmTx5MpZlERERQa9evXIMEnVdz/P4Tm8NIEGCSCGEEELkQI1ZDAwMvGxA5HK5cLvdWJZlz6JXVIbS19c3yzZUeZuDBw+iaRrp6elAzmNfLcsiLCyMTZs2UbduXYKCguztZg7A1ASYqKgoNmzYQHx8PCEhIdmel9P2MzIyGDlyJB6Pxx7/OXjw4Byf/+yzzwJwyy230KtXrxy7zEuVKsWIESMYMWJErvtVdSI/+OADBg0alOvzijIJIoUQQgiRhaZpBAUFMX78+CxBW050XbcDzkuDqdDQUN566y17Yo1hGFSpUoVmzZpRoUIFAgMD2bp1qx3kXa4UTosWLbLUA87tWOBi9rRGjRp5Gmuo6zr+/v6kpaVle2znzp00aNAgy5jMS2V+z2p/Tz75JJ07d75sRQE1LrJdu3ZXPMaiSoJIIYQQQtjUGENfX19GjhyZ59flNIO7TJkyvPTSS/bPmbt+VWDqdruvOOM587bVogxXorZ/pfGcKkC8dIEOXdftguhqhbnM21HVNHRdz/ae7rvvviseX+bjNAwjy3a8hQSRQgghhLBd7Ri93GZBq5VlBg0axIEDB1i+fHmWrF6rVq0ICwsDLnZzlypVyl6u90rbLgiapuFwOHLch+oO9/f3z9PygFdznDImUgghhBBeTWUJp06dysKFC/Hz88tXfU6Hw4FhGHz99dcEBgbaQaD6r6+vb45BVnh4OOHh4QBUrlyZxMTELMeUkZFBjx498pyBVNRYyy5duvDcc89lmwCjfl6yZAn//e9/CQ4OztJtr2kaSUlJADmuoKVKFc2aNYuqVaty7NgxHn74YQICAvJ1nLquc+HCBYYMGcIDDzzgVcXJJYgUQgghhO3UqVPExcUREBCQ7yDS4/HkOn7SMIw8BVeXZvxM0yQ+Pv6qgsjU1FSaN28O5L4kYmJiInFxcYSEhGQ7dk3TqFevHvHx8dle53Q6SUxMtCcFud1u4uLiCA4OztdqW7quk5SUxNmzZ/P8mqJCgkghhBBC2AHWa6+9xmuvvVbg23c6nZw/f56DBw/a5XJyYpomlStXJjQ0FE3T8Pf35++//77m/V+6P/V++/TpQ58+fa55+1WqVLHLA10Lb8lCggSRQgghhMjENM0rFg+/nNxqSpqmyfr166lWrVquGU5VpmfUqFG8/vrr9tjJ/GT2LqXGPObmWt+vw+Gwy/XkJ1N6KV3XvW58pASRQgghhLAVdDCjtjVmzBhGjhyJ0+nMNYjUNA3TNClVqlSW1+ZlTe1rOb6CeL9qtnZJUrLerRBCCCEKRUhIiB0cXok3demWZBJECiGEEOK6u7Rsj/B+3tX5LoQQQogSL3N3+KVFwq/kcjPIRf5IJlIIIYQQRUZuAd6lq8Uol1taMKdtqTGZOZXzkUxp/kgmUgghhBBFhprocuk/Zf/+/QwbNgyAY8eOoWkaycnJOU7Wyfx6tWxhVFQU06dPt5cZVI9LAJl/kokUQgghRJFw8OBBXnrpJUqVKmWXy3E4HJw/f54PPviAUqVKcejQId577z3efffdLOtjX+r48eO88soruFwuez1wl8vFyZMn+fzzz9m6dau9D8uyqFy5Mq+++mqWJRnF5UkQKYQQQogi4ezZs3z55ZeULl3arg2paRrnz5/nnXfeyXHpwtycP3+e2bNn4+/vj8fjwTAMAgICOHfuHFu3bmXHjh243W57ucaGDRvy6quv5muVnpJOgkhRqNS3Q9WVoH6+XGFYNZZFuh9ESZF5/Nbl2kZmeWlLQhQ1jRs3zhbExcfH07ZtW8qXLw+An59fnrZVo0YNe0lCFXx+//33dO7cmXLlyhEXF4ePj0+WrOOlSy6Ky5MgUhSYpKQkjh49ajdAtQpA5uKrfn5+3HTTTViWZQePcHGt1jNnzlCjRg37+arR79u3j4yMDBwOB5ZlUapUKSpVqpTlOUIURUeOHCElJYVatWrlmEHRNI2//vqLsLAwypUrB1ycOfr333/bN0rTNKlYsSKlS5e2XwdZu+8yv0bTNDweD5GRkfj4+EgbEV7Fsqwsq9O4XC5+/PFHTpw4we23345hGFy4cAEfH58rbkvdXy5cuMAPP/zAqFGjiI+P5+jRo6xYsQJ/f3/69OnDiBEjaNKkiXzpugrS6S8KzDfffENUVBR169aldu3a1K1bl3r16lG7dm37X/fu3YH/K7EwbNgwfH19CQ0NJSoqCpfLxZ133kliYqI9VuW+++4jKiqK2rVrU6dOHfuGu2LFCnupKSGKEpU1fPbZZ2nXrh1AtmXb1M8NGzbks88+Ay5mQRISEmjUqBH169e321GZMmUICgqiR48e9kSCzPs6efKk/ZpatWoRFRWFn58fHTt25Pz58zfiLQtRIDRNw+Vy4XK57CBw6dKlVKhQgeTkZFJSUkhPT7/sFyPLskhOTqZ58+aEh4dTqlQpHnnkEYYOHUpKSgqhoaH079+f8+fPU758eVq0aEFgYCDh4eHExMQAuc8QF1lJJlIUmO7du9OmTRt0XSckJIQXXniBOXPmcPjwYU6fPo3T6bSzKydPnqR+/fr4+fkxZ84coqKi8Pf358yZM4wcOZIffviB+++/395227ZtWbJkCadOnSI1NZVp06bRpUsXfvzxR9q3b19Yb1mIy3I4HHZm/XI3vczdaSoTMn/+fJo0aYJpmiQmJrJz505eeeUVIiIi+PXXX2nVqlW21yxcuJAGDRpgGAYHDhwgJiaG5s2bs2fPHpksILyOw+Hg8OHDLFmyhL///pu6desCsHnzZlq2bJnr6yzLIjAwkMGDB5OcnEzr1q1p0aIFlmWRnp6Ow+HA4/Hg4+PD5MmTmTBhAr/88gvr1q2zv/RJW8kbCSJFgQkODiY4ONi+WQUHB2MYBuXLlyckJMSeIWcYBo0aNeKOO+5g4cKFWW5ukZGRrFmzBriYqXE6nXZjL126NMHBwWiaxtSpU/nnn3+YPHky7du3lxukKJIMw7AzjpfLmOeU9QgPD6datWr2z40bN6ZPnz7079+f1q1bZ5l0kPk11atXB6BmzZps3ryZ8uXL89tvvxEdHV0g70mIG0GNTRw5ciQtWrSgbt26XLhwAT8/vytm19W9YMCAAVl+r2lajuMpHQ4Ht912G7fddlvBvYESQu66osDllnFRgd64ceNwuVwsXLgQt9ud7fmGYVz2hqueHx0dzZIlS+zXCFGcaZqG2+3m448/BmDixIn2OOGcZGRk2OMsv/32W+DygawQRYUam7hy5Urmzp3L7NmzAQgMDMTpdBIYGJjra03TtM/9wMBA/P39CQgIyNM/f39/NE3jkUcesbclLk8ykeKGUTewcePGMWHCBODiygGXBpE5DWxWr1UTcjRN48KFC9SrVw+QrgdR/GmahsPhQNd1+vTpw4YNG4CsgeGl7URp3rz5jT1YIa6SSjbEx8fTuXNnJk2aRJ06dQgODiY1NRXDMHA6nfj7++f4elU8vE+fPng8HrstqNf5+Pjg6+uLZVmkpqbidruzTKhxu93ccsst9rbE5UkQKW4YXdc5d+4cSUlJdOjQIV+zRtXz1H/dbjfTp0/npZdesrctRHGnzv/IyEgmTZoEZM2WZG5Pvr6+LF68GIB//etfMuRDFHmqYsfWrVtp1qwZTz31FM888wxwcZKaWiP7yJEjzJkzJ8dtaJqG0+nk3XffzfZYRkYGO3fuZPv27fj6+tKuXTvCw8NzbRcSRF6ZBJHihtE0jQMHDgAQEBCQ5yBS13X279/PpEmTSE5O5vjx43z55ZdERkby3HPPyc1ReIWCvCH5+vpy4cIFIGsNyU8++YTly5fj8XjYunUrixcvZubMmQQHB0tXtijS1Hn8/PPPM2nSJF588UXefvtte2zkmDFj7Of+/vvvfP7553nansPhYN68eQwePJgzZ85keY6q7nHzzTczd+5cqlevjmmasoZ2PkgQKW6o4OBgANLS0vLcSFUQ+dxzz2FZFo0aNeLtt99m4MCBWWpNClHU5HVljfxKSkqiatWq9j7UtqdPn47b7cbHx4e7776b7du306hRI6kVKYo81aXsdrtZtWoVHTt2tINA9bi63mdkZFxxe2r4x//+9z969+7Nhx9+yEMPPWRPzoSLY+mPHTvG8OHDqV27NklJSfj6+kpbyQcJIsUNY5omNWrUQNd19uzZQ/Xq1fN0c/N4PHTo0IEffvghy2oCkoEURZ2u65dd21dRxfOvRLWXrVu30rlzZ+DiGGLVJjZs2JBl/GPmMcRCFGXqWv7ee+8B2a/vmbODeTmf1esXL17MQw89xMCBA3G73WRkZNhfunRdp1KlSixYsACn08muXbtk/HA+yR1Y3DCq4Xbu3NnumlADnzPLaXa2uhG73W77cQkgRVGlbnK9evXi7NmzuT5HlSpp27ZtltflRHWzHT58mO+//55hw4Zle41aH9jtdku3nPBKmZfCvRbqvK9ZsyZff/01x48fx+Vy4evri5+fH35+frhcLpxOJ7Nnz8YwDCpVqiTDPvJJMpHihlHZksmTJ1OnTh3Gjx/P888/n63R5jQ7W11QXC6XLEslijx1A2vSpAkej4fp06cTExNjZwXVcqBvvfUWZcqUoWrVqhiGcdmAT9M0exWO/v37ExUVla0EidPpzJKZFMLb5Dd4zK3NqHb28ssvs3HjRsLCwqhZsybh4eEEBQVhWRanT5/mn3/+4cSJE3z++edERERIEJlPEkSK60bX9SzrZsPFbGTt2rWZMWMGjz/+OD/88AMjRowgMjISwzA4efIkL7zwAs8995y9Yo3cFIU3Mk2TqlWr8uKLL/LEE0+wd+9eevbsSUhICOfOneOLL77g3Xff5bvvvgMutpfMN7AjR46wd+9eAE6fPs23337LW2+9xV133cWnn35qD+1QGUeQ2aSiZAgICKB27dpZfpdTrWA1nOTbb79l586drF69mk2bNrF+/Xr8/Pzo1q0bderUoXv37oSEhMjQj6sgQaS4bkzTzLZesJoEMGDAAFq1akWPHj24++677ec5HA7uu+8+OnToYN8kDcOQYuLC66gb2Ntvv01oaCj//ve/GTdunP1YhQoV+Omnn2jXrp1981L17OBiV7gqaQJQr149Vq5cSadOnbJMOICs9SGFKO6aNm1KbGwsABUrVmTTpk0EBgbmGADquo5hGNSvX5/69evnuD3VhS4BZP5JECkKnGqIL7/8MoMHDwbIkpFU3QxRUVHs2rULj8fDgQMHCAoKyjLBQN0Qly5dar9eMpLCm6js4jPPPMMzzzzD6dOnSUhIoHr16vj4+GSb+KLrOuXLl2fnzp32LFHDMKhWrRoulwvIPuFAvebPP/+kVq1ahfI+hbiRMhcPdzqdtGjR4rLPzzzDWwWMcLHtqOLk4upIECmum9DQUEJDQ4Hs3Wyq0RqGga7r1KxZM0sWxuFw2K9RawEL4Y3UlybLsihbtizlypWz15BXN7HMnE6nvRKTkvn5Od3wHA4HDRs2vK7vQ4iiQhUUv5rXSSKiYEkQKQpV5gYtDVwUV5cGfvnNfEimRBQV6su+w+HINlzpUlcb7BVXpmnak+qKi+LzToQQQghx3ahuYBUEqSEWImeXltlSPQnFafylfL0VQgghxGWpwGfOnDm0bNmStWvX2plG1YvkcrnsoMnhcFClShWALBPEShI1XEUF3wsXLqRSpUr2WOfiQDKRQgghhLiiEydO8Mgjj3Do0CE8Hg+vvPIKgYGBuFwu1q1bx9KlSxk/fjxpaWk4nU57mduSNkzJNE0yMjL417/+xeTJk2nWrBmGYdC9e3c++OADhg4dynvvvVcsVl2TIFIIIYQQuVLBTr9+/XjssceoXLkyhmHwxhtv2M9xOBwsXbqUkSNH4na77a7uzKXaLMuyu8LVTGn1/zmNiVcF+FWZHvW8nGZUZ555felzMo9FzDw7G8hxcpt6TebqCbntU80SV/tQtVsTExP56aefSEtLy/KaL774goiICEaPHk358uXz9Xcoirw7BBZCCCHEdaXrOv/88w8rV65k7NixwMWgUQVZl1K/S0lJsYMoTdNIS0uzH1NBo8raqe1llpaWRnp6ur2/jIwMO6DN/NzMQajb7c5WxcDj8ZCammovp6jrur3PzMerqH04HA57/2qfmZ9rGAYpKSn2dtPT0+36yBkZGcDFrvz09HR7KdLw8HDatm3L66+/nqWr21tJECmEEEKIHKls4ezZs4mIiCAiIsKelZ3b2uzqNT179qRx48acO3eOypUrExwczIkTJ4CL9X/r1KmDv78/gYGBNG/enPj4eAB7+40aNaJXr16cPHmS6tWrExgYSNmyZXn11VezlM7SNI1Zs2ZRoUIFAgIC8PPz4/XXX7eP57///S+lSpVC0zR69uyJr68vAQEBREZG8t1332UJ5tSxv/LKK0RERBAUFERAQACtW7dm69atWZ773XffERISQlpaGh07diQoKIj58+fz3HPP2eNBb7/9dvz8/OjcubMd2D7++OO8//77QM4r7XgT6c4WQgghRI5UwDRnzhyGDh0K5H2Mo6ZpuFwu+vbty4QJEyhTpow9TnLIkCGMGDHCLrz/7LPPcscdd3Dw4MEshcRPnjxJ165dGTNmDFWqVGH58uWMHTuWGjVq0LdvXwC+//57+vfvz9SpU6lbty5Hjx7Ntq68w+Ggd+/elCpVim+//RaAWbNm0bVrV3755RfatGmDx+PB6XRy5513smbNGt577z3q1KlDYmIis2bNonnz5mzevJnmzZtn2fbw4cNp0aIFzz//PA0bNqRx48bcdttt9OzZk/fee4969eoREhICXAxS77//fvr378/hw4epXLnyVf5ligYJIoUQQghxWcePH6dq1ar5eo2maezevZslS5ZQs2bNLI/t37/fzmIahsHPP/9M2bJl2bdvn70fh8PBli1bOHz4MKGhoZimye23386aNWv46quv7CByypQp1KtXj8GDB9uBIPxfN7cq1t+lSxf69etnd0t36dKFjIwMhg0bxubNm3E6nXzyySesXr2aEydO2ItlGIbB/fffT/v27enfvz87duywfw/QuHFjBg8ebO+vYsWKVKxYEYCWLVsSHR1tv2/LsuxAujgEkdKdLYQQQohcJSUlcfbsWXtZ2rzWOLQsi8qVK1OzZs0shclVsHX48GGWL1/OJ598wksvvQRAfHy8nelMT0+nQ4cOVKxYMctM5jvvvJMVK1bY2+vXrx+7du1iy5YtOJ1Oe8JL5vqM6nkZGRlZJsk8/fTTbNmyxR67uWjRIh566CFCQ0PtIFE9d/z48fz111+kpKRk+X3v3r2z7O9yMmdI16xZY38e3kqCSCGEEELkKvNa0/l93aUFyVUWsGvXrtx000307t2bt956i02bNuW4jSut7pKRkUH37t15/fXXadGiBdWqVWPlypX2pJ1LXRroqazg6dOngYtjNdV4RvV+1WvKli0LXMwgZv59cHDwVQWCavKNN5MgUgghhBC58vHxAbBnKl8tlYEcNWoU27Zt4/jx4yQmJrJnzx7WrVsH5L+mpJroMmrUKBITE3n66afp0qULr7zySp6C3sTERADKlStn/zenyS6WZdnZ1AoVKuTrGHNTUNspTBJECiGEECJX/v7+VK5c2c7AXW33qwrCJkyYQM+ePalYsSIpKSk4nU62b98OkGP28Eo0TcPtduPr68uIESNYsGABb731Vra1vZOSktB1HbfbbWcBv/rqKxo0aICfnx8AAwYMYP78+fbxut1u3G43mqYxf/58KlWqRJkyZfJ1fJlrU2Zec/z222+3j99bSRAphBBCiMuqVq0aGzZsAHIOInMKhC4tAaQygx07drTHNPr7+3Pw4EFGjRoFZA0icyshlPl3TqeTw4cP43A47Izpzp07CQoKsrvCVWaxe/fuJCcn43Q68fHx4aOPPmLmzJlMnjzZ3t6wYcM4dOgQjz76aJblHH/++Wf+/e9/88EHH+Tl48LX1xeA2NhYdF23x1zquk5cXBwAkZGRXl/iR4JIIYQQQuRIBX5Dhw5l9uzZQM5BZG6/y/x71VU9atQo9u3bZ09wqVevHhMnTgSyjoG8UjFzuBhQPvbYYzgcDruQ+JtvvsncuXOzvYfevXsTEhKCw+HA4XAwaNAgpk2bRseOHe1thoeHs3nzZv73v//hcrns5956661MmTKF++67L0/Z0qCgIPr160f//v3RNI0uXbrYj82ePZtmzZrZ2U9vJiV+hBBCCJEjVSKna9eupKSksH79etq0aZPtea1ateLFF18E/i8QfPjhhzl16hSQdVJO69atOXnyJPPmzcPX15eePXuiaRpPP/00kZGR9vOGDRtmLw2YeXnCO+64w96HaZosXbqUjRs3smLFCtq1a0fr1q0pVapUliUL4WJXdefOnZk/fz6hoaF06dKFsmXL2s9TmjRpwvHjx/nzzz9ZsmQJzZo1o1OnTgQEBNir0wDUqVOHYcOGZVs6Ua1u8+mnn9K3b182bdrEkCFD7CUgp02bxvjx47N9Lt5IgkghhBBCXJa/vz+jRo3iySef5K+//rIDIiU6Otquh6gCvAcffNB+PHOwZFkWQUFBxMTEAP+3zOB7772XZZ+quDlk7cLu0KEDHTp0sLfrdDpp164d7dq1s7eX27jNChUq8Mwzz2R5Xk5d5i6Xi5YtW9KyZctcn1unTh3eeeedHPejgm91rOo9fvrpp8DFgPbSz9AbeXcILIQQQojrStd1DMPg9ddf5/Tp04wfPz7Hta7z2s2turFVd7UKMHPaXm7BYObfX/r6SzODl+47835zG3OZ121ebpJR5m3ous6RI0d47LHHWL16NZD/mehFkQSRQgghhLgsFTTu3r2b8PDwHJ9zpUkwOT2W+fFLn5vbxJr87is/283rNvP6eGZHjx5l3bp1NG3a1KsLjGcm3dmFSJ1EHo/H68dFiIJhGEa2shQlkZqxKJ+FUDweT7bC1eLG0jSN4OBg+vTpY//sDUqVKmXXZCyMY1b7bNmypZ0F9ZbP7kokiCwE6uRR/3U6nRJECuDiOXGlFRqKM9UmVDdPSf4sRFbFJXPj7bzpXqWuJ0OGDGHIkCFA4V9TikvwqMgVuhCoi+G6deto27atZFu8mGma2ep8qfE0+ekyycztduNyuby+ftjVUG1jxIgRjB07tkgFDiqDYFlWthIfqryIuH4sy7I/56spSC1KLnWdlkx2wZMgshBUrFgRgFOnTnH8+PFCPhpR1KiB3+o8KQlUsF27dm0Adu/eXaQCSFF0aJpml30pblkdcX2o+pGi4EkQWQhq167NiRMnSEtLk4ugl7IsC5fLxapVq+jXr1+W7EhoaCht2rQhOjqahg0b0rx5c1JTU/N1ETNNk0qVKgGF3/1yI6h2MHLkyCxlQQqbZVn4+voSHx/Ptm3b2LBhA5s3byY2NtYO9gH69+/PO++8w7lz5+RmdZ2ZpknZsmWBktE2hCjKpAUWAsuy7G/SwnuZpknv3r0ZMmQIycnJ9u9PnjzJokWL+PbbbzFNkxkzZjBgwADpgsujiIiIwj4Em6ZpxMbG0rZtW5xOZ5ahJ5Zl2b8bMWIEISEhBAcHF+LRlgyZg3chROGSILIQXO1YOVG0WJaFj48Pd911F/PmzbOzkQ8//DA9evRg9erVxMXF0bZtW8C7BqQXlqLWNkzTJDIykh49euDv70/Hjh05ePAgo0ePRtM0PB4PkZGRNGjQoFgUDvYWRekcEaIkkyBSiKukAoYnnniCefPmERwcTEZGBnPmzCEoKIiPPvrIXqVAeCdd1/Hx8WH+/PlomsasWbMYPXo0LpeLoKAgzp49y/333w9IYCOEKHnk7ibENTAMgw4dOlCmTBkSExNZunQpQUFBTJs2jejoaNLT0zEMQ7rfvJjH40HTNAYNGkT//v0B+Pzzz+2Cy08++WSWVTeEEKKkkKueENdAZZ969+4NwObNmzlx4gTVqlVj48aN1K1bl1OnTsk4Li9kWRaGYeB0OunUqRMfffQRPj4+rF+/nqZNm7Jz504aN25MzZo1ZbyrEKJEkiBSiGugsk8PP/wwAF9++SUBAQHs3r2b9u3bc/DgQapXr86mTZvQNE2CDS+hAv6kpCRq1arFqlWrCAsLY8+ePbRu3ZqJEycC0PGFB5MAACAASURBVKNHD0C6soUQJZMEkUJcI8MwaNOmDU2bNsXPzw+4GFT8+OOPPP7446SlpXHzzTczd+5cdF0vkUXEvYlpmmiaxq5du6hZsybx8fG0aNGC+Ph4uws7ODgYX19fnn76aRn3KoQoseTKJ8Q1UhNsNm/ezG+//QaAj48PHo+H6dOnM2HCBAAefPBBXnvtNRwOh6xSVEQZhoGu6yxbtoxGjRpx5swZevXqxaZNm/D19bXrEk6cOJHk5GRCQkIkgBRClFhy9ROiAGXurnY6nRiGwYgRI1i6dCm6rjNmzBgeeuihbDUHReFTJXreffddunbtimmajBo1irlz52Yr3yPDEoQQQoJIIQpMTktrORwOTNPk7rvvZtu2bYSEhPDVV19xyy23kJGRgWmaMuGmCPB4PDgcDgYOHMjw4cMBmD17Nq+//nqO9R91XZeakEKIEk+CSCGuM13XsSyLBg0aEB8fT+3atfn999+pVasWR44ckZnbhUjNwNZ1nQ4dOjBt2jT8/f357bffePjhhzFNU4JFIYTIhQSRQtwAavZumTJl2LVrF3fccQdHjx6lTp06bNy4UWZuFwIVuJ87d466deuyZs0aIiIiiI2N5ZZbbpEJM0IIcQVyhRTiBtE0DYfDgWVZrF69mkGDBpGamkp0dDRffPGFzNy+gdQM7D///JPIyEj27NlDdHQ0e/fuJSIiQoqHCyFEHuR4lZSuNSGuHzWp5oMPPuCdd94BoG/fvowaNcoeQymuH5VhXLp0KU2bNiUpKYkHH3yQDRs2oOt6kVu/W5RcOd2L5f4sipIsa2dblkVCQgIgxXOFuN48Hg8xMTGULl2amJgY3nzzTWJjY5kyZQoej8cuJyMKjsfjwc/Pj2nTpvHKK68AMHToUMaNG8eRI0fkMxdFimVZBAYGkpycTHp6OqmpqSQmJsr9WVw1y7Lw9fXl3LlzBfKFRLMsyzJNE8MwCAsLw+l0SjeOEDeIaZr4+vricDg4fPgwbrcbgIiICOBi2Rm5YRQM0zQJDAxk37599mcaERGBj48PFy5ckAk0okjSNI2kpCQsyyIkJEQykeKaaZrGhQsXaNSoET///HOOFSjyygkXI1OXy0VgYCC///47oaGhcuMS4gY7ffo0bdq0ITY2loCAADZs2EC5cuUK+7CKBdWF3a1bN/bt24efnx8//fQTLVq0wLIsud6JIkmdm2PHjiU5OZlx48bJ+SquiTp/Fi9ezIcffnjN28vSd2OaJh6PB4/HIyepEDdYSEgIf//9N507d+b777+nYsWK/Pjjj9x6662kp6dLpuwqqAkyCQkJREdHc+DAAW666SZ+//13KlWqJAXfRZGmEjzp6en2pDu5P4troc6p1NTUAslqZxsA5HA4cDqdcpIKUQg8Hg8rV65kyJAhTJ06ldtuu41PP/2U/v37X1OXQ0mkso/btm3jtttuIykpidatW7N69Wp8fX0BZAykKNLUTT7zQgZyfxbXQp1TBXUvkcGPQhQhaub2lClTmDJlCgCPPvooL774oqy5nQ+qgPiiRYvsGdh9+/Zl/fr1uFwuGfcthBAFQK6kQhQxas3tp556ipUrV6JpGuPGjaNHjx72YyJ3agnD8ePHc//99wPw+uuvM2vWLAzDkOyjEEIUEAkihSiCVL3ITp06sWvXLsqXL8/ChQtp1qwZKSkpsuZ2LlRppP79+/PCCy+gaRpff/01o0aNkuEAQghRwCSIFKKIUmtu16lTh71791K/fn22bt1KZGQkhw4dkqUSM1FrYGuaRtu2bZk1axYBAQH88ccf9OjRQ9bAFkKI60CCSCGKMDWAPjAwkB07dtClSxcSEhKoU6cO69aty7JUYkJCAitXrgSK76oW6n1t3LiR3bt3A9iB9IkTJ6hVqxbr16+nevXqxMfH06RJE1kDWwghrhO5sgpRxKk1t03T5LvvvmP48OGkp6dz++23M2PGDDvD9txzz9G5c2eWL1+OpmnFMpDUNI3jx48THR3NfffdZ/9uy5Yt1KpVi/3793PrrbcSGxtLaGiorIEthBDXkVxdhfASanb25MmT+eijjwCIiYlh5MiRAHTq1AnAntVd3Lq6VVA8b948ANq0aQPA119/TcuWLUlJSaF///6sW7fODrylFIoQQlw/EkQK4UXU7Ownn3yS1atX43K5mDBhAvfccw/33HMP/v7+rFmzhnPnzhW7AEp128+cOROAgQMH8p///IdevXoBMG7cOD799FOZgS2EEDeIBJFCeBnVtX3HHXewY8cOypUrx9KlS+natSvR0dGkpqayfPlye2JOceF0OomPj2fHjh1ERETw0Ucf8dJLLwEXs5HPP/+8Xd5HCCHE9SdBpBBeSE2oqVGjBgcPHqRdu3b89NNPrF27FsBeE7W4dGmrYHj+/PkAHDt2jJkzZxIeHk5cXBw9evQgIyNDMpBCCHED3bArrtS1yxtN0655IoAUo756BfH556Yg28CpU6cICwvDz8+PKlWq0LJlS5xOpz0T+eeffyYhIYGQkJAC2V9h83g8+Pr6Mn369Czd9M2aNaNfv35s376dlJQUli5dyt13351rG9B1vdh1818LuVYUPjknhTe7YUGkzJC8caQ7r2gqqDZgGAaVKlWif//+/PLLL5w6dYo5c+Zk28/8+fMZPHgwlmV5/U3K4XCwfft2Dhw4gMPhsIOfpUuXEhgYSMWKFalatSrR0dH288WVyeckhLgWNySITEhIYNCgQbjd7huxO6/ldrupUqUKEyZMIDAw8Kq2cfjwYYYMGVLAR1YyWJaF0+lk/Pjx1KhRo0C3q2kakyZN4vvvv8ff379AMpKlS5emUaNGxMfHk5GRQXp6uv2Yruu8+eabrFmzhoyMDK8PIjVN49ChQzidTjRNs9+PrutUrlyZyMhIwsPDefzxx3P8bDVNIyUlhSeeeILu3bsXi8D6Wh07doynnnqq2Ax58DbqnHzsscfo1auXnJPCK13XIFJ1rT377LMsWLDgeu6qWNB1HdM0iY6Opl+/fvl6rVrSLSYmhhUrVlynIywZdF3n66+/LtAi1fv372fEiBE4nU48Hk+BbPNKjh07ViLaXWxsLLGxsVd8ntPp5IcffsDj8eDxeHC5XDfg6Ioeda0YPHgw//vf/wr7cEo0l8vF999/T69evUr0OSm81w3JRKpvVx9++CHR0dEyDucSlmURHBzM+PHj+eSTTwrk2+hXX31FrVq1CuDoSgZd19myZQsxMTHX5UKusj0NGjRg4cKFJCQkSFfiDeLxeAgICKBZs2b4+PgU9uEUObNmzaJBgwYyZv0G8ng8BAcH06xZMwkchVe7IUGkuoHWrl2bJk2a3IhdehXVjVGpUiX752tVr149GjVqdM3bKUkuXLgAXN8ZzUFBQURGRlKlShWZSXyDuN1u+0YtgVJ2UVFRNGvWrLAPo0RR52RxXVlKlBwy20UIIYQQQuSbBJFCCCGEECLfJIgUQgghhBD5JkGkEEIIIYTINwkihRBCCCFEvkkQKYQQQggh8k2CSCGEEEIIkW8SRAohhBBCiHyTIFIIIYQQQuSbBJFCCCGEECLfJIgUQgghhBD5JkGkEEIIIYTINwkihRBCCCFEvkkQKYQQQohr4vF4MAyjyGwHwO12Y1lWgWzrUpZl4Xa7i8zxFBZnYR+AEEIIIYom0zTRNA1N04CLwZNlWeh61hyU05l7OHGlwElt+0rbUcGlw+G44nEDuFyuPD1Pye04Mx9f5t9dbvs5bUs9/9LHctq+t5BMpBBCCCGyUcFiUlISs2fPZtq0aSQkJKDruh0ImaYJwJ133snw4cPt12WmgtDc/sH/BYjt27dn1KhRWbatOByOXANIy7LweDz897//JTEx0d7v3r178/x+czs+9X62bdvGp59+CsDy5csJDQ3Ncuy5bUsF4n5+fvzxxx85vn9vJZlIIYQQQmRhmia6rhMTE8OMGTPsYGfgwIHce++9LFy4MEuwqDKUOW3jww8/5PTp09myl5qm4Xa7GTRoEOXKlct1O5ZloWkaL774Ijt37mTJkiX2tjPLyMjg+eefp3fv3oSEhOTr/W7fvp0FCxYQEBCQbf8vv/wyAD/++CMffvghjz766GW73OPi4pgzZw5+fn72+9E0DcMwmDZtGtWrV7cDZI/HQ8OGDbnvvvvs53kTCSKFEEIIYcscQC5btoyNGzdy8803A7B//37at2/PPffcw7Jly3C73ei6jmEY2TKHKhibOnUqO3fuzLYfh8OBYRjce++9VKhQASDH7Si6rmfr7vZ4PPa+cnrdlbrSVeC2ZcsW3njjDXRdt7fjcDjw8fGxg0in05mlW1/t+9Jt/fXXX4wdO9Z+f5nf78cff2z/rLKcPXr08NogUrqzhRBCCGHTNI2TJ08yY8YMNmzYwM0334zb7cbtdlO1alViY2P57rvv2LZt22XHMCrnzp1j8eLFdqCnsnMejwfLsmjUqFGeJtOYppklcFOTW9S/S4O6vL5XgMceewzLsuwg1rIsvv32WyIjI+3n+vr65hrgqm1ZlmUHhB6Px97Wp59+imEYdOnSJdt+vv766xwzq97A+45YCCFuIMMwisyMStM0C2zmqhC5UZk5gKpVq+J2u3G5XLhcLgzDwNfXl9DQUHbu3JnnzFlycjKGYZCWlmb/S09Pv+oZy4ZhkJiYSEBAACEhIQQGBtpjFC8X6OXGNM0sASnAokWLOHv2LP369aNv375Mnz4df3//y24n8zjHtLQ0Vq1aRaNGjRg2bBhJSUmULl0aPz8/pk6dytmzZ+3XeWMACV7ena2i+LzM1Mpvmlh9Y8rLtvNzHMWVfL4lT3H/uxiGga7rRer9qRtNbjNkvZ0KkHVdt8eQaZp23d9ncT+X80Ndy8+dO5fj45mv83kN1izLIiQkBIfDgZ+fX7Z7hcrYORyOPAeUuq4TGBjIkiVLcLlcmKaJaZp07dr1qrqEdV23zzN1Hm7evJkLFy6wfPlyNE0jOTmZWrVqXXY7+/bto2/fvpw/f55du3bh6+vLhAkTGDhwIKZp8uWXX/LXX38RExPDsGHDqF69OiEhIQwaNIiYmBiv69L2miAyNTWVffv22SegaZpERETg7++f64eufh8fH09wcDAVK1bMcdtut5s9e/bg6+trX7jCwsIICgrKtm3DMIiNjbWf6/F4qFatGj4+Pl73x79W6v3u27cPf39/wsLCcnyex+MhLi4uy+dbsWJFSpUqleUzUxePv//+O8vnW6VKFXuAckn6fAtDSkoKR44csS/omqZRo0YNTNNk9+7dJeLvknk81J9//snQoUP597//TYcOHQrtvaqurjFjxhAXF8f7779P2bJl7UC3KH/+6jM7fPgwaWlpeDwenE4nISEh9jg41fZVEHfkyBHcbjfVqlXLtp24uDgAateunadrv8fjoW7duvY+LMvKdi5XrVoVX1/fYncuXw31/m+99VYAzp8/T0BAQJaxhwBnz56levXqedpmqVKlGDFiBOPGjbNfn5KSQkxMDE888YR9rcm8/ysdnyqx07VrV/u4MjIy8rSNK3E4HPz2229s376dxMREgoKC0HWdjz/+mPHjx+f6OsMwiIyMpEmTJlSqVInWrVvb14309HQcDgdut5uoqCg2bNjAiRMnWLJkCWvXrqV58+YFcuw3mtcEkVu2bKFdu3ZZBqpqmkb79u358ssvcw0Qz58/T506/5+98w6vomj78L2nhZIEAhgggCABDdIM4gsCoYgIAqIIghTpqMCroiLRlyKKQhApCkjvUkRAUEBFpRdFqlJChxCqdEg7bb4/+GY8JzkJCTVl7us6F2HL7Ozs7uxvn3nmeR4hIiKCNWvW4HK5vL42hRCcOHGC8uXLY7FYvHwqnnjiCebPn698IlwuF5cvX6Z8+fJYrVZl8jaZTNSuXZvvvvuO/Pnz360myHTIh7ZixYo8+uij/Pnnnyna1+12c+HChRRtBlC5cmXmzZtHuXLlgBvt63A4fLZvtWrVWLp0qXrpaO4Oq1at4rnnnsNsNmMymdRQ07Vr17L9dfG0jl+5coWePXsyd+5cAJYtW5YpROSCBQvYu3cvixcv5sMPP+Tdd99VfWJmtaK5XC4sFgvPPfccO3fuVMu7d+/OpEmT1LlduXKFV155hZ9++gmHw6GGBV977TXGjRuH3W7Hz8+PihUrYrfb2b17N+XLl/d5TMMwOHXqFI8++igOh0O5AUhrkq97uWbNmixZsoQCBQrck3bJzLhcLooVK0a1atVo3rw5S5cuJW/evEoAtmzZkpIlS1KrVi011J0Wst0vX76syoiLi+P69esAPProo0qobd26lbp16/osx2KxcPXqVY4ePcq5c+e4fv26svg1atSISpUq3fa5y4+ct956ixYtWhAYGMi1a9cICAjg+vXraT7/8hkcO3ZsivP38/NT5yApXLgw3bp1o1u3brdd7/tFlhkLkTfp5s2biY6O5sCBA/z222/s2rWLZ599FvCO1SQ7+9mzZ1OuXDm2bNlCbGysz45WLlu2bBkHDx7kwIEDbN68mYsXL1KnTh2vsuW2s2fP5vDhw+zfv5+ff/6Z2NhYKleuDNyaP0ZWQw6lLVy4kJCQEKKjo9m/f3+a7Tt//nwOHTrEgQMH2LJlC06nk4iICC8/LzmcMH78eI4ePcr+/fv59ddflYiRLwTN3SEiIoKTJ09iGAZdunThzJkzOJ1O1QFOmDDB67pcvXqVChUqZPnr4vlhOmzYMIoUKcLcuXPJnz8/U6ZMYeTIkfd1+Fi+eHbs2MHbb7+N0+nkgw8+oHjx4qxYsQKz2ayG8zIbnv3r/PnzAfjzzz/56KOPgBvP/Lp168ifPz/Hjh1j2bJl7N27l71797JmzRpWrFjBqVOnvF7efn5+aparr3AwANOmTfP5wpf1mTp1KkeOHGH//v2sXLmSf/75h4oVK6Y5OzinIIeVf/75Z/755x8CAgJ46KGHKFu2LDabjZ07d7J582Ygfb58V65cYcKECezcuZOdO3eya9cuDh06xFtvvQWAv78/efPmxd/fP82PIbPZzNq1awkNDaVGjRo0atSI7t27M3r0aGJiYm77vN1uNxaLhRkzZrBlyxZ1j/n7+6t/0xpuj4mJoVixYjz88MOEhoZSpkwZypYtm+avTJkylClThsKFCzNx4kTg5jPKMxNZxhIpG7V06dIEBQVhMpkoW7YsO3bs4MEHH2Tr1q1UrVpVbS+/fv/3v/+xcOFCRowYwccff8ykSZNStSaUKFGCMmXKAFCmTBl27txJQEAAy5Yto2nTpl4iNSQkRFkoy5Yty9atW8mfPz9r166lTp062X5YRFps+vbty5gxY1iwYAEDBgxgwYIFqc4yK1asGKGhoWr/7du34+fnxzfffEObNm28rJRFihRRQ1lly5blzz//JHfu3Pz88880bdo027fv/UI6qTudTuUCIq1CkPK6bN26ldy5c7Ny5UqaNGmSJa+L9IVbuXIlnTt3VoKlVKlSjBw5kgIFCrBs2bJMYelzuVy0bNmS0qVLExkZyfnz52nSpAlPPvkks2bNokyZMpnuGsi6FCtWjGLFigE3+teAgAAATpw4QZ06dfjoo48YOHCgV/8RFhbGsWPHAFT/YLfb6dixI5MmTWLUqFEpfBll3zRkyBAiIyMZPHiwz/YICQlRw7HyXvb392fVqlU0aNAg07XjvcYwDAICAti1axe//fYbs2bN4urVq4wZM4ann346XbOyPcuSVken06naVV5nz1GsiIiIFLOs5fbvvPMOXbp0wWQyUaBAAfLmzau2EUIQHx9/y+cr77utW7fSuXNnFi5cSIECBfD39ycoKAin08n169eVRvCF1WolLCyMPHnyKL0gXU5sNpsS53a7HafTqVxRpKU2K1rBs4yI9IXdbled0v79+71EpMVi4a+//uLKlSvUq1ePc+fO0alTJzV8crMXgsPhUF8fu3btUsIltW3z5cuHzWZj0aJFynqZnTGbzRw+fJhTp07RoEED/Pz8UgjttHC5XNhsNkwmE9u3b6dNmzapbut0OsmVKxcFCxbkm2++0SIyk5D8umRFESlfHHXr1mXt2rVYLBYVJ+7YsWO8+OKL97uKN8VsNrNlyxbKli1LZGQkUVFRWSJciOyHX3vtNRo3bszAgQNxOBxe4iS1CXjh4eHs3LmT0aNH884773jdd2azmYULF2KxWHj00UfTVRen00nevHkJCAjg22+/1SLy/5GZaerXr0/9+vXVcpmBJSN4+qRKXC6X+slJbGlZ4QIDAwkMDFTlyFEsKd6mTp3KP//8o7ZJfry06mYymdiwYQMRERF8/PHHtGjRAofDwdNPP03evHkxDIO9e/emmS+7aNGi/Pbbbz7XHT16lJiYGPz9/alSpUqa7ZeV7rssJyLl9HuTyYTVauXUqVMAPPXUU2ob+UXz8ccf07RpU8xmM23btqVdu3YsWrSIFi1a+Czb6XSquFVms1l91TRr1gzwfWE9o+u7XC7lHJudkS+oIUOGULt2bQICAmjSpAkAs2bNonPnzj47YDkDT/omyWEjeT1u1r52u10FvM1KD1l2wvNFIIf87HY7TzzxBJD1rosUjHPmzOG1115j+fLlSrCEh4fToEEDLl68mGnSk8kXZt68eZkzZw5nz55V16Jv3770798/S83aljNfZTiZ5L51hmH4/OA3mUz07t2b//3vf7zzzjtq5En2/UOHDqVnz57K2ukLX/eyw+FQxojMcL0zA/v27aNatWpcu3YNu92O1Wr1eX/dzIAgQ+NYrdYUbStDB0Ha7e65zvPvK1eucODAAY4cOUKtWrVUWZ06dUpX5pqEhAT69evH6NGjGTp0KO+//z5utxur1cqSJUvU+2zixIkMHz48zbJkSDCLxcLXX39Nz549uXbtmtc2st/p1asXI0aMUBOLMvskOV9kORFptVqxWCyYzWbOnj1LtWrV6NGjB0WLFlXiRs64W7RoEWvWrFH7tm/fnrFjx9KiRQufX+oWi0V9BV+9epWIiAief/55KlasmKaPjJ+fH7/++isulytHWclmz57N4sWL1f979erFuHHj6Ny5s0/rgbTymEwm4uPjeeqpp3j66aepXr16mu1rs9nYvHkz165do3nz5oDu4O8Xyf3SNm3alOWvi8lkomjRoixbtoyNGzfSoUMHjhw5wr59+4iIiODLL7+8aWy4e8mZM2d45ZVXuHDhAkII6taty9dff01ISEiW6XuEEFitVrZv3w5AlSpV1ISG9HD58mXeeOMNunTpwvr164mIiABuWCGjo6PZvn07mzZt4ttvv021jOT38tq1a0lMTKRZs2ZZph3vBW63m4SEBACvWdQS+R5t3bp1qhE68ufPr4wxyZETw44ePeo1Gz89yI+GqKgoChUqRN++fenQoYP6QJB5rtNCCIHNZmPbtm0qM4+nPpC+xhaLhaSkpJveF1KDjBo1infeeYfx48fz3HPPERwcrITixYsX2bNnDx06dGDLli1s2bJFGVeyGllGREoficKFC6uvjFKlSjF48GAlWqTp3WQyMWfOHPz8/IiIiCApKQk/Pz969erFk08+yZkzZyhSpIgqW5ZXuXJldZwiRYoQGRlJ7969VdmeQYfnzp3Lxo0bcTgc/PXXXyxcuJAxY8ZQsGDBLOUUm1Fk+y5duhSHw0GDBg1ISkrCarWqWZRHjx71Cv0g2zciIkINBRQqVIg+ffoQGRmp2lfGagNYtGgRu3fvxuFwsGfPHubPn8+QIUMoXrx4lhiqy27I67Jw4UL+/vtvHA4Hu3fv5ptvvmHo0KFZ/rrI5/vJJ5/k8OHDjBs3jvfee4+xY8fy5ZdfsnTpUpo1a3bfJlzIl9gHH3xAVFQUAMWLF2fGjBnUr19fWfWzWvtv2bJF/Z2RflN+oPbu3ZuRI0eqvsVqtTJgwABatWqlJoMlR17D+fPns3XrVhwOB3///TcLFizg888/p0iRItm6D78VZB+e2jC2EIJevXqp/ycP19OjRw/Onz/v8/40mUw4nU7y5MmT7vrIjC8Wi4UVK1YQFRXFmTNn6NChA02bNmXZsmXK9/JmrmuGYWCxWFi3bp3P+Kue1sH0iDxpQJk+fTojR47k9ddfV0P20uqdP39+6tSpw++//05ISAjXrl1T7nNZjSwjIuVFHTx4MAEBAWzcuJGtW7fy4osvpvhqMJvNDBw4kI4dOyo/C4fDQfXq1QkKCmLUqFFe8arkvn379iUkJIS//vqLpUuX0qpVqxQ3lOyApk6dqjqtZ555hj///JOqVatm+y9Y2b79+/fn5Zdfxs/PD6fTicvlomLFihQvXpxhw4YxYcIE1b6yPd58800eeugh9u/fz5w5c3y2r9zn66+/Vo7HTz/9NBs3bqRGjRpZaqguOyHv++x8XeTLxuVy0atXL1555RX69OnD5MmT2bhxI82aNbtvw9qy/RcvXoyfnx9DhgxRvoCZObzPzShUqJD6OyPtKrcdNGgQBQoU4Pz58xQoUID4+Hj1oQO+Zw7LPmbmzJnKB7NBgwb8/vvvVKtWLdv34beCbMeMBn6X23oKzNRIrz+9vH4Wi4XPPvuMyMhIvv/+ewoXLszSpUupWLEiderUYcWKFV5hiW52TaVAvt1rL/cvXLgwixYt4u2338YwDGw2W4pzkJZyf3//dCffyGxkORH56quvki9fPv773//Spk0bKlWqxPHjx9VQiNls5sCBAxw7doypU6d6JTuX5cycOZNhw4apzlde9Hbt2lGuXDkMwyBfvnyUKVOG+Ph4r2EWeZF/++03NYQC//ruZffOx2QyERsby+7du9m3b58K2eG5/ptvvmHChAnKWVpeu5deeolq1aoBEBwcTOnSpZXlV7ar3Pa7775TfpaQc9o3syKvz5IlS2jcuLFanh2vi3Tu9/f3Z9KkSYwePVpZSe7Xecr+5++//1ZWG9l/ZcUXj0wYUbNmZxsmrwAAIABJREFUTeDGEH1qsX7TIjAwkFq1avHFF18wePBgpkyZQunSpalQoUKq+8j2+vHHH70mi2THe/lOIIdze/fuTWJiYqoi0mw243Q6GT9+vM94zOnF853hiwsXLrBt2zZ69+5NdHQ069evp1atWspF4uDBgzz//PP4+/sTGRnJG2+8wQMPPOAl4lI77s3wFNGpCWo5Irpo0SLKlClDnjx5qFWrFsWLF1fJGU6fPs2uXbs4duwYK1asyLA4z0xkGREpkQ+50+lk6tSp5M2blylTptCtWzd14/br14+mTZvSvXt3Lx8Gaf5u2bIl33//vfJ98cQwDBwOB5999hkjR45k0KBBDBo0KMV20jTtdDpVYObsjrT4Dho0iKeeekp1Kp7t6+fnR/Pmzfn6669p3769z69Lh8NB//79GTZsGO+99x4jR45MMUwo93M4HDmmfbMCUvRn9+siLRJut5tcuXJlmqFi+aGcPKxNVkRmPSpcuDCff/45n3/+eQq/yNRmZ3sybtw4KlasyODBgxk4cCBz5sxJ9/Eh+9/Lt4sMTzN16tQ0rYVWqxW73c748eNTXLOMCHOZ3SU58hns2rUr33//Pd26dWP79u1eWbOkf+XSpUtZuXIlPXv2ZNiwYZw4cYLixYtn7MR94Ofn5zXzW2bISY5hGPj7+3Pu3DkWLFjAxo0bWbt2LXv37iUoKIimTZvSo0cPevTooSZ/ZdWPlywnImXnbjKZyJMnDxMmTKB79+60aNGCgIAAnE4nCxcuZPv27YSHh3vtK2+0bt26MXLkSJo1a+bzoZAzBJcuXUrTpk3p1KlTCodfacG8WaT+7IQU0rNmzeKXX35JEcpItu+7777LqFGjaN++vU8fMtlmy5Yto27dunTv3p1y5cp5bSs7oJzUvlkB+YLPKdclswmLzFafW8XT/eHLL7+kdevWPP300zRq1MjLGngznzaXy0X58uUpV64ckZGR5MqViyZNmqRriD+n3cu3SoUKFXyKurS4lTaV90NUVJSKl+gprOT62bNnY7PZ1Mdd8u1k4P0GDRpw6NAhrly5kq4Z2mkhy+/evTvdu3cH4D//+Y8ajk7NIulyuWjVqhWtWrXyWa6cB5BVBSRkoYw1yRtZhoh57bXXKFy4MD179sRisfDDDz9QsGBBwsPDUwhEWcZHH33E2rVruXr1aqpOsy6XiyZNmlCpUiU6duyolqVWn+yOtHysXr0ai8VCnTp1fLavEIJ+/fqxfft2zp07l+rXqMvlok6dOtSoUYP27durZZLs8rLMaiQkJHD27FksFgvXr1/nn3/+UdcVct59r7l95L1z+vRpTp8+DdyImXfhwgUAWrVqxeuvv86zzz7Lq6++yu+//87Ro0eJjo5m9erVlCpVipMnT3qNBsn+Qf47fPhwPvvsMz799FOf632h7+X0IYRQofXS87tV5PWoUaMGYWFhXss8CQwMxGazeUVjSY5c7nK5vCyHt4vb7VYW7ODgYBo2bJhqPeFfY4jcz+FwqFB38kMqq9+HWeZN7cunwjNF3vz581m1ahUffPAB/fr181rvidvtJiQkhMcff5yhQ4eqWcHJjyEv/vjx41m3bh2TJk3CZrP5DJiaE5Bt1Lt3byIjI4HUndaDgoKoV68egwYNumn7fvXVV2zfvp0RI0bg5+entsnpacfuF+vWrVOzU6dOnUpwcLBXTvmcdt9rbh/5cdi4cWNlkXn88ccZMGCAWj9+/Hh++OEHli5dSq1atShdujTlypWjUaNGNG/ePEXoGM/+weVy0bhxYx5++GFat27tNYM4rX5E38vpQ464pfd3L7iZ36TEV0ii2z1uRjL1JN9PhijMDuJRkmWGsytXrsyOHTvInz+/l2OrEILnn3+ev/76i3z58rFkyRIefPBBtT45ct8ffviBxMRE4EY6rh07dqiUfBIhBDVq1GDPnj3kypULuPEVtGPHDh5++OG7dq6ZESn65s2bl672nT9/vgqwWqBAAXbs2MEjjzzita0QgsqVK7Nv3z71YMq8rMmvhebeUK9ePfbt26e+kuX1zJMnj74umltC9h1Lly4lMTFR+ZEHBQWp9W63m6ZNm3L27Fni4uKIiYkhODiYggULqnKkQNm9e7eahOM53L1mzZoUuY2bNGnCrl27vOqRO3dudu7cmWb6Os2tIa9t8rSFFosl24immyHnSuQUN4ksIyJz587NY489lmK5vDErVqyYofI8v2ytVmuqZQshvFJnmc1mn9vmFNKbRiw4OJjg4GDgRgeSVvvKoQu4IUIrV658ZyqryTB58+b1uh4SfV00t4rso+XHpy/kjFa3202ePHkoV66cCl+UPJNH+fLlfZYh+3RPsZIvXz4qVarktdwwDH0v3wVklha4M36mdyrkzt0meWxJabnN6r6O6SXLDGenxd28UDnhJrif6PbVaDTwr1Ux+aQa7R+dNTh37hyhoaEcPnwYwzAoUqQIRYsWxTAMlZkoI2SVId/k4XliY2MpVKiQ8v/N7uinU6PRaDQazS0hfV7r169P9+7dCQ0NpVu3bgQFBREXF0enTp2U60J6uX79Oq1btyYmJuZuVPmOIP1thwwZwvjx49Wy4sWL88Ybb9C0aVMg/UHUsypaRGo0Go1Go8kwMmrH3LlzOXXqFO+//z52u53JkycTHh5Orly5mD59OiVKlEAIoeIqSr9Bh8PhM0bwiRMnWLBgAQkJCTgcjhRCLK39AZVFTf4tZ427XC71t5wx7XQ605xkJffxTHssywUYOHAg+/bt8zruhx9+yIkTJ1ixYkWWj+d6M7SI1Gg0Go1Gk2GkgHv77bcZOnQo8O8EJk/BJf0DZYQTma/aarUqf1iJ2WxWvpVyG08hJn0lU9tf7if3kdvJsqW/opwxLSf9JC9D+jrKfaSrRfJwZzK1MqDqA/DGG2/w9ttvA9nbGqlFpEaj0Wg0mgxjNpvZu3cv586do3PnzjidTp9xly0WC3/88QeGYXDt2jWGDx9OcHAwhmHQpEkTzp07pwTps88+q6KflClTBsMwaN26NYAq/8MPPyR//vwYhsELL7ygYo5KK2OhQoXo2LEjsbGxhISEeAULz5UrlyrTz8+PPHny0KdPH5WhCv4Vvdu2beOJJ57AMAxKlSrFvHnzVFmrVq1S+4wePRqbzaaEZlJSEq+++ioHDhzg8OHD2doamWVmZ2s0Go1Go8kcSKG1YMECHnvsMWw2W6oWN08rX2RkJHv27GHo0KHY7Xb69evHU089xZ49e4AbVs2IiAj69etHVFQUBQsWVKHFLBYLdevW5cCBA3z66acEBgYyefJkKlWqxPHjx9VxZLKEdu3aMXDgQC/LZkBAAE2bNiUkJITJkyezf/9+hgwZgmEYDB8+XAUxX7NmDfXq1aNHjx689dZbHD58mLZt2+JwOOjQoQNhYWHMmDGDrl270qBBA7p3767C2plMJooUKUJISAgbNmwgNDQ0287W1iJSo9FoNBpNhpCi6OjRo5QsWRJIPdqGYRjKhzAxMZF169ap1JSlSpWicePGHDlyhNKlS/PMM8/w0EMP0a9fP1q2bKkEGMDkyZPZvXs3586dU3V45ZVXKFiwIAsXLqRNmzbAjWHl1atXc/jwYfLnz+81BH3+/Hk6depEy5YtVR3OnTvHvHnzGD58OE6nE5vNRqNGjZg7dy5t2rRRwvLBBx/k3XffpUOHDhQuXJiOHTvStWtXHn30UV566SV1HDmkHRwczKFDh7zaK7uhh7M1Go1Go9FkCGl1/OGHH3zG6EyOtAYOGjRIiTeHw0GjRo0A2Lx5c4p9kmeIW7JkCc2aNSMuLo4zZ85w5swZ7HY75cqV48cff1T7JSUlERERQVBQUIqJN1arlZYtW2K329Uwc9u2bTl58iRXr17FZrOxZ88ekpKSePrpp4mJieHs2bOcOnWKsLAwzp8/z6VLl1LN2OZJcHAwy5YtA7JvFjZtidRoNBqNRnNLxMXFZSgVYN68eb3Epi8fyuTrXC4XJpOJ9evXEx8fz/Tp01Nse+XKFfW32+0mICDAZ7lSOPqqg+TXX38FoHDhwl7CUJ7n6dOnKVu2bKr19fz/9evXU2yXndAiUqPRaDQaTYaQgil//vxqQsvt5CP3tW/yZU6nk65du9KnTx/i4uK8lufOnfuWj51c/Mmydu/eTXx8vJdIjo+Pp3Tp0qnum7y+GY2RmdXQIlKj0Wg0Gk2GkMO5L7zwArGxsSnWew7f3o64dDgc6lgvvfQS58+fp2zZsmo43TNjjMPhuO2Uiy6XSwUKL1KkiNeQuOcsa0/hLIVk8pzZZ86coX379gDZNvNS9jwrjUaj0Wg0dw0pnMqVK6dmVnuKRc+0hRmZUCKEwM/PD7iRQtAz9mLXrl1ZvHgxS5cuVSkxTSYTGzduJDo6WlkMb2cCi8vlIiQkhAoVKtCsWTN1LiaTCafTycyZM73OtXDhwpw5cwYgRSifw4cP8+ijj6oysiPZ86w0Go1Go9HcNaRQa968OceOHVOxHqX/4pIlS7h06RKGYfDXX3+lW0S53W4efPBBIiIiqFevHjabjZdffhmA2rVr079/f1544QVy5cpFvnz58PPzo1atWmpfuD3LpxSC33//PdHR0ZhMJgIDA/H398dqtbJixQrgX1H48ccfM3/+fIKCgsiVK5c6/t9//01iYiJ169a9rfpkdvRwtkaj0Wg0mgzjdDopWbIkJUuWZNq0abz//vs4nU7at29P7ty5EUJw7do1goKCcLlcPPvssyrYN/wrxJo3b65iQUoR9+uvvzJz5kz27NnDgAEDgBsicfDgwXTu3JnZs2dz8uRJXnzxRerWrUuuXLnUEHe7du2oUKEC4G2VrFGjhhKanqK2SJEiNG7cGKvVqrZ/6KGHOH78OL/99hvffvstVatWpUmTJpQpUwYhBBaLBSEEXbt2JSwsjClTptCjRw/gxgSccePGUbNmTQIDA9Vs9OyIFpEajUaj0WgyjBw+njx5Ms8++yzvvfcehmEwa9Ysn9tLK55ECqvFixf7LLt79+5ey0wmE263m4ceeogPP/xQLXe73SpFIcAXX3yh1nmKyPbt2ysfRU9R98gjj7B8+fIUdcidOzfNmjVTw9pCCBUzUpYthKBmzZrUrFlT1eXy5ctMnDiR3bt3pzhWdkMPZ2s0Go1Go7kl3G43DRo04Pnnn+f555/HbDbjdDpxu93q57ltamUkH/KVObGT7yN9LeU6mQfbUyz6Kg/wWV5adfOsg5xAk3xY3rMucii/bt26vPPOO5QvXz7bxoeUaBGp0Wg0Go3mlpDWwW+//ZZq1apx5coVLBaLmoziKbpS84tMLgIlvkRb8nW+9ruV8m7lOMm3MZvNnDp1inbt2jFixAgvq2V2RQ9nazQajUajuWWkxU76LuZkQkJCiIyMVBbS7E72P0ONRqPRaDR3leyYF/p2yCntoUWkRqPRaDQajSbDaBGp0Wg0Go1Go8kw98QnUvoFHDp0iAceeACn03kvDptlEEIQGBjI2bNngTtjBo+Ojk51hpomJWazmYMHDwJ3N7NAXFwcx48f559//snWYR8yE06nk7x5897vamRa9u/fj81my/azSDMTTqeTgIAA3T9rsjz3RETKHJOvvfbavTjcLSOn6nsiX/Qy5dHdfOileLmdY0iB3rp16ztSp5yIvF/vBn///TelSpW6a+VrUsdisdzVa5vVkH3FK6+8cp9rknOxWq3aqKLJ0txVESlF0QcffMD58+fJlStXpv3ycrlcrFmzJlWhKISgdOnSVKxY8a4+9G63m/r162d4P9nWgwcPRghBnjx5Mm1bpwchBFarldWrV2OxWGjYsCGXLl26q9Y7wzCIi4tTWQfulGO0EILQ0FB69uzJkSNHsFqtWfraOJ1ObDYbuXLlwmq1smHDBk6ePAnAY489RrFixVTmiMyCYRgkJCQQEREBZO/gvzdD9hUffvghCQkJWb6vyKoYhkFiYiLVq1cHcvY9qcm63BNLZMWKFVm5cuW9ONQtIWM59enThxEjRngNZ0ZFRdG4cWMKFixI/vz5VW7MzIYUPNWrV+fXX3+9z7W5fWSaqNDQUI4cOULJkiWZM2fOPY27dadEpKzvuHHj7kh5mYFLly7x3XffMXHiRC5cuIAQApfLxbRp06hYseL9rt5NyQmhN1JD3tdVq1bNFn1FdiEn35OarMs9EZFpRYnPLDgcDoYPH86CBQuIjY1VX+Z9+/bl119/JSoqiiJFiuB2u3E6nXf1q/F2ys4KbZ0ehBBcunSJkydPYjKZGDp0KPPmzePXX38lNDQUh8Nx1zrdmwWWvVWyso+qzBU7adIkRo8ezb59+7zWy/RnjzzyCElJSer/mY20gg3nNLJLX5HV0fekJitzT3p6wzAyvale1m/evHnUqlULPz8/+vfvz5dffsnKlStZuXIlTz31FCNGjOCxxx5THXBmO6+s0NbpQQjB9evXlSARQnD8+HHKli3L9OnT6dixY5bLBpCV6uqLI0eO8Nprr2E2mylSpAjNmzdnypQpOJ1OnE4njzzyCDabTVmRNZmb7NJXaDSa+0fWfqvdYdxuNzVr1uT1118nKSmJ33//nXPnzvHVV18RHBzMqlWrCA8Pp379+uzatQuz2azyZWruLIZhcOLECfV/IQRhYWFYrVY6depEu3btVJYEzd1H+gR/8803rF69mtOnT3PgwAEcDgfBwcEAVKhQAcg5QXY1Go0mp6NFpAcmkwmXy8WXX35J0aJFWb58OTNmzKBHjx6cOXOGSZMmeYnJp556ir/++kuLyTuMFIb79+8HbkzWAMiTJw8bN27E39+fuXPnEhkZ6XNGvebOI4Vhy5YtiYiI4OWXX+a3336jcuXKvPfeewCEh4d7bavRaDSa7I0Wkckwm81YrVbmzp0LwPz584EbPpPdunXj7NmzSkyuXr1ai8m7gBSFBw4cAOCtt97iscceY9u2bTgcDk6ePMl7771Ht27dAC1a7hUulwuTycSAAQP45ptv8Pf3Z8eOHaxfvx6AatWq3ecaajQajeZeokWkD4QQ1K1bl/Xr1zNp0iQAbDYbcONF2q1bN06fPs2UKVO8xGS9evW0mLwDSBF55MgRAEJDQ3n77beBGyGMAgMDiYqKomzZsvetjjkN6f87a9YsPvnkE8xmM+vXr8cwDLZv3w5AlSpVcLlcWtRrNBpNDkGLSB/IIdJatWpRokQJr+XSEV0IQdeuXTl16hRTp06lcOHCrFmzJoWYlKFPNBknLi4OgODgYNq0aUNQUBA//vgjp06dus81y1kIITCZTKxfv56OHTsC8N133yk3g7CwMGrWrEmBAgXuZzU1Go1Gc4/RIjIVpDXFl1VFiklpMevSpQuxsbFMmzaNokWLKjFZt25dNQFHi8n0I4X6jBkz+OOPPwgNDcVqtarh6+HDh+tJNfcQwzA4cuQIjRo1AuCLL77gueeeU+FhVq5cyYYNGwAdMFmj0WhyElpE3gaeYtIwDDp37kxMTAzTpk0jJCSEtWvXEh4eTp06ddi5c6cWkxmkUKFC/Oc//1H/79WrF4ZhMHnyZJxOp45xdw9wu91cv36d2rVrEx8fT69evXjzzTeVfyTccPHQ10Kj0WhyHlpE3gF8icnjx48zbdo0ihUrxrp166hSpQq1a9dmx44dWkzeAi6Xi5IlS9K0aVPi4uKYPn26lzVYc+dxOp2YTCZq167NyZMnadiwIWPHjk0RbN9sNmf5GJgajUajyTi657+DpCUmixcvzvr166latSoRERFs375di8kMIEVLnz59ABg5ciSAtoDdJZxOJxaLhVatWrFjxw4qVKjA8uXLcblcmTYbjUaj0WjuLVpE3gWS+0x26tSJmJgYpk+fTvHixdmwYQNVq1alVq1abNu2TYvJdOJ0OqlduzZhYWFER0ezatUq7YN3F5BC8YMPPuDbb7+lUKFCrFmzBpPJpNtbo9FoNAotIu8iyWdzd+zYUYnJEiVKsHHjRp544glq1arFn3/+qcXkTZAWsMjISEBbI+8GQgjMZjPTpk0jKipKhfIpWLCgDt2j0Wg0Gi+0iLwHGIbhNQlBiskZM2ZQvHhxNm7cSLVq1ahVqxZbtmzRYjINXC4XnTp1wt/fn+XLlxMTE6P98e4Q0g1j/fr1dO3aFYAVK1YQFhamfU81Go1GkwL99r2HeFomXS4XHTp04MSJE8ycOZNixYqxceNGqlev7iUmddByb6Rg7NmzJwCjR48G0CLnDhETE0O9evUA+Oqrr3jmmWdwu93aCqnRaDSaFGgReR9ILiZfeeUVYmNjfYrJrVu3ajHpgRQzvXv3BmDSpEk4HA49pH2buFwu4uLi+M9//oPL5aJ379706NHDK5SPRqPRaDSe6LfDfSQ1MTlr1iwlJqtVq0bNmjWVz6QUkznZ8uZ2uylatCgtWrTwCvejuTVcLhdms5natWtz9uxZmjRpwqhRo9RyjUaj0Wh8oUVkJiC5mGzfvj2xsbHMnj2bYsWKsWnTJqpXr06NGjWUmJTb5kSkZUxaIz///HPgxuxtTcaQQrF58+bs2LGD8uXLs2zZshSxIDUajUajSY4WkZkIX2IyJiaGWbNm8cADD7B582YlJnP6BByXy0WtWrWoUKECBw8eZO3atTp+YQaRArJPnz4sWbKEggULsmnTJh0LUqPRaDTpQovITIhnnEkhBK+88gqnTp1i6tSpFC5cWInJJ598MseKSWmNfOuttwCIiooCcq51NqO43W7MZjMTJ05kxIgRWK1WNm3aRGBgoLZAajQajSZdaBGZiUmeAadLly7ExsYybdo0ihQpwu+//0716tWpXr06f/zxR44Sk4Zh4HQ66dq1KwEBAfz0008cOXJEC6B0IITAZDKxcuVKXn/9dQCWLVvGww8/nKN9bTUajUaTMVKMWbndbh3SIxNiGIaaUNO5c2fat2/PrFmz6NevH3/88QdPPvkkjz/+OGPHjqV69epAzgjCbRgG3bt3Z+TIkYwZM4ZRo0apnM+alMhg4tHR0TRr1gyAsWPH8swzz+BwOHQ+co0mEyGfVzkqBeiICZrbQt5Td0ofpLgTtXjMvEjLpMvlwjAMunbtSmxsLJMnTyY0NJRt27bx5JNPUq1aNdauXYvL5VK/7IjJZMLlctG3b18Apk2bxtWrV/U9nAZCCM6ePUvt2rVJSkqib9++9OrVSwlIjUaTudH9m+Z2kPfPnbqPDCGEkGFjihYtekcL19xdhBC43W4CAgJwuVxcuHABu92uvjD8/f2x2WwUKFCAuLg4EhISsuWECZPJxJUrV0hKSiIoKAiLxaKtacmQlmx/f39OnTqF0+nEYrFQuHBhEhIStAVSo8mkGIZBXFwcQgj8/f31c6q5bQzDID4+nvDwcNavX6/eB7eCBW6IEavVSu7cufnjjz8IDg7WQjILIcWk/HvevHkMGDCA2NhYzGYzpUqVYsqUKdSpUwe3253twreYzWbWrVtHnTp1KFKkCHv37sVut2erc7xdnE4nfn5+PPfcc8TExBAeHs4ff/yhhjY0Gk3mQwiBxWKhX79+JCUl8fnnn+N0OvX7WXPLyHtqwYIFTJs2Dbg9w2GK4Wz9lZP1kMPcZrMZi8VCx44dOXHiBNOmTaNw4cJs376dunXrEh4ezrp167DZbGpiSnbAbrdTu3ZtKleuzL59+1i9ejU2m+1+VyvT4HK58PPzo1evXixbtowiRYqwevVqTCaTFpAajUajuWVS2C+lGNFfOlkXOUO7U6dOdO7cmZkzZ/K///2PnTt3Uq9ePapWrcqIESOoXbu2smJmZTHhGe6nS5cuDB06VOV/NplMylSfE+5pOSlOnqvb7cZmszFu3Di++uorbDYb69evJ1++fPe5phqN5mZIo47JZFL9nH4/a24Hz3vqTqCneGVDkgct79ChAydPnmTmzJmEhISwdetW6tSpwxNPPMH69euzfDpFwzBwu920bduWggUL8ssvvxATE4PJZFJtkVM6XXnO8G8on19++YX//ve/AKxcuZIyZcpkyeus0Wg0msyFFpHZGF+5uU+ePMmsWbO8xGTVqlXZsGGDV5xJXyIjrXWZAT8/P7p06QLAZ599hmEYLFmyBLPZzKpVq4Ds664hfWLffPNNRo0aBdw41wMHDtCwYUMA5Rcr445qNBqNRnM7aBGZA/CVTvHkyZPMnj2bkJAQtm3bpsSktEzKbT1Fl2EYJCQkYBhGphNjMtzP22+/DcCsWbMA+PHHHwE4ceLEfavbveL06dOMGTOGqVOnAnDp0iWefPJJhBD07duXrl276hiwGo1Go7ljaBGZg0guJtu1a0dsbCxff/21EpN169alatWqrFu3Tm0rJ+BMmDCBgIAAfv7550wnRGJiYjh48CBFixalSZMmXLt2jXnz5nHx4kUAwsLCgOwZvkoOW+/btw+A0NBQAGrVqsXFixdp3rw5w4YN00GKNRqNRnNH0W+UHIinmHS73bRr144TJ04wZ84cihUrpsTk448/zrp161T8qODgYABat27N9evXM0VGHBlI/ZlnnqFcuXIMGDCA4cOHAzBmzBh2794NQKlSpTJFfe8G0iq8ceNGAJo2bUrLli2Jjo6mYsWKLF68WAcT12g0Gs0dR4vIHIxnbm4hBG3btuX48ePMnTuXEiVKqNBAVapUYfXq1bz44ou0aNGCK1eu0LNnTzWEfD+RlrXBgwdjGAaffPIJvXr1okSJEmzevJmDBw9iGAYFCxbM9iLy999/B25YjBctWkSxYsXYtWsX58+f59KlS/ezihqNRqPJhmgRqfESkwBt2rTh2LFjzJ07lwcffJAdO3bw1FNPUalSJbp06UL+/PmZPXs2P//8833PdCL9M1966SUOHjxI6dKlWb16NSdPngRuWCpLlCiRI0L8HDx4EICdO3diMpkYOHAgL774IqGhoRQuXJh//vkn0/myajQajSbrokWkRpHcMtntxDiJAAAgAElEQVSmTRuOHDnCzJkzKVGiBH///TfPP/88iYmJGIZB27ZtSUpKuu8WPhni56GHHuLQoUN06NDBK/Zl8eLF72v97gXXrl3j4MGD6pzNZjOvv/46S5YsISkpibZt2/LAAw9oEanRaDIFQggcDsf9roYXDodD95EZRIvIHEJGHgxPn0mz2UyHDh04fPgwU6ZMwWq1kpiYCMDFixd54403VJzJ+4lnMN6ZM2eybNky5ctZunRpIHtOqoEb1ygmJgb4V1ADNGnShAULFhAXF8ecOXOAOxdgVpP10C9HTWbCMAysVus9OVZytyu32+3zebBardn2PXG3uLWM25osx4ULF1iyZAlWqzXdLxOz2cy+ffv48ssvsdvt5MmTB5fLpR4yi8XClClTKFOmjJp0kxlwuVwEBATwv//9j0GDBnHp0iUlprJbByGEwM/Pj1WrVmEYBi6XiypVqtChQweKFy+O0+lkxowZGIahBWQOxe12ExQUxAsvvKBjhGruC263G5PJxNy5c6levTqlS5fm4MGDhIWF4XK5cDgcd01QylGpY8eOsWrVKsqWLUu1atWw2WzqeXC5XJjNZgIDA9myZYuK5qG5OVpEZnNkyr8aNWoon7mMIq2S165d87I4Op1ODMMgMjLyjtT1brF8+XKWL19+v6txz9i+fTvbt2+/39XQZBKk3/CoUaPo3bu3FpKau8Kff/7J0aNHadWqVYp7TIrIN998k5EjR1K6dGncbrfPESy57+zZs7l69WqaH7+GYWCxWOjatav6f3JiY2OpW7cuR48eVdsIIRg8eDD9+/f3qkNcXFyKOsn6LFy4kAMHDtw0yoUQgoYNGxIeHp7mdtkFLSKzOdLqeO7cOWw2Gx988AFOpzPd4V6kf2RaeOZqzkzIumfW+t1JPK9TTjhfzc0RQmCz2fj9999Zvnw5V69evd9V0mRjVq5cyXfffUerVq28fNI9Sc8Qttx36NChKvZtaphMJvLkyUPHjh1TpLcVQhAfH0+FChXo2LEjgwcPJn/+/DgcDjZt2kTdunUJCgqiV69eKgSar2Fu+Q7ZvXs3mzdvVm5SyZHP2/Lly7FYLISHh+eIDzYtInMI0ldu0KBBd3XoQKPRZC4mTpzI8uXLtTuD5q6THoGYXi5fvszSpUtp1qxZhsWY3H7kyJGEhYUxZswYnE4nDocDwzCoU6cOCxYs4LXXXqNXr15pGkrkczNo0KA0jymtrU8//bRK0JET0CIyh+D5kKTHuqjRaLI+nilK9TOvudskv8ekZc/lcqVqwUuL+Ph4kpKSsNvtPkWkEAKr1UquXLl87n/mzBnl3+g5+dLtdlO+fHkuXbqkhOXNuNl7U4pIu92enlPLNmgRmQPRw50aTc5BP+ua+0VCQgJOpxOn04mfn1+GPmTy589PmzZtUl1vMplwu918/PHHDBgwwKe1smTJkkybNg24IQKlJdRkMrF161YeeOABrFYrSUlJN62P/gjzjRaRGo1Go9Fo7hjSr7Fx48asW7cOuDFB0+VypVuMXb9+nQEDBhAREZGqtdDpdFK+fHnA+2NJum/16dOHr776igYNGjBq1CgeeOABEhMTWbFiBT179mTBggWqbmkRFxfHtWvX0vwgc7vd5MuXj6SkpBwlOLWI1Gg0Go1Gc8eQw8Zjxozh8uXLuN1ugoOD+c9//pPuMhwOB0888QQNGjS4pQkqbrcbwzDYsWMHjRs3pmLFiqqM3LlzM2/ePF566aU0/RflcTds2ECjRo2UEE4NaR3t3r07kDNGAbSI1Gg0Go1Gc8epVKkS8G+oOT8/v3QLKz8/P44fP87+/fvT9Ft0Op2Ehobi7+/vtVz6YAYFBbFp0yYMw2D//v0ULVqUwMBA4IZIdDqdJCQkEBQUlKJsecx69eqxZcuWNP06XS4X/v7+1K9fP0eIR4kWkRqNRqPRaG4bOYzrdDqVJdBzcldGyJMnD2+88Uaa20jL4MqVK2nQoAHw72SeKlWqYLfbVTzK+Ph48uTJQ0JCAlevXlUpDpOSkpRfZWrYbDaeeOKJNOviGbD8ViYRZVVyzplqNBqNRqO5K8jsWXAj1I9nSKlz585RtGjRdJUj/RNXrlyphGhqyGwzhQsX9qqH2WwmNDSUxMRElaP7pZdeol+/fjz//PO8/PLLOJ1O/P398fPzo3jx4rdyyj65fv06Tz755B0rL7OjRaRGo9FoNJrbws/Pj/Xr15M/f37cbjculwun04ndbqdcuXLs3bs3TX9C+Hd4GchQKl3DMFTAcClCFy9erNZLK+GwYcOoU6eOslpK5DFTm7yTHkuqw+Egd+7cxMbGkjt3brVfdo/JrEWkRqPRaDSa26JChQq0bt2awMBAhBA0adIEs9lMSEgIRYoUAW4+Czo9GW3Si6dglSLSM9i5w+GgRIkSnD9/HrjhQyljWnqS3qFpk8mkxGjRokW94lJmZ7SI1Gg0Go1Gc1s8++yzPPvssz7XORyOdJWxbt066tSpc9NZ0MmR28+bN4+XX35ZDWn7QlobzWYzr776qsqXnStXLqKiopTwk8LzmWee4Zdffkl3XeDf4fx8+fJx4cIFhBDZVlBqEanRaDQajea2SJ7RRYq1jMxULlmyJJGRkeTJkydDKRJNJhPx8fFUrFgx3cc0mUx8/PHHwL+zx4cNG5ai3h06dKBatWo3taJKZFmGYZArV65sP1Nbi0iNRqPRaDS3RVqZ0ORyKa5So2TJkkRFRd2V+vk6vq+UoHK9tBy2b9/+to+bnYWkFpEajUaj0WjuOp6ztlML8n072V5uJtaSzxpPLhh9+UTebvaZ7CwgQYtIjUaj0Wg0dxE5OSU2NlYtK1GiBNOnTwe8J9zcDdEly9+3b5/P9VJEzp49mwcffNBrXXYXgbeLFpEajUaj0WjuOjIMj8lkIjAwkE6dOgHcs0knTqfT56xpKRTvxNB1TkOLSI1Go9FoNHed+x0zMSdlkrlXZM855xqNRqPRaG4bGQDc5XKl8A90u92p+jbeyjEyO3fqfLMTWkRqNLeAEAK73X7bTteajCNfOOmNPafRaG4NmXbQYrFgNpsxDMMr9I7JZPLyd/zrr7+A1CejpCbC5DEAkpKS2LBhQ4b6Vpmr+3Zwu904HA6fP4nn+V66dIk//vgDSHm+MtWi58/pdLJp0yYuXbqk+i/5y0hMzMyGFpEazS1gGAY2m007Xd9jhBDqhXO/h8Y0muzO1atX+eijjyhTpgwNGzZk8eLFmEwmJdjmzZtH48aNAZg+fTqdO3cGSFXQeYowTw4fPkzJkiUBOHXqFBERESrvdXqwWCy37VdpMpmwWq0+f7IeM2fOpF69egBs3LhRpU9Mfr4y8478yfOOiIjg8OHDqv+Sv/TGoMyMaBGpyTKcOXOGmTNn+hxWEUKQmJjI9OnTuXz58l2vy+HDhzEMg+PHj9/1Y91Lzp49y8KFC1m8eDFLly5l6dKlQOovBV/crkUgNaSAXLhwIeHh4QQGBgLpz4ah0WjSz4kTJwgKCmLWrFmEh4djNptp0aIF3bt3V4Lt2rVrnDp1CkAF1/aF7K/Hjx9PkyZNAFKkIIyJifHax2w231REyjIef/xxvv76a69jpRe5/ddff41hGAQFBZEvXz7y5ctHoUKFKF26tDIWXL16lZMnT6p9/fz8fJa1fPlyTCYTBQoUIF++fBQoUIDAwEBMJhP16tUjMDCQfPnykT9/fnLlynVT8Z2Z0V6mmizDjh076NSpE61bt8ZisXh90QohuHz5Ml26dOGxxx4jPDz8rtZFDj9k5WEIX/z555+89NJLagalw+FQsdPS86Uv03sdPHiQsmXLKuF3u8hy5s2bR9u2bXn55ZepWrUqcO9mdmo0OQG3243JZOL111/nxRdfZNGiRWpZdHQ05cqVo3PnztSoUQOn06mEk9vtvml/GB8fz6VLl+5YXeWxL168SEJCwi2VIfunUqVK0bp1awICAtT5nj9/nh9//FFt62nA8BVTUpYVEhJCmzZtyJMnj5oRLoRg+vTpVKlShUqVKnH16lUsFgsOh4Nq1ap57Z+V0CJSk2OQD7+vB9VzXWrb3Wz/211+N+uXXp555hmVd/att95i+PDhCCGwWCxedfZ1LLn+008/pX///sovyGazpXk+vtYlP47L5cJisTBw4EC6dOnC1KlT1Ve751BQetvAV4aK9NZPo8nOyPSFK1as4NSpU7hcLgzDwOFwEBYWRvPmzfnhhx+oUaMGfn5+GbL8eaZGlH979mkZrafZbGb79u0cO3aML774gu7du+N0Om/J1aVWrVrUqlVLlW0YBl999RVxcXFqG5vNdtO6CiGoXLkyc+bMUf8XQtCgQQNq1qzJgQMHmDhxImFhYV77yVzdWQ39Ca/J9sivR8+0XL58WKTTePL0XXJbuTx5jli5zhfpWS6/Zm+1fsn3vxNDIm63O4XQ8jz3tNoitfP0LDc9bel5rnKbI0eOkC9fvhTHSd4GqdXL7XZ7lZu8vYQQKdo4Kw4xaTS3g3x2HnjgAcDbl/Hpp58mKioKs9lMt27dKFiw4C0dw/MZS20YPK36yWe+du3avPfee5w5c4ZRo0ZhtVpvaQa1fPblD2Dz5s388ssvqq69evVSbjRplWMYBhcvXuT777+ncePG2Gw2qlSpwoYNG5gzZw5169alfPnyjBkzhtOnTytrZVYka9Zak6PxfNCT/3xhNpuJiYlh4sSJREZGEh0drYYX5D5ffPEFX331FSaTiRUrVvDmm2/icrnUwx0dHc0nn3zCjBkzuHz5snrgZWfxxhtveDmCu91uEhMTefXVV9m9e7dXfaKjo3n//ffVdmazmSNHjjBmzBj69evHkSNHUtRvyJAhzJ49G5PJxKJFi3j33XeBG7MSzWYzv//+O71792bFihXArafq8hR98m/DMFi6dCn9+vXDMAzOnz9PVFQUQ4cO5dKlSxiGoawVn3zyCb/99hsAgwcP5t133yU6OlrVyWQycfLkSQYOHMjYsWOJi4vzEmt2u52uXbty4MABDMNgyJAhTJs2jTNnzhAZGYlhGGzatIl+/fqxfv16r3L//vtvhgwZwtChQzl//nwKC4ccorpy5QorVqzgnXfeYfHixcTHx6ty5LnMmzePPn36sGfPHnUtNJqcgnwmL1y4AHjPqt6wYQN169Zl/PjxNG/eXD0/aeE57CzLPnv2LJGRkQwcOJDhw4enK4ajHDI3DIP4+HgefvhhHn/8cT777DPWrl3Lu+++S//+/bFYLGrb9H4EGoahApHL+i5atIg333yTUaNG8eWXX/LCCy+QlJSUZjkxMTGYTCaCg4N56aWXKFeuHOfPn2f48OG4XC7q1avHmTNn+PDDD5kxYwYhISFYrVaGDh3q1VZZBiGEcDqdQgghihcvLk6fPi3cbrfQZA/sdrsQQoh8+fIJi8XitSyrsWLFCgGIhIQE4XA4vNa5XC5x+vRpAYjt27cLIYTapnbt2gIQhmEIwzAEID744AMhhBBJSUlCCCEqVaokGjZsKAYPHiwAAYj4+HjhdDpFy5Yt1f4mk0kAYuLEiQIQBw4cEEIIAYiff/5ZCCHU87NmzRqvY8nnbPTo0aJ8+fKq7o899pg6piz/s88+86pfkSJFxCuvvCLefvttta0QQly6dElUqFBB1Q8QZcuWFdevX7+l51jeG4Do06ePWt6zZ0+RP39+8cMPP3i1hWEYYufOnerczGazsFgsAhBms1kA4ocfflDlvP76617Xwmw2i7Vr16rrdf36dQGIpUuXijJlyghA1K9fX2zdulWVKc9z6NChQgghEhMTRYECBdRy2YbLli1T18PlcgkhhHj//fe92goQFStWVNtt3rxZ5M2b12ubDh06qHssKzJhwgQBiI8//lgIIXT/noWQ16p///7ivffe81p2t5D3ecOGDUWrVq28lh06dMirr5s+fbp6fj766CNRrVo1IcS/fZ1E9sUVK1YU4eHhQgghdu3apZ5ps9ks8uTJI4QQ4siRIwIQSUlJPp85l8slxo4dK8xms2jatKnX8Q4dOiSsVquoUKGC2LFjhxAi4+0ltx8/frzqZ2W/+NVXX4nQ0FAhhBDff/+9CAoK8jq+3Hf79u0iNjZW/d/hcAi73S6cTqdwOp2qXxdCiPj4eLFly5Zb7rMzijzGt99+Kxo2bOhV/1tBWyI1WQY5fNG9e3c6d+5Mx44d1a9Tp0707t3bazv5xduqVSvsdrv6Kp06dSpDhw7l2rVrahuLxcK2bduUz4vT6SR37ty88cYb/PLLL/z111/qy/bgwYP069cPQH2dt2/fngkTJgD/Dn9OmDCBsLAwJk+eDPw7i3jSpEnKkijPR9bN5XLx+eef8/7773sNyfj5+bFmzRpCQ0OVryFA27ZtyZcvH4mJiSogcFBQEO3atVNWtTuB+P+JS5MnT1axzex2O8HBwfz3v//FbDYry+3AgQNV29jtdjUbc8aMGUyePJno6GhlOf7444955plnVLvJths5ciSzZs1CCMEvv/xCpUqV1BB17969EUIQGRmpZuWPGjVKtZ/L5aJdu3a888476n4wmUx88sknREVFsXz5cnUsWT5AQkIC9evXV+W63W6OHDnCrFmzmDdvXpYdbtJoMoK8z8eNG8eCBQsICwujU6dOtGjRgkceeYRGjRqpZ9ZutysLoq90gp5lXr58GbPZzKFDh/jnn3+oUKGC6msPHDhwU4vmqVOnqF+/PkFBQfz3v//lm2++4YcfflC+hEIISpcuTXx8PPXr1yc8PJzSpUvz9ttvA+l3S3G73SQkJNC7d2/Vp0vsdnuaftKyn3zkkUcICAjg4sWLXL58mbi4OBISEoiLiyMuLo7ExESuXLnCpUuXSExM5NFHH1X9ZZbDU4VqS2T2IztZIpcuXSoAUahQIVGgQIEUv0KFCglA/PHHH2qf5Peyw+EQSUlJXl/TQgjx+OOPi6JFiwohblj/EhMTRVxcnADEb7/9JoS40W7yC3LVqlUCEIcOHRJCCDF//nz11ZqYmCiEEKJEiRLKgnb06FFVF5vNJmJiYoTb7U5RP5fLJc6fPy8AsXXrVrW+ZMmSoly5cqp8u90uYmNjfX6xb9u2TdhsNlVeRkjNEtmrVy8BiAsXLnh9SX/zzTcCEHFxcaofGTRokGqLuLg4ZYUoUKCAskq63W6vY+3evVu43W5x7do1AYh+/fqpc5XXTAghTCaTeOutt4QQ/1o3fPVX0gp89epVYbfbhd1uF4BYsmSJ2tdutwuHw6H2Hzt2rLIQO51OtbxHjx6iZcuWt9SemQFticy63A9LpCfnz58Xffv2FYULFxY1atQQM2bM8Hp2x40bp56ZQYMGKSujp2VL1jcqKkp069ZNjB49WvTs2VMI8e/z/ffff6s+w5clUv776quvihkzZqjn09fzKI99/fp10bdvX/Hdd9951SMt5Hm1bNlS9bexsbHi9OnT4sqVK+LTTz8VZcuWFUL4tkTu27dPAGo0Jr0/OXpyL57RO22J1LOzNVkGOePuxIkTKUL8uN1uzp07R9GiRb1m5hmGwblz5/j000/56aefuHLlChcvXgTwiifpcrkoXbo0cMOH0mw2s2HDBgCeeuqpFDP+QkJCVPlut5uWLVsCsGvXLipXrsz+/fvx9/fn8ccfp3jx4ixfvpxevXrx559/EhISQokSJdQX9MmTJ/noo49Ys2YNly9fVvW6evWqOp7T6aRcuXIAKnvEunXrAGjatCkOh0M5fyckJGC32zl58qSq553Az8+PAgUKeM24LlKkCIDXMk9rhAyke/HiRS5evMinn37KyJEjVbvJNv3pp58oX768+sqvXbu2OqYsXyLLl9YHwzDYs2cP/fr1Y+/evZw/f57r168DN7JfBAQEqLZ6/vnncTgcXtdSXofVq1dz4sQJGjVqpCwCVquVAwcOqGuS3lBHGk1WRwhBUFAQw4YNY9iwYV7r5PPTrl07FWy8R48etG/fHvCOmCCfmREjRrB3717cbjdVqlRh3LhxasLOzfwh5TM3ceJEVabnck/MZjNut5vcuXMzbNiwdEVaEP8/UcdqtfL++++zcOFCjh49isPhoHjx4litVtUHpRU+rlSpUqxevVr1TbJMm81G7ty5sdlsuFwu4uPjcTgcJCYmqkxATqeTMmXK3LSumQ0tIjVZDjnMKzwckEUquVcPHTpEWFgYFStWpGfPngQHBxMSEkLdunVT7bhkuZ4TYkQyZ+fks7ctFgtPPPEEY8eOZfLkyYwZM4a2bdsCN4a6R48eTa9evdi4cSPPPvsscKOz27FjB1WqVKF69eq8+eabBAcHky9fPhr9X3tnHl7Ttffxzz4n52QQIiQSQgxJSZqYh1xjDcVFeU0xldZw0b6K1tRWcG8qirpVqqgaqlSVmvpwxeVF0ZYaSszDVWKuWSKSkzPs9w93bfucnESCUsn6PM95kuy99tpr7ZOzznet9Rv++teHDqxHjx4F7huo22w2p6350NDQpyJ2XJ+LOxRF0Qz0b9++TWpqqtP5ChUqZPG4zktMShE7sm3btowYMYKSJUty+fJlBg4cqNUj0rHl1If9+/cDaN6SwjGnaNGilCxZUuuLRFIQEJPSEydO8Morr1C0aNEsockMBoNmNqOqKi+99BIff/yx5sQmxsZBgwbRo0cPAgICAGjWrBmvv/46X331VZ4cSUTkhIeFwhGfe1E+N3h4eNCvXz8WLFjAgQMHKFeuHKqqsnv3boxGI15eXixcuFBLwOAOLy8vGjduDDxw1Dt69Ci7d+9m27ZtHD58mGLFitGuXTsiIiJo1qzZE4ul+6yQIlLy3CFmrq4rka7BxxVFYdiwYTRp0oRNmzZl8eJ+WPidqKgoALfiVB/YVgxoPXv25O9//ztz587lp59+0oLUvvbaa0yaNAmAWbNm8e2332qD7KBBg+jevTvffPON1i4RjNe1fa5/N2nShISEBJKSkrKsrj0t3D1DVwHocDi0lGYrV67kxRdfdFtXXu03xTMcOHAgn376KYMHD9bed7HyKNpXs2ZN4P77lp04b9asGWfPnmXjxo1a3a7kxoNUIslPGAwGvL298fT0zPYz6unpyenTp0lKSgIexEY0GAzMmDGDZcuWcf36dc2zesGCBRQpUoQ2bdrQpUuXXAvJvE6Mc1v+xo0bVKxYkSJFinDy5EmnRAm1a9fWfg8NDc3VOCXEa0xMDLt37yYkJISgoCDMZjN37tzhk08+0TLf7N69m8qVK+epX38m5IgoyZeI0Dk///wz7dq1A9CCZs+YMQPIWbQ4HA4ti8DEiRMZO3as08CYkJCg1SGESvfu3Rk6dCiHDh3CaDQSHBxMZmYmkZGReHl58a9//YtSpUpRo0YNLBYLnp6e/PLLL04zV6PRyGeffZZj+8RWcI0aNQBYv349rVu3dprRpqWlUahQocd6ho+KqwG7qqqYzWYiIiL4+OOPtUDhYoDPyMh4JAGsqiqZmZmkpqZSrlw57d5Go5FPP/1U+1tkhDAYDMTFxTF16lSn+4tJQPPmzenSpQvXr1/XVkzEfTIyMvD29s77w5BInnNeeOGFHFfyBRMmTGDt2rVOx1JSUpg2bRqHDx/WxjfBL7/8Qp8+fejSpctD67bb7ezYseORwt/Y7XZCQkI0cyBXVFUlICCA+fPn06ZNmyyJFVzLPmzVUIwtnTt35ubNm6SmplKoUCG3iRlGjRpF1apVNafA5zHYuBSRkueG3C7567c73n33XUaNGkW1atUoX74833//vVaP/gPrurKpKApms5kJEyYQFxfH1atXadGiBXfv3mXatGlUqVIFeDDTtdlsBAYGEhwczKuvvsqAAQOc7tGqVSs++OADSpQo4XR8xIgRTJw4kfLlyxMcHMy3336rbe0KWxnRPn17FUWhaNGixMXF0aZNG8aNG0eNGjWwWq1s376dI0eOsHnz5jwPTNeuXSMpKQmz2UxycjKbNm2iefPmKIriVujpY0mK31u2bMm4ceOYOnUqAQEB1KxZk6ioKBYtWkSdOnVITU0lNjYWT09PfvvtNyZNmsSVK1fIyMjIUq8rwsZSlDGZTDRr1oyuXbuycOFCzGYzs2fP5oUXXtDeH/FKTEykZcuWJCUlMWDAAHx8fLh27Rpnzpxh/PjxxMbGUrVqVaKiovjggw8oVaoUd+7c4YsvvqB79+68+eabuX6OEkl+Qdj2ZfeZFJNzdwkSihQpwunTp91uK0dFRbFnzx6tbE73T0tL4+WXXwbytmMhTFL0uz2uq5Pi3h06dMh2ByIvCKF7/Phx3nnnHXx9fcnMzNSej1iIMJlMjBo1iilTppCSkkLhwoUf677PDL1njvTOzn/kJ+/svMaJVNX7ntZDhw5VPT09VQ8PD7V3796q3W5XAXXVqlVauWrVqqn169dXVfXB50F4/k2ZMkUtVaqUCqjFihVTZ8yYoZ45c0YF1NOnT6uq+sDjTXgm37hxw8n7evfu3Sqg/vDDD07tTktLU//2t7+pJpNJNZvN6tChQzUP5R07dmjXh4SEqJ06dXJql/iZkJCghoSEqIBaqFAhtWnTplq78oqIA2k0GlWTyaR5TA4YMED19PRUVdX5/2fbtm0qoN6+fVu12Wxam4YMGaJ6eXmpgLp7926t/JYtW9To6GgtRmRERITmPamPE7lp0yandol7GgwG9Z133nHq/8WLF9XWrVuriqKovr6+6pw5c7TnffPmTSdP619//VWtW7eu6unpqQJqiRIlNE9Rq9WqZmRkqLGxsaqfn58WCeCNN95wiuv2vCG9s59fnrV3dl5ISEhwGycyO89fh8ORxatZVbOPE5mamvrIr/T09Ie2P6fnKs59+umnanh4uKqq7r2zVfXBuPT+++9rY77rM3A4HOqFCxfUGjVqqOXLl8/xOT1pnrR3thSR+Zz8JCLtdnuOg4HD4VDT09Od/n/F73a73SkgbHp6utMAZbFY3M07qcgAACAASURBVD4XfRn9edEW18+KzWbTQvy4ti0jIyPbz5ZegD1q+ywWy2N/dkX4joyMDKd7CoHl7v6u74log75P4rg4JwLvusO173pESBB36MP1ZNcufdvc1aMX6M/r58QVKSKfX54nEfnhhx9mmYjnliNHjjxURIpA3Y/yetzQXOL6qVOnaiJy3bp1amBgoNv+6oWkmIzrXyKRQdOmTdUbN248VtvyigzxIymwPMwrz915YT8othLEdoV+qxjItl59+kHhhSg8Et1dk1Mbs9smEUGv1f9ug7hrn7hnTu0T3pAifdej4q4P2dWX0zMX/VFdcmWLrTHxu2vfXPuux2g0um2L6/ubXbvEsxJtE20RdYpnKNrsel4ikbhH2B8/CoGBgbz//vvAg+1l1cX+8VnaC4o2/eUvf3FqV3b9FePyhx9+yN///nfOnDnD7t27OXnyJH5+fjRt2pQKFSrg7+///KU5dEGKSMlzQ3Z2eXrcnXeXScG1XF7FaV7uJerIru25aV9OXsG5CXmRWxRFcXuvvPYrp/IPa2tO73F2zyE3z1Dc/2GiUApGiSTvxMXFaZm88joeBQYG8uGHHwJooXX+TAgRWbduXerWrQtAmzZttEga2S0oqP+1F42IiCAiIsLpvFjceN7Hm+e79RKJRCKRSJ45DofDbTi03KLfuXjUFc2nQV7aqZ80i90m/Y7T8y4gQa5ESiQSiUQieUweVxTpIz08i5i3uSW7dgpTmexWYZ/ngOI58fzLYIlEIpFIJM8U/SpbTsdcz+cXnqRZ0fOEFJESiQ673e7kpGGz2Zxe2Q16ruVEGjBX1P+mZ9S/XOOrPQzX6x/WtvyM/v2SSCTPBuGIlpycTEpKCnA/HeuJEyec4r/qywOcOnVKsyvMK3nNcPVHs3z5cs1e8nG29Z83pIiUSP6L+t+MCnpPXX2KRQ8PD81Y2lWwuZYTHsbuAvC6ltV7WOcG1+v1bdPjrr4rV65w4MABrb/PG659Eu/X89gXiSS/oCgKiYmJ1KhRQxuH3n77bSIjIxk2bBjg/NkVIqtSpUrMmzcPyPt4pCiKW4H6tBHtPnfuHLt27XI6VhCQIlIi4UGu03bt2rFp0yYAlixZQtmyZYmMjCQyMpLo6GhmzJjBpUuXtIFSDIaNGjWicuXKREREEBYWRpcuXbTsOPoB5eDBg4SEhBAdHc2LL75IeHg4CQkJHD169KFiSNyrVq1aVKlSRfP4e/HFFylRooSWL1qgt08S9c6cOZPq1as71fc8IfokvpCGDh1KXFycW8EukUj+eBwOBxkZGbRu3ZqNGzdqmVdEqLL58+dz5MiRbO0l82pHKcYtDw8PVq9e/XiNlzw2UkRKCjwizMLbb7/N7du3ad68OQC3bt3i3LlzlCtXjtKlSxMcHExCQgKlS5fOMuM8fPgwKSkphIWFER4eztmzZ2nfvj2NGjVyEjgZGRlcunSJoKAgSpcuTYUKFZg3bx7R0dEsWrQoi+jUI44fPHiQ9PR0wsLCCA0NJTQ0lPLlyzvldk5NTeWdd97h9u3bTvU9z96A165dY8iQIWRmZgL337cJEybw4Ycfsn///ue6bxLJ84gYO4cNG0ajRo2oVauW5rFss9koV64cXbt2pX379oD7LWh3kz99uex2adT/pg98Uoi4tdm1w135h1EQJrbSO1tS4DEYDJw5c4bp06fz+++/awOjiEmYmJiI1WrVtk5jY2Pp0KEDly9fxm63YzKZsFgsdOnShc8//1y7/vz584SGhvLZZ5/x1ltvAQ/iiX3zzTcEBgZqcQsnTJjA66+/TufOnfHy8srRk89qtdK1a1cSEhI0WyQ9qqqSlJTEtGnTeO+997BYLNqWt35QE/aZIpZZdvd0OBxaUHBXw3ER5sJsNmv1iXKZmZnadr2wXXRXh74uYUvqrj3bt29nxowZTJ48GbvdjtlsxtfXl9mzZ9OzZ0+OHDmS51zhEonk8XA4HMyePZuff/4ZeDDGGQwGUlJSmD9/Pp6enixdupTu3bs/VHwJs6Jz586xc+dOGjduTFBQkDbWnTp1imPHjgGwd+9e/Pz88PHxITAwkAsXLtC8eXOncfHUqVPs27ePbt26afdWFIUffvgBX19fatWq5TQ2HTp0iJMnT/KXv/yFkJAQ7Zyoc/PmzRiNRho3bszp06fZu3cvXbt2zSIYHQ4HFouFb775hgYNGlCpUqUn+tz/LMipu6RAI2aaw4cPp1OnTpQoUcIpDpi+nBA5EydO5MqVK1y8eNFJsOgdcqxWK2XKlCE2Npavv/7abX1CWFksFkaPHg3ATz/9lKvZtT7jinjpB0ghgD08PDCbzdkGw/Xw8MBkMrndDtZnwjGZTE7xzvR1CAEpQl6IcmazWVtZNRqN2jl3XyLCnEDfHnd2p3A/iLioy26307dvX44ePcquXbukgJRIniIGg4HExETgfiBuvYmM+AybzWYSEhJ49dVXsVgsOYpIMR62aNGCsmXL0qNHD4KDg+nXr58mCleuXEmnTp1QFIV//vOftGrVijfeeIPz58/ToUMHrR4xnk2fPp3u3btz+fJlp3GuT58+7N27V+vH8uXLMRgMVKtWjc6dO1O6dGlCQkI4fvw48OC7YsSIESQkJLBs2TLCw8Pp1q2bdk+BmEzXqVOHjz/+mJCQkHxrJylFpKRAoygKmZmZrF69Wku7JUScayo+4SxjNpsBSEtLy5KaUPwUYsbT05MrV64AzuJL1CdWN0U9ufVUFHWJwVIf6LdWrVqal2BAQABGo5GhQ4dmacPEiRPx9/enUKFCTJw4Mct5RVG4cuUKXbt2RVEUqlSpQmJiopPA+/HHH1EUBYvFwqRJk1AUhX/84x/a9evWrePo0aO89NJLKIpCy5YtOXHihFNfhFCdM2cOJUuWxGg0MmzYMCwWi7Z1Xa5cOe0Lwmw2YzKZmDRpEkajEbPZTMuWLbU+/Nm8NiWS/IgYA7Zs2ULTpk2BrOYyYlx77733CA0NZfTo0VpqUVfEOBAbG8v169e5ePEiFouFo0ePsnjxYj755BPgvojLzMxEVVW+/vprVFXlwIED1K9fn7S0NI4ePYrRaNTuMXfuXPz9/TUHHoCUlBQuXbpE586dgfu7TV27dmX8+PGkpKSQmZnJhQsXiImJISoqipSUFK2/RqORM2fOsG3bNtLT0zXnHn02LW9vb7p06YLVauXAgQMUKlRIxomUSPIbwqZmx44dGAwGatSooa2IifMCEUbHYDCwb98+PD09qVixopNgEYOWPtxOUlISPXv2BJwHWH1oHpPJxMmTJwFo0qRJrtou6hKrcvoVwIEDB9KnTx8ARo4cybvvvstf//pXrY0mk4m+ffuyefNm3n77bbp168bo0aMZNGiQ00z9+PHjhISEcPv2bRISEqhbty6tW7dm6dKl2jMSZadMmcL3339PXFwc9evX19r5008/8corr1C7dm3i4+M5ceIEtWvXJjU11WmbvGXLlowYMYJevXrxj3/8gzVr1hATE6MJ9mHDhtGlSxcAxowZw4gRI2jQoIF2n7feeouNGzfm6tlJJJLHR3z2jxw5QokSJXIsqygKX3/9NVOnTuW3335zu9tiNBpJSkpi3bp17N69m+DgYDw8PIiMjOSzzz5j/vz5AE5b1QJVVSlUqBDly5dn7ty5wH1Rt2fPHurVq0e/fv1Yv349cH/sPHbsGF5eXgQEBADw6quvMnz4cOLi4vD09ERRFIKCgli1ahVeXl7MmTNHCyxuMBi4ceMGn3zyiVM0Dz2jRo1i06ZN7N27N0dTofyAtImUFHjOnDlDcHBwli1d/QffZDJhs9nYsWMHHTt21Fa93K1Eenh4cOfOHT744AMOHTrE1q1bs9xT2Cja7XYOHz7Myy+/TGxsLIGBgQ/Np+rl5cXkyZOZMGECgLatu379elq1akX//v2pXLkyX375Je+++y7+/v5O7bRarURFRbFgwQJsNpvWlpUrVzJ79mxsNhtms5nmzZsTHx/PuHHjNFvDunXrMmDAALp37w488JS8ffs2O3fuzLIqunz5ck6ePKkNtn369CE0NJT/+7//01YWv/rqK3bu3MnVq1fx8vJCVVXi4uLw8vJi7dq1tG3bliFDhhAaGsqyZcsYN26c9gwF5cqVIyMjg4yMDDw9PR/6nkskksdDZGfZunUrAwYMAHBrhgKQmZlJgwYNaNu2LZ06dWL//v1u69y2bRseHh5MnjyZtLQ0bVfn+PHjHDlyxMnsBXAynYH7k+ZJkyZpq5bfffcdjRs3pkePHvzzn//EYrHg6enJ559/zsiRI4H78Sxv3brFm2++qdlji/4BxMbGsnTpUq28zWYjMjIST09PbRKsL79w4UKmTJnC9evX8fHxyfcOf1JESgosYhBcu3Yt/v7+gPPqo/Ay1BtVq6pKfHw87733ntOqpY+PD/PmzWPOnDna9WXKlOHQoUMUL148S52lS5fGZrNpdb7++ussXLjwoQIS7nt4v/LKK3Tr1o179+6hKArp6elER0drZfR2nfqZuxh0hw8fTmZmpja7HjhwIF988QWXL18mODiYixcvcuHCBYYNG8bdu3c156GmTZty9+5drl69SokSJbT6BgwY4PSMRB/i4uIwmUxOdqKlSpViyZIlmohcunQpffv2xdvbm/T0dFRVxcfHh+rVq7Nx40batm3r1H/XLymHw0FQUBBw34i+cuXKOT4/iUTydPHw8EBVVRYtWoS/vz/ff/89//M//5Ol3I4dO7DZbIwZM8bpuJeXF5B9WDIxvjVv3pz//d//5cyZM5QvX56vv/6aPXv2EBISgsFgYM2aNXTt2pX9+/czaNAgAM6fPw9A4cKF3a5yent7aztFAndjtBCRo0aNYsCAARQvXlzbvcrPSBEpKfDcunXLaVVLIATSihUruHfvHiVLlqRhw4aaI4nwOob7M+0mTZpoYYJq165NxYoV3QbHBpg1axa+vr74+vrSuHFjChcunCsBKahatSqvvvqq20EPnPO7ZreVoj+nL6MoihZz0s/Pz6kPov2//fYbJUqU0K4LDg7WRLm+3qJFiwJksYPS32/Xrl1s2rSJ6dOnZ2mjO/vGnLaG0tPTsz0nkUieHGKsqlmzJrdv3wayD3sjjhctWpTJkyfTvn17t2Xr1KnDtm3buHr1qrZL4opeSOonyw6Hg/DwcIoWLcr69evp3r075cqVIyQkBIAOHTpoIvLs2bPUqlULu92unb93755Tm8Tvt2/f1syBckKMjcnJyfj5+REaGkpcXFy+jxghRaSkwOPt7a0NgnrEINmxY0esVqu2ouZO7NlsNsLCwmjTpo123t3gIa5r164dgYGBTtlqnuWM1VWYCfG2du1abDab1g9FUUhNTX3scBX6wfrOnTv07t2bXr16aSJQURSsVqsmQh+GEKjuvnQkEsmTR4wZMTExJCUl5aq83W5n1KhRzJo1i/Hjx+Pj4+M0UXz55ZcZNWoUV65cISgoiMzMTC3qg7sx0t1keeDAgSxbtgxPT08nG/NevXrRvn17hg8fru1uOBwOSpYsSVBQEPHx8Xz55ZdOO0yZmZksX76cL7/8MtfPw9vbm/3791OlShWKFCnC4MGD87WQlCOupMAiBqTY2FjNzu5hBtB5EXq5HTRyWi3MDr0Tj/5aVxEl4jiKsDm5rVvMvGNiYihWrNgfahjeoUMHPDw8aNq0abYrq67tE4OyoigYDAauXr0KQHR09DMX5BJJQUB8xmrVqsXnn38OODu96GPtuprTLFu2jPr16+Pr66uJSLvdTvXq1alXrx41a9Zk8eLFlC9fHqvVSmJiIqdOneKzzz7TJqBlypRh5cqVNG7cmOTkZGJiYgBo2bIlkydPxtfXlxkzZgD3x8nWrVvj6+vLsGHDGDx4MPBgvFyxYgUNGzbEbrczevRovL29OX/+PG+99RY1a9akd+/emj2liKqR3fMAiIiIYO/evdSoUYPChQvTu3fvXI1tzyNypJUUWMQHOiIigsuXLzvNQJ82wnbx119/5d69ew8tr3fi0b8Ewtbx5s2bmrdhbrHb7QQEBBAVFUW3bt00hyMxeIu4cE+Knj17Mm/ePPbs2eNkmH/s2DHNXgnQHGZu376tBWQXZY8cOUKhQoU0UwOJRPLH43A46NatGxkZGSQlJWWJmyu2nvWfSYfDQUxMDF26dOHOnTtOodEcDgc//PADFSpUoFmzZoSFhVGpUiWmTp3K3/72N+CB8Js2bRorVqygZMmS9O/fHwCLxUKTJk0oUqQIqamphIWFac4vJpOJl19+mZ07d9K5c2fsdrs2hjRo0IDt27ezceNGIiMjKV++PA0bNiQyMpJdu3ZpsW7hQWxed89CIATxhg0b6NOnD+PHj88xG9nzjFyJlBRoHA4HNWvWBO7b5tWrV++ZzRivXbtGzZo1uXHjBj4+PtmWM5vNzJ07l9WrV2uDmcFgIDg4mC1btmCxWKhZsyblypWjRo0aFCtWjM6dOzN16tRcDWJisFy9ejXVq1fHx8eH0NBQ7HY7ycnJVK9enVatWj2RPlutVjp27Mjrr79OnTp1KFOmDL6+vty6dYsrV65w5MgR4P6g3KpVK/z9/alUqRKenp4MHz5c85icM2cOsbGxwMNXkyUSyZPDaDTSpUsXxowZw9q1a7XjkydP5u7du4DzDokQjfPnz2fUqFGaTaJ+R2bHjh2kpqZy9uxZypcvj6+vr3a9KNOxY0fS09M5e/YsERERwAMv7V27dlGkSBGtfYKZM2cyYcIEbQdD1CeE5JUrV7h+/Tq///47ERERWnIERVG0ekRQctEX0Z7evXtrKXNNJhOqqtKyZUvOnj3LtWvXHvMp/3mRIlJSoFFVFW9vb5o1a8bnn39OvXr1NAeR0qVLU6dOHSB7YSIGk2bNmhEZGZljWYAiRYpQqVIlLZuLaIOiKGzatIlGjRpRrFgxtzY0onyLFi2w2WxOs2FFUQgMDAQeDNh79uxh8uTJnD9/nmHDhgEQHh6uBQbWt7Nw4cKaOBPHX3jhBZKTk1m9ejWLFi2ievXqdOzYkZdeeklrs7+/P5GRkU6x0MTPKlWqaF7T+uMvvfSS9qxEUOCFCxfSv39/5s2bx6VLlxgxYgRt27bV+iSexeHDh5kwYQL37t2jT58+qKpKRkYGP/zwg5bPXG5lSyRPB/FZmzFjBkFBQSQlJVG1alXg/nazwN2Y6OXlRbVq1dzWabfb8fX1pXLlylqmMHcpV81mMxEREU7mLYA2vrhSqlQpSpUqlaVNQkja7XaKFy9OQECAk9mMvnx4eLjbfgUEBGhxJ/Vje2hoKGXLls32OTzvKKqqquJBlSlThj179hAUFJQvO1sQEfZwRYsWJS0tDavVqh2TPOD06dOEh4dz7do1ihUr9lSFiLDh69q1K40aNdJCTzwuj7uiKrbYXZ/FH2Fz6K5OYV6g74O+T+KaMWPGsGbNGg4fPpytR2dBZs6cObzxxht88MEHjB07Nt/aZuVHxHs1duxYLBYLH3300Z/u/RPtmT9/PmPHjuXcuXNOgk7y50K8XytWrGDevHls2LDhsRx/5JRdUuBxOByEhYUxZswY6tWrp82Excw0N4g82A/DXZ1ii/nMmTP07NnzofXo82W7vvQIW0b98ez65O642PIR54RdpF7s5fSM9Pm8XY+79lEfsFdcp98qctcnkXliwoQJbN68GZDe2RLJ00as4vXr14+DBw/+6USu5I9FjriSAo8w6B4/fjypqakcO3bMabs1N+TFE9u1rPh7x44ducq2kpcZo7uQGO6uz+7445zL63F37c2ujBCn69at41//+hdBQUHyy0sieUYIIenv759vQ9lI3CNFpETCA2Eybdq0Z9YGuYqWe4RYFI41UkBKJM+WnCaUkvyL/NaSSP6LmE0/KzEiB+C8I1YkpYCUSJ4uriYpjxLv9o9EJHEQpjFP2+GuoMSrlSJSItHxZxoEJQ9Hvl8SybPhSQikP3oSaDQasVgsz2ScELtb+X2Myv8yWSKRSCQSyRNBONKNGjWK3r1789prr9GtWzeWL18OZJ8/2x1/5OplUlIS4eHheHl5kZCQkOe2PQ7/+c9/6NWrF5B1xTa/IVciJRKJRCKR5AohxDZv3sypU6dITU3Fw8ODSpUq5akORVH48ccfMRqN1K1b94m1T4i2Bg0a0L59ez799FPCwsKAp7Nz4XA4CA8P58SJE7z11lvMnDkzX29t589eSSQSiUQieeIIB8B9+/axdOlSAO7evcvYsWMB59BeIvWh62qc1WoFoGHDhmzfvh1AS5GoJ7vr9efE76JOg8HA1q1bSUtLY86cObRs2TKLwM2pXj0ihJnNZnO7iqmqapbEDyJE3JYtW/jiiy9ITk7OtwISpIiUSCQSiUTyCAjxZLVaNUEmslcJhxYPDw+nsFzgvCIoHAr1joX6RAfurge0c6KcPoGGXlC65u3WX+uuXv39hce5PiOXvi5FUfDw8NDarrfx9PX15ZVXXtGyheU25vDzhhSREolEIpFI8owQTyaTSRNoQUFBrF27lnv37jF69GhKly7NiBEjuHnzpnbdunXrtJzZU6ZMoUqVKlqKWavViqIoXLp0iUGDBlG6dGni4+O5c+cO8ECoTZw4kerVq6MoCh999BE+Pj5cv36d1q1bM2DAAABq165NxYoVtXoNBgMbN27kjTfeoEyZMrzzzjtcvnzZqU9CPKampjJz5kyaNGlCVFQU06ZN09og+rp48WIiIyNp3bo1e/bscRLPAOPHj2fVqlWkpaXl29XI/NkriUQikUgkT52rV69y4sQJoqKi2Lx5M5UrV2bWrFlUr15dWyH08fGhXLlyAPj5+REaGqqJSpPJRGJiIqVLl2bbtm1UrVqV+fPnU6FCBVJSUjQRefHiRc6dO8fYsWOZO3cuUVFRKIpCyZIlCQwMBCAkJETL4W0ymRg0aBBt2rRh//79REdH89133/HCCy9w69Ytp9XH9evX4+fnR3x8PHA/D/jYsWP59ddftX5WrFiRN998k7Jly5KamkqdOnWYP3++JiQdDgdRUVEYjUZ++umnfOulLR1rJBKJRCKRPDEmTJjAwYMHNQF36NAhqlSpwsaNG2nTpg1NmjShZcuWKIpC//79GTlypCa8MjIyaNu2LV9++SW9e/fW8jrXrVuXwYMH89VXX2n3uXnzJqVKleLUqVOa88r8+fPZsGEDrVq1Ys2aNU7b3EOGDGHGjBlOK4aFChVi1apV9OvXD1VVOX/+PG3atGHcuHHEx8c7hekRK5ADBw7Ex8eHu3fvavddtWoVnTp1ok+fPprQNRgMhIaGcvz4cVq0aJEvQ/7IlUiJRCKRSCRPjJEjR1KmTBlsNhsWi4XKlStToUIFZs+eDTjbBwphZrfbMRgM/Pvf/6ZYsWL07t0bm82mbZn37duXbdu2adeJ7eE+ffpgtVrd2j46HA6ne1WsWBGDwYCiKNy9e5ebN29SvHhxLTyRoihMmzaNatWqER8fr9l62u12J4ehBQsWsGTJEq0dVquVjh07AnDw4EEn+87AwEC2bt3q1K78hBSREolEIpFInhhia1rvdGI0GjVBp1+NE2JQHFu/fj3Xrl3TnGVELMlBgwaRnJzsJBbNZjNeXl5a/a51GgwGp+Pnzp2jXbt2KIpC0aJFKV68OOfPn3eqc+XKlTRp0sSp/frXf/7zHxwOh2aPqSgKZrNZu+eOHTuAB7abHh4eJCcnOx3LT8jtbIlEIpFIJH84uRFRFy5cwM/Pj/fff5/U1FRt5RAgPT09z/XB/RVAsSJav359fv75Z0qVKkXZsmV58cUXnepJTk7WhKk70tLSgPtb476+vtpxRVFISUmhdu3a2t/6n/kVKSIlEolEIpHkGX08SD2PIpxEXT179mT//v28++672Gw2LS6la7m81GswGJg7dy6pqakkJiY6bX9nZGQ4le/cubPmQKPfThflK1euDED//v2JjIx86P2vXr1K3759gSeTKvLPRv7rkUQikUgkkj8cIRb1q4V5xWKxAA+2oxs0aMDvv//OypUrtTiQQsD99ttvj3yfzMxMp3abzWYSExM5c+aM05Z3//79+fe//82mTZu07XT9trjBYKBhw4a8+eabgLOAPnv2rFN7Aa5cuaKJzfy4KilXIiUSiUQikeQK4S393nvvsW/fPgB69epFu3bt6NmzZ7bX6YWmEGT9+vUjPj6es2fPcvHiRRITEylbtizx8fF07tyZRo0aERYWRkpKCps3b+a1115j+vTpAJq4c4d+K1lRFBwOB3369GHkyJFER0cTExPDsWPHCAsLo06dOlroIavVSosWLYiPj6dFixbExMQQERGBw+Fg+/btLF68mIYNG/Ltt98SGhpKaGgojRo1wmAwcPr0aX755RdsNhtWqxWTyaSlhYyJiXFqV35CrkQWUMRsSb7kS77y70t81iWSJ4X4f9q4cSMHDhwgJCSENWvWcOzYMa2Mt7d3lusCAgLw9/cHHmzrfvLJJwwePJjly5drziw2m41x48axdu1a/Pz8WLJkCXa7nZkzZzJ9+nRt5a9w4cIEBQUBWcWZ2WzWfhdis3jx4pw6dYro6GhWr15N69atWbx4MWazmYCAAK1dqqoybtw4fvzxR6Kiovjuu+84cuQIPXr0ICIiAoBSpUpx7tw5evToQWJiIvv27aNZs2Za4HIhkpcsWUJYWBjBwcFu0zrmBxRVVVUxsyhTpgx79uwhKCgoXyrmgoiYEfn7+3P37l1OnjxJZmZmFjsTiUSS//D29mbBggWMHTuW8ePHM2bMGFQ1/8Wqy6+I92rs2LFYLBY++uijfPX+ZdcXEXsxt8cf9X7Z3T83z9hdGdE+EQ7IZDKxZcsWTSD/GRDtXrFiBfPmzWPDhg3a6vKjIJVEAUHYg1SoUOEZt0QikTxNXAMlSyRPApvN5rTKLewGrVYrRqMxi9iz2WxaLmqB2Gq23sAfzQAAAgpJREFU2+1O+anFtXa7XRNm4iUQ5/TBxAWqqmKz2bKcUxRFu07cL7t2wYM4k+K8XjSKgOX66w0GAw6HA6PRSGxsLJ07d6ZJkyaPJdL+7EgRmc8RK44TJ05k0aJF+Pr6aonjJRJJ/keEN2nXrh2QP+2yJE+f7Haz3Im6nMq7ikM9IjZjXs8pipJtO1yvy2lXLqe2ZXcfg8HAyZMnOX/+PFu3btVEZX5Fish8jvjCGDJkCEOGDHnGrZFIJBKJJH9TsWJFdu3ala9MD7JDisgCgsPhkCuQEkkB5nHCsEgkktyjqmq+X4EUSBFZQHjYsrxEIpFIJJLHx9XGMj8jVYVEIpFIJBKJJM9IESmRSCQSiUQiyTNSREokEolEIpFI8owUkRKJRCKRSCSSPOPWsUamyZJIJBKJ5NkiQsTINJaSJ4X+f+pJ4CQiRbJy8ZJIJBKJRPJs0WdLkd/PkifBk0p97FSL1Wplw4YN+Pn5yX9SiUQikUieIaqq4u3tzbFjx7BarWzatIm0tDT5/Sx5ZERO7507d2K1Wh+7PkVVVdXhcKCqKm3atMFqtcp/UIlEIpFI/iRkZmaiqipeXl5yO1vyRMjMzCQ6OppZs2Y9Vm5vRZX/kRKJRCKRSCSSPOK0nW23259VOyQSiUQikUgkT5HHzawjVyIlEolEIpFIJHlGxomUSCQSiUQikeSZ/wdSJbJhMKdFqwAAAABJRU5ErkJggg==;" vertex="1" parent="1">
          <mxGeometry x="1610" y="330" width="657" height="437" as="geometry" />
        </mxCell>
      </root>
    </mxGraphModel>
  </diagram>
</mxfile>
